<mxfile host="app.diagrams.net" modified="2021-04-12T01:36:40.608Z" agent="5.0 (Macintosh; Intel Mac OS X 10_15_6) AppleWebKit/537.36 (KHTML, like Gecko) Chrome/89.0.4389.114 Safari/537.36" etag="U0PbOgl8JNY5LJVElX0c" version="14.5.3" type="github">
  <diagram id="dgB2ybcBULRgKC6ATgC9" name="第 1 页">
    <mxGraphModel dx="1186" dy="764" grid="1" gridSize="10" guides="1" tooltips="1" connect="1" arrows="1" fold="1" page="1" pageScale="1" pageWidth="827" pageHeight="1169" math="0" shadow="0">
      <root>
        <mxCell id="0" />
        <mxCell id="1" parent="0" />
        <mxCell id="fFnb8WoUcJC8kmY_FyQT-2" value="" style="shape=image;verticalLabelPosition=bottom;labelBackgroundColor=#ffffff;verticalAlign=top;aspect=fixed;imageAspect=0;image=data:image/jpeg,/9j/4AAQSkZJRgABAQEAYABgAAD/2wBDAAMCAgMCAgMDAwMEAwMEBQgFBQQEBQoHBwYIDAoMDAsKCwsNDhIQDQ4RDgsLEBYQERMUFRUVDA8XGBYUGBIUFRT/2wBDAQMEBAUEBQkFBQkUDQsNFBQUFBQUFBQUFBQUFBQUFBQUFBQUFBQUFBQUFBQUFBQUFBQUFBQUFBQUFBQUFBQUFBT/wAARCAB4ARsDASIAAhEBAxEB/8QAHAABAAIDAQEBAAAAAAAAAAAAAAUGAwQHAgEJ/8QANhAAAgEDAwMCBQMDBAIDAQAAAQIDAAQRBRIhBhMxIkEHFDJRYSNxkRWBoRYkQlIzQ2JjcoP/xAAZAQEAAwEBAAAAAAAAAAAAAAAAAQIDBAX/xAAxEQACAQMCBAQFAwUBAAAAAAAAAQIDERIhMQQTQVEiYXHwFIGhwdFCseEFIzJSkfH/2gAMAwEAAhEDEQA/AP1TpWO4kaKCR0jMrqpKxqQCxx4GeOaheieobnqfQhe3doljci4nt5IEk7gUxytH9WBn6ftVsXbIo5pTUOr+xPUrnXXnWt/o2v29vZzpDFDBJLJEcFpyNg8YJGN4wByST9hmR6T6xe+ttTe+uVup7eftLBaxlj44xgDJJz58Yq/KlipHOuKpuo6XVF0pVF0XqzUrXULxNVtbieJ7wQk20XcFm7IjLGQvLLtdcvj6t3/HFaGu9e6lbQ9QiCJonj3xWxnYIY2CkLtAVixLAtlsAAqPvUqlJuxD4qmo5O50mlViDrDfoNtetA00t3MbeCO1JYs3qwfWE/6n2rT6N13V3SS11z0XFjZQyXH+3w7Mwb1ZV2z9DcBR5H7VXluzZdV4OSS6lzpXILPrrWJ9fXfe3zWMeoSmWJNPBAtlkkC8gFvCgeM5z71cL/qXUZOqk06wgZYhCCXuIsREtg7yeDwAFCjGS7f9DV5UZRdjKHF05q672LfSqPN1Pqr9CQarJLaWs+orbiB0jbFuJto3NkncVLZ9vFaGi9c6rdXsUsq281rI8FoIu522y0zoZwNpyCABjcOUP3FRyZNNkvi6aaT66nR6VyvWviBqVxMba3vbeyWK5Mc1x2RhUWUwtn9QkeojyBxUrrfVOr6f0HBdqSLyWz3m7kgVAHZTsG0yDD5K8DPPge1TyZaeZC4uDysnorl/pVD6G6v1bXLbUJL+HBiU7GWNEWLABAf1sd7BgceABVPsPiJ1HdX9vatehJCbQuM2xyJJCrADyDgD74wfuKlUJNtXWhWXHU4xjJp+I7ZSuedSda6lp/UdxbWjwssZNqlsyEszm3MwlJHgArjGPBJ54qw9Ga1c6rbXMN12pJbIxwm5il7guMwo/c4VQM7/AABiqOnJRyNocRCc3Bb7FipSlZHUKUpQClKUApSlAKUpQClKUApSlAKUpQClKUBjnjaWCREkaF2UhZFAJU48jORx+arXTHRdx01AkP8AXb29jF3JdssscS7zJvLqdqjgu5f9wPbirTSrKTSsjOVOMpKT3RBdQ9H2PUsm+7abPy7222OUqpRypIIHnlV/isfR/Sz9NWs4mvJby5uJnmlZmbYCXYjapJxwQCffFS13qtnp8gjubqK3YxtKO64X0KVDNz7Aso/uK8Q63p9zbzzw31tLBbgmaSOVWWMAZO4g8cc81bKWOPQzwpczP9Rj0rSTpt3qsxk3/PXIuMYxs/SjTH5+jP8AeoFvh6nzAnS/aKU3r3jFIIwvqDjG3bgn1fU2T5q0C/t2uIoBMhlljMsaZ5ZBgFh+PUv8ivVxeQWrwJNKsbTv24gx+tsFsD84Un+1FKS2JdOnJWfQq79CGbSIdOku0lhia4mBeBWPekdmR8ePTvbjHJx4xW3pvSX9GuriaxuI7fvo6si26gEkgxk4xnZ6x+d3Pipq81G1062Nxc3EcEAYKZJGAXJOAM/ckgVj0/WLLVjN8ncx3HZYLJ22ztJGQD/apzm0VVKlGSXX1KfcfC/s3AlsLyFsQiIRalbC5VTuLlxyDksxJ5xzUvddF/M6w2pi/eC7KooeKGMEbVweSpJzk8Zx+KkD1Zoi5zrFgMDJ/wB0nj+a33vYI7mO3aVVnkVnSMnllXG4j9tw/mpc59SsaVC3h/crkPRM0GhWuljWLh4bU2/YZoo90YiIIxhec4HnPiidEyR/0eNdQYwWUxnmDRLunbczLkgcAM2cCrJZ3kGoWsVzbSpPbyqHjljOVZT4INZqrnIuqFNpWX16FHu/hXaalbPbXt/dXMMoYy8hDIxffkhQFA3YbAHkea2b/oSXVdCtrS91D5vUIJ1lF9LHzhZd+AqkAHHpyMVb6VPNn3I+Gpa+HfQrOj9HtpWnazbNcx3LX8hkBkiJVD2kQAgsdw9GfPvUVL8KbKVJxvhDSRlAxtIyfCbc8c4Kuce/cIq90qFUktUyXw9JpJrYrZ6ODa//AFH52QRfMC4+UCLsJFuYfOM+DnzitvprQZdDS+M9183Pd3JnZ+2ECrtVEUAccKij+amaVDm2rMuqUIu6XtilKVQ1FKUoBSlKAUpSgFKUoBSlKAUpSgFKUoBSlKAw3jxR2c7zP24VRi75I2rjk5Hjiub/AAp17RnXU7iw1FF068vI4rOye6M0kZ2EBmBJKNIVZtp9hzzmumkZGD4rwsEafTGq+/C4rSMkouPc56lJzqRmntfocm+KOm3Vz1Ws6yfL2iaZMWaSRxuPcgBK4YAY3R/w3vg1itLiT/SnU0zX0WZbqBXLXKFgwCoyuJWICELkZb1KePIrrF5plpqGRdWsNwChj/VQN6SQSvPsSqnH4FBplmLh5xawid1VWk7Y3MF+kE++Pat1X8Ki1scb4K9WVRPf8WORWxb/AFFZSvdh2t54bJ457yTvyGUwuXCkrxnHgAeeOBU/1ZKNW1+eK7mkk06zKSwLEbfYJVUrLu7nJwJFzngZroDafavIzm3iLs6yMxQZLDGD+4wOfwK+DTbQBgLaLDFmI2Dkt9R/v7/equsm72LLhGouN93c5rrHck+H+hac0lvHLLLCt4iW6sY5Y3V5mKr6QFZW3enHPtmvXwtvJo7ae6RopYbyEXbRRpChZwigBNknAwp+pR58iulpZwRyGRYUVznLBRk581rR6FpsNy9zHp9slw6lGlWFQzKfIJx4NOanFxtuSuFaqRqZbK3v6nAvkZI1Ym3uXsUtUx/vISPSmSR6MD9Nw3keS2fJF16qgTVetVh7kFtNN8oiMw/3CBllztIPjgZ/aunLptoqBBbQhAMbdgxjbtx/HH7Vk+VhDbu0m7jnaM8eP4q8uIu72MYf09Qi45bv8/kp3w6ESXOqw28iGG3W2gMMFy08UMgiy6ISTgAt449qu1YbezgtO52IY4e45kfYoG5j5Jx5NZq5pyylc9GlDlwx97ilKVQ2FKUoBSlKAUpSgFKUoBSlKAUpSgFKUoBSlKAUpSgFKUoBSlKA8SsyxOUUO4BKqTgE+wz7VVugetZOsBqiyxWYaxnWHv2Fz8xBJlA2A2ByM4NWi4jaaCSNZGiZlKiRcZUkeRmqxoXQ8miXc94dYurm8uZonuJjFEndRFYLGVVAAPUSSBnxzWkccXffoc1TmcyDhtrchuvOuL3Q9ftrezuLSGOGCSaWKd1LTEBMDHkY3DA8sT+OZDpTrU6jb6nJe3drcS203bWGwG8nj2xktk5/g1L9Q9IWnUkge5kmUi3kttsbAKyOVLZGPui/xWLo/pebpy3uTc3z3tzczPNI3hBliRtU+OCAeecVrlTdO1tTnUK6rt38L/HqRGi9XajbX16NXtbh4WuxD/t4e58mzIjJGwTJK7XXL+zFvAwa0dX671eKz17t26kQW108D2yDfEY5XjDPvbBHozwKu2maU2n32rTtIHF7crOFAxsAijjx+f8Ax5/vUdqHROnzabq8NnBHaXWowyxyXG3LEyFmJP39TE1CnDK7XYSpV8LRl39fI+3ut77aISnUNKmLE4W1ErMB/wDkOoBz+9QfS3V9xe20moyz3t3bTWhuLezaxKuABu5kCqpZgRhf8mrreR3DWUqWkkcVztxG8yF0DflQQSP7ioyw6da16Ot9DeZJGjshaNKYwVYhNpOw+R+DVU421NZQqZpp7L6/99ehSz8QtThtNId40O6VmmkkLKZU7b/8Vibau/bjncQAferP1Trl9DZxWWmwSvrFxEJ07IVlRVeMOTvK5Hrx9z+Ki7v4WpNa3EEWodtZbL5QlraI8+r1Y24X6hwuKmNV6QXWdSS5uXgkSEIkKNAG2J/7Bk5+r08jGNo/OdG6d00c8YcRjKMr627fMw2nU9w3Tmp392e3JDJLCgjtiGR0BByAz59QPOcVV+hus9WvtctE1Ke8ktntikgezAUXBMW0EovHDMecDBzVqg6MaLRLjSfmlWxuVUTJDCIycj9bbj6d55/GWx7Y0bDoC50nWvm7a7tJo2uBMzXlpvnRQgTYkisoHpAAJB985zROmk0JQruUH0W+v8lY174haxYdQT2aXawx/MyRpxFhVUnzkE8AA59ySOKmNY611LS9D6fmM9slzLp/z1x3iF77KqZjUD3YyZ4+3HmpB/hnaz3Qnl+VZhKXAW0UYUyE4H/8zsJ/Y17n+Hnd02zs479rZLezltCYoUAkDspJIxgfT7Y8+1XzpaaGSpcV43ffbXzR76T6k1C+1H5O+SFxOLm5SSOXLQqkqoIWXaMMobB5PINW+oOz6elt+p7nVHuVeFoO1DbrEF7ZZgzksPqyQvn81OVyzabuj0qKnGNpilKVQ3FKUoBSlKAUpSgFKUoBSlKAUpSgFKUoBSlKAUpSgFadhq9lqkl3HaXUVy9pKYJxG2e3IACVP5wRXrVI7uXTLtLCRIb1omEEkoyqvj0kj3AOKoPw40DXejLjVbe+sYZ4Lq8hCTWjHn9BQ8zljkgsoz7liT4rWMU4tt6nNUqThUhFRunu+xb9Q6r07TNbtNMuLmKO4uEdxulVQm0oADk5yS4x969HqzSXsL28t76C8hs4DcTfLSLIVTBIPB9wpx+1VrrPTby+6gtZLSxN+idjvqBsMSJMJSVY8MW2oNufCn71qaTo2oHQLm3v7Ge0E2k2dlstSrvIQsgdeRhThgCT4z5q+EMU7nO61VVJRS016PsTelfEnTNX1aLT4I5e/JMYM9yFgG7Xd/4uTjb7gEZ4q2Vxnp3pTXNI6hmub99TugNSRla1kDiFjBGMsHxvTaxQuORg8fbqMnTtvLI7m4vwWJJC30yj+wDYApVjCLWLJ4WrWqRbqLW/pobep6lBpGn3F5dP24IELuffA9gPc+wHvWDRtbg1nTI7xA0GV/VhlwHhYDlHweCKwr0zZIsYbv3CROZUS4maUByc7vUTkg+M+PaqxpPSVsnRFrefJypqb6KlvNEob9U9kDDxhlDkHgZ58jIqiUWtzaU6qmrLSxMH4h6OiWDS3CQNdybBFLIivENjOGdd3AIX9/UOKlNY1yDR9IbUWDTwLsP6I3FgzBQR9/qrld307qlrp/bjstQhe1szdQLabV/XbeDvAfzyRwWOD58CrZ1Rps2ra7alLNLqK0hEDi7tTLGWkKsGHqH09sZPON/71q4QTWpyxr1nGV1rpbT3tuWmHXLa4srq5RZu3bAlw8LRk4XdwGAzxUT0/wBeW3UWowWkWn39qZrZrpZLqNUUqCgxwx59YqDs9Ou06M1HTYrSeK9uHaaARoYI8z5ZQcMcKmSGGf8Aj75FQXTOgHQepYhNZXlgy3KwRbIpn3x7EyO4jbNhdSfUPA5A4oqcLMSr1soWWj392Ohy9aaVbzXEU87QmGXs5ZCQ7ekenGeNzbM/9gR7V81LrTTdLhsZZWlMd3kqRCwKIB6nYEZVRwDn7iqLZaBqOnWV2kOhzN8xewTBo1RGCR3Kvg7pCSNoJHI5JJHNSfXFrfa48MkGnajHvsLmFo07YIJkiwH9R4IUn0nNOXDJK+nqOfWwbtr6PuWzROrNO1+aeG2nTvxSSp2Wdd7Kj7C4AOdufB/I+9TNUaws7nT+pLuO1tp2j0+wmWGWeMCNjJIrpGhBywUJj7+KtujSXk2kWUmoxxxX7QI1xHDnYsm0bgufbOaxnFLVHXRqSkrTWpF6l1nZ6XqnyEkM8koaNCybMAuwA4LAnBYZwDjNerXrTTLqO4lErLBFKkKSFSe6XjWQbQOT6W+3sarPU2i3c/VEmowW01zbQmHuiNcNkSRN6AfrwIyT+/GSMV40DQpW6a6ltGtnlnizDbtLCULyLZxxFk3D3O4A/k1thDFM5edW5jjbTUtNl1np91MsMnftJZLg28S3EDoJWGSCpIxyBkVpN8SdHUyeuT03MdupZdokD+JFLYGwYfJ/+tsZ4zqaDchNSsMx6teXEyiJ2uYjHDbKEJztwFByAuQMnNQPT2j3enq2o3VpqSPY2VsyDYjs+15TJGig8gqQOeeeOaKENbh1q2lvPptsXPVOtrHTLa3uhHLeWc+zt3Ns0bRuXYKuCXGeSOfHNZenurIOpDm3tLmOLax7svb25DbSPS5Ocg+3tVHfo291qy6cs5IRbvBpAZ3lQExyq8TqvIIB3KM5zwDUl0X0s2la5rdizSiEWtsguY4Db5bdKzqrD6uW8jwGA9qOFNReupEK1eVRXXhf72uWnTuqrLU9YvNOi3CS2baJGwEmIA3hD77CQG+xOPvWxquvWmjFRcswLRSzDapPpjUM3+DVcj6N0++1rVLWWyMVnHFam3eEmMxuvdyUcYIIzyQff81k6msbjWZb0W8EjR2mm3UCswOZZpFACrnzgLyfuw/NUxhkkb8yqoNta3+/4LLNfbLNLiG3lugwBCRAbiD7+ogf5qP0zqlNU1SSxSwvImjQs8zqhiUg42llY+r8fitHTLuHqKwbfFqdtHZKqhl71s0voBOB6S2Dx+9aXQvTcDaDb3Z+djkee5mjiuppQMPJJgtGx91YEgjPP3qMYpO45k5Sjjs/tbyNhvibpQ1K6sViu5LqCVI+2sBXdu7YBy2AATIByR4PtW3edbW1no2maibK9lTUHCQwxxgyjKM4JG77Kff7VzCy6MvrTWJrltLkmM11u3tbrGH2XcSphlyVHbDewGMnnzU/1T03rGqaJpkMtpNe3llaNJOkc5C9ztskYTOFZgWyTxwv5xXQ6dJNJM4ocRxMoybjr008/wAF20zq621LQr3VTb3NrBaGUSJOoEn6f1HAJ+1Rdv8AFDTLm9htVtbwSSzLACVjIViwTnDnGCwB+1V/p+z+U6b1+1ghulkNrk27Wk4QFgdwCuxVnOT9P4zUPZ9Earpesm8SBHZLmN+NPTHolVc8EH3D8HwD7jBqqdO7v8i0q/EWhivU6JqvX+l6Pc6hBOZS9nCZWKocOwUsY1J4L4AOP/kKmdM1a01i3M1ncRzop2P23DbGwCVOCRkZFUG86cu9S6pvA8N9HAbuaWOddnaQ/LoEdRnJYMPfjIqy9C92Wx1C6lt5rX5q+llWO4QK+0YQEgffbms5xgo3W500qtWVRqS016diy0pSuc7xSlKAUr4eAaoPwy1jV2nvtM6iuL19ZhihndLoQdva5dcxmMDglG4bngferqGUXJdDGdVQnGDW9/Qv1Ko/xGuprOfS1gvJrR7ueODfHM6rEO4uXZVOCDnZk+7rzWtod7rN3d6/dtMUdoYMQLa7JI2KeQHkKggbvPB8/irqleOVzGXEKNTl292bOggg+KZrg2jahd2lppsYfUzARaS9gXYQMJNzsMmX32nnPnOce/Q+uYb2/t7V3zaWUV5bIibsvJI8yIrnBwAm7cBzlgpPAwbyo4ySbMafGcyDmo7F2pkVz7qe/wCoYdNsrW9t7XvNeBVmg7jrKFG5ZCiqSoBAYqTg7cZ5rW6X1O7n6zeRr2eW3vGMSsyYEvZDgj/wgeT7MPHk1XlPG9zV8UlNQt792OlZGcZ5pXKuqdWvb2+vNTSV4ZNMS7tYbaGC5DS+pCCZEIHPb/YZ/FdFi1Kzs7yz0lrnN7JA0kUTsWd0TaGbJ843L5OearKm4pF6deM5NbJe/wByRr5kH3rFd3MdnaTXErbYokZ3Y+wAyTXMejdY2a507bTwy20lnp72V0sy42TylHU58EN2Xx+4HniohByTfYmrXVKUYvr/AB/78jqeQKVyzrG4muW1q03/AK4vEV4ba6eFpIe0jcLkgk8LnAA5PGK9T6tez9OaA0Pcdrm4aV5pe9Mu5BxIv1FowfUNxXcVXwCa0VF2TuYvi0pNW2/NjqOc0yM4zzXOOjNSu7jqy4L3k8sN6XmQsuBIsSrGf/So4Y54Ye3mo/X9UvNR1C51RZngktTPYR20ENypcCfbuMiEDkID9ufxUcl3sPi44ZJe1/B1emRnGea5j8TLe6XV9KSBFeMoYlLwTSl37chG8qfUoCn05zk5PgVs9N3omvNUfUbiSIC3WLdCWUoFu7pVVSOQAFA/YU5XhyuT8V/cdO2x0UEHwRSuJdGXkCato5vrvUIoYbOUKQ0wy/eiwpw7Eg4OQVX8ird1dZXlzf6fGNKtI5NQuzA8/wA0xcqIZH49GFOIxzzj/NTKjjLG5SnxedPO3b6/Iv8Amlc76lFxpPTmm6etnc2b95LdZLbUJRFFEZVUl5QVbcVPHDYNedF6qvrW91M3VqI7m7BeIEuyxOtskio3BPK5J/IP3qOU2skzR8Uozwku3vY6NkUJAGTwK4vJq2oQ6bpshuZoRZF9QeAQuDGgRwWYmFiWJfeScDkgA4zVv64u7m40+z0MTGNb+0kaW7aCSVgUMXtGBgneecDx4qXRaaVyseLUoydtvv8AyXnIpmuaNPdXfSd0jSXknzOpLZNtZ98kJYKwUTMduQT7itfQLjVku9P1Ge6uhPeSWtud6RmN4cynZnHDAhicY4ZfOM05OjdyPi/EljudTyKZBHniuOTLqd5r0SpAClzqN3H85MjHciTOe1uEnKbVbjC/SP772vTzQ/DjT5YI2snu44QTYyvBBbRzyKCcFwGf1+588nAqeTqlfcquMupSx2V/eh1UEU4zj3rluhXCzaL1CI7maKPTrAxQ9q5d0UNGxzs7rrkbRjkEc/eqneahewrDc7L2MpJJM8Nirx7LfMQkMbBj6m2oACQBls4JFTGg5O1ys+OUIqWO/wBnbsd+JAr7XOuobm7vOqEEOmSXn+wZu3cAAR5aPKgbhnBILEHnCgHg1LfDU3Q0QrJCwsmxNbXMmFknVxuLFASFHPGD+MDHOTp2jlc6YV8qmFvmW4HPimR96qPQTah8gQYrYWPzl6S4djKT8xJjjGP81T7CPUtZ1AxyTXwt7i4iu5yqxEswuCiMo59K9uPO72Q8HNWVK7avsUlxNoxajq/f3Ov0qF6NvbjUumbC6upjPPKhZpCoUt6jjgADxipqsWsW0dcJKcVJdTy6CRSrAMpGCD7iqLY23RWiXGo2UFhBaC0nilnk7JKdxAHUhueU4/b+avbDKkAkEjyPauQavpq6fdaxDBeQ2k8VxIY4LpZVMyyW+3PcyQw3OW+k8rzzW1JXurnJxUnDGSin6nSNZu9JsNMn1W9Eb25jUlyu4uAcooHuSTwPuaxdPWulvDfX1pJJML9xJcC4mMhQ7QuwhiduPG32OareqXdnfaBoV6llcXPdk+Wi3NPEYwqSevaqlhnZj6eQR9q1ui9BiGkayY9NhbUo5DZRyzq53xlEZAe4qtsTcBg54TzzVsbRepTmuVRWSat9jPdjoi5+Q1Ce1SJLaM3Cwx2xKKuCu6RUBHHOM1YNV1jSb55bCdbmQ2dxE7iG3kIWRNkqDIGD5Q/4rk0XS7aJ072I0kuGfSMjdZvI+7cwxlMYPGctnz9hVu1jpa917Wdde2t4JFWaVczStEQ5tbXtsCqkkAh+PHNayhFP/LQ5IVqri/Aru11/0n9Z1/p3UdL/AKlfI9xbWUzoEkiYfqBN2NpwDx4J4ya89NQdOXmpyzabG63FtI57zZXc8uWYDJ54OfHgjFUrWtGOv9E31va24uA+oSLFayWrZkACIdoO3aQQ2M4GRzWboHTra06h0iSbSDaq1s5Wf5csvzbBAyB+cBVj4YnB3HByKYRUHZsKtOVaOUVZ21t78izzXnTOlQzyvFeOmnYill7M0gBi3ZJbBDH1tk55zzUtLdaF0xdaRbSyRw3HbFpbd2Qbkjx7ljnBKKM+52iuf69oVzNZdUyDTJ5Xe5uGSRbaNs/Yhi27+B+1WDruwub3XohHBdyQtDaq7QIpXAuQTuJ5GBz6earjFteL3oaKrUSbUFpa2nm/wiwp1TomuaLe3RuUls7YSPOmcsEjYgsVGSVOwkccj96hBr/SWrhtKMk00t/crktFKrvKNjK2/AxtzHggjbx4qMnthD/qa0jieeK10xLFibd4QwaSUhFwvqIjZBlcgn3FQejdN6jpXUAu2gkkH9RSUhnlK/X2WJ459Q35+zA+AamNOCvq/IrOvWbisU+/7dy+63J01by6rc36KptVD3W9tqzkR5CkEgSEKBwfuK3rLQ9A1aKO4t44LuFJnmVVk3xpIwG70glc8Dj2yfvVC1LSJjqOrs1vcSW97evamZ4bglI2JLBAHDEEjnaApwMEgCpgNdXXRkFkvdW8m1Bwm6Ob1xwzFju3NuAZI8YLDO4DxVXHRWZpGq3J5QXf6kn0tF01dXEE+mJJFdmKdF3bg21nBfJ8ZyoI5/apqLpHTIhEBAxESJGu6RjkKjIM5PJw7Ak+c81WejrMaXr25YexaTwCCKOG3kjRXx3ckMxxlWxnjlSDzV/rKo2paM6qEVKHiirryII9E6RJPbyzWxuWt4khiWeRnVQoIB2k4zgnnyayf6Wsxc386SXMcl6kccmydhtRCSFTn0D1N9OPNTNKzzl3N+VD/VENJ0jpTQ6dFHarbJp8gltvlyYzGQeRkex8Ee+Tmti80O2v9UsL+VpjNZFmhQSsI9zKVLFM4JwzAEj3qRpTJ9yeXDt7Wxo6lo1rq0lq91GZPlpRNGMkDcPBI9/vz7gVht+m7C1TUFjiYC/kaWc7zksVCnBzleAPFSlKi72uS4Rbu1qV256A0K6gaFrBFia3a22ISoCHz49z9/NSE3T9nc3TXEqO8jGI8ucL2ySuBnjknP3zzUlSpyk+pCpQW0UQf+jNIMAha17kOIQY3YlT2s7Mgn2z/gfavUfSGlxT6XKkBQ6aGFsiuQqZBGdvg8E4z4zU1SmUu5HKh/qjQg0S0tzEUQ5ijaNMnO0Mcsf3J8mvP9Bs/wClWmnbG+VtTCYl3HI7TKyZPvyoqRpUXfcthHsRJ6YsJF1RZUkmTUhtuFkkYgrjG0c8DGeB9zWpc9BaHcrEhsUjjjQxokXoABKknjySVHNWGlTnJdSrpU3vFEbf6Ba6jdpcytOsqxmIGGZ4/SSCRlSD5A/isFt0nY2dqltA95FCgVVVL2YbQowAPVwMe1TNKZPa5PLg3e2pC2XSOn6eYjAbtFjkMqob2YpuJJJKlsHJJJz5zXiLorSLaG6jgtRB81GYpXiYq7DJbyOc5YnNTtKZy7kcqmv0o1tN0+DSdPtrK1Tt21vGsUaZzhVGByfNbNKVXc0SSVkK+YpShIxTFKUApSlAKAYpSgGKUpQCvtKUB8pSlAK+0pQClKUApSlAKUpQClKUApSlAKUpQClKUApSlAKUpQClKUB//9k=;" vertex="1" parent="1">
          <mxGeometry x="414" y="60" width="283" height="120" as="geometry" />
        </mxCell>
        <mxCell id="fFnb8WoUcJC8kmY_FyQT-3" value="epoll&lt;br&gt;CFS&lt;br&gt;内存管理&lt;br&gt;sk_buff&lt;br&gt;nginx --&amp;gt; slab" style="text;html=1;align=left;verticalAlign=top;resizable=0;points=[];autosize=1;" vertex="1" parent="1">
          <mxGeometry x="110" y="220" width="90" height="80" as="geometry" />
        </mxCell>
        <mxCell id="fFnb8WoUcJC8kmY_FyQT-4" value="vruntime 是key，每次找出一批最小的去执行" style="text;html=1;align=center;verticalAlign=middle;resizable=0;points=[];autosize=1;" vertex="1" parent="1">
          <mxGeometry x="270" y="220" width="250" height="20" as="geometry" />
        </mxCell>
        <mxCell id="fFnb8WoUcJC8kmY_FyQT-5" value="epoll 是文件系统的一部分&amp;nbsp; &amp;nbsp;--&amp;gt;&amp;nbsp; tcp_fd&amp;nbsp; udp_fd&amp;nbsp; time_fd&amp;nbsp; file_fd" style="text;html=1;align=left;verticalAlign=middle;resizable=0;points=[];autosize=1;" vertex="1" parent="1">
          <mxGeometry x="90" y="320" width="340" height="20" as="geometry" />
        </mxCell>
        <mxCell id="fFnb8WoUcJC8kmY_FyQT-6" value="&lt;br&gt;tcp 为例&lt;br&gt;&lt;br&gt;1. 三次握手完成，listenfd --&amp;gt; accept&lt;br&gt;2. recv_buffer里面有数据&amp;nbsp; &amp;nbsp; &amp;nbsp; &amp;nbsp;recv&lt;br&gt;3. send_buffer 有空余的空间 send&lt;br&gt;4. 协议栈收到fin的时候&amp;nbsp; &amp;nbsp; &amp;nbsp; &amp;nbsp; &amp;nbsp; close" style="text;html=1;align=left;verticalAlign=middle;resizable=0;points=[];autosize=1;" vertex="1" parent="1">
          <mxGeometry x="260" y="370" width="210" height="100" as="geometry" />
        </mxCell>
        <mxCell id="fFnb8WoUcJC8kmY_FyQT-7" value="1. epoll的数据结构如何组织&lt;br&gt;2. 如何通知到epoll模块&lt;br&gt;3. ET/LT是怎么实现的" style="text;html=1;align=left;verticalAlign=top;resizable=0;points=[];autosize=1;" vertex="1" parent="1">
          <mxGeometry x="75" y="370" width="160" height="50" as="geometry" />
        </mxCell>
        <mxCell id="fFnb8WoUcJC8kmY_FyQT-8" value="具体实现原理&lt;br&gt;&lt;br&gt;LT水平触发&lt;br&gt;ET边沿触发&lt;br&gt;&lt;br&gt;描述的是 recvbuffer&amp;nbsp; sendbuffer&lt;br&gt;&amp;nbsp; &amp;nbsp; &amp;nbsp; &amp;nbsp;&lt;br&gt;&amp;nbsp; &amp;nbsp; &amp;nbsp; &amp;nbsp;buffer在一个大的循环里面，只有复制一次recvbuffer就会触发一次&lt;br&gt;&lt;br&gt;&lt;br&gt;&lt;br&gt;&lt;br&gt;技术是通过很多次思考慢慢积累起来的" style="text;html=1;align=left;verticalAlign=top;resizable=0;points=[];autosize=1;" vertex="1" parent="1">
          <mxGeometry x="70" y="490" width="390" height="190" as="geometry" />
        </mxCell>
        <mxCell id="fFnb8WoUcJC8kmY_FyQT-9" value="&lt;div&gt;&lt;span&gt;epoll_event {&lt;/span&gt;&lt;/div&gt;&amp;nbsp; &amp;nbsp; &amp;nbsp; &amp;nbsp; &amp;nbsp; rb_node -&amp;gt; epoll_item&lt;br&gt;}" style="text;html=1;align=left;verticalAlign=middle;resizable=0;points=[];autosize=1;" vertex="1" parent="1">
          <mxGeometry x="510" y="360" width="170" height="50" as="geometry" />
        </mxCell>
        <mxCell id="fFnb8WoUcJC8kmY_FyQT-10" value="" style="shape=image;verticalLabelPosition=bottom;labelBackgroundColor=#ffffff;verticalAlign=top;aspect=fixed;imageAspect=0;image=data:image/png,iVBORw0KGgoAAAANSUhEUgAABsIAAAMGCAMAAAB/G2F/AAADAFBMVEX///8AAAD4IwD+/v339/eDgoIGBQV7e3uHh4cLCwt/f3/w8PD7/Pzr6+v5+fnf3t7h4eHpIgHk5OT19PTb29t4eHjzIwCKiorX19eNjY3ExMSXl5dpaWnU1NR1dXWamprPz8/y8vLMzMzwIgCjo6PJycmfn5/BwcGmpqavr69SUlKSkpK1tbWdnZ2ysrKsrKy4uLhycnJYV1fu7e3p6Oi+vr7tIgGpqam7u7vm5ublIQDXHwJtbW3hIAEsLCwyMjIfHx+hFAL/+fgaGhoRERFmZmbEGwLR0dH+8/LRHgJhYWFNTU1FRUUWFhVJSUmTEgKPj4+vFwLLHAKVlZTGxsapFgJbW1tBQUG3GAIjIyNwb2+9GgH+7O6LEQP+8OheXl71JACaEwKDDwL94dsnJyfdIAJ6DgP/9Oz/9ff8zc4+Pj42Njb8xMX+5uD//vhkY2M7OztpDAP/+PD7srL+5+nb2dj+6uX+4OT929T8vLz92tz6nJj//fP8zMZxDgP4MR//+f76jov7r6r5f3z81c76oZ9eCQL5eXT5a2Y4ODj3OSv8xb36p6X4KxH4WlT909b7u7TYJRL5cm5SCQP4SUD6l4/tKRL6hIP4QTbjJg1tHBbu4eD4Yl7/7vTNJxelj4zhOS7Dr63TNi3aTkfiKhmTGxL6kpTf0c74U0roMyJFCAReFw/q2dZ5GhTtzcvIuLZwOzhyLCbYLiD28O6dhILz6efaQTrXycbMRD69IBL5jYLaa2fsr6qhHxPSwb6ymJZ+ZGHiwb93RkLrn5y6p6SGGhXpRDtgIh/do6HJaWbHnJnEMCqZdXC5cnClaWjXXFZ3VlOwoJ7nWVLuvr3qT0hlMSyvIxvpd3PmZF6iW1iSKSKNambjtLPnk4/aeHSZTUvXkZDGjouaOzXghoKsUU82CASEWVaCLy64YF25gX+9SUSETkvWs7HPp6dnTEmkLinthX+RfHpZPjuIcnDrbWjLf32KPzzIVlGpQj21NS9LHhizjIuRXluoe3pSLiokBAJlQxYLAAFBvElEQVR42uzXy0oCUQAA0DtMpKM3HUzpYdfaVAg9cCzaVRDhqjYtgtbu6zf66wJxpTs3I5zzFycAAAAAAAAAAAAAAAAAAAAAAAAAAAAAAAAAAAAAAAAAAAAAAAAAAAAAAAAAAAAAAACbymPMAwBsldi+6x6ms1nqd8vedD8GANgGnfL86rrZGn1NBo1W8+P2ctYOAFB/eXlzdPJbZAvFvGpcpAAAdde7Px1VP/MiW9p9efx8PRinTgCA+op748l/wFa8VcO0EwCgrqbHw++nIlvj+X3w0BcxgD/27mUnkSAK4/g5Adpp5RbQiAg6bQSBAa8YIDHQCRgToMkkGIxu3LhyFrqZh/CtpxrEMZmbs+pe/H+b7i/nAb5UUUUjpBL5T+NbS3/L7j5VcgIAQBidHaze6B9Z3fv9DhfFAAAhFM1/uhnon1nuZSslAACETmfrxtK/6s/aLMMAAKGT2x15+g/uxjnnEgEAYVOeDPSfeivrAgBAmDjXBU//zb7ZTwsAACHyefObfsSgcMhWIgAgRJzK2NYP6a7k+ON6AEBoZEs7nn6MNamwlQgACI3UdKwf5RXOBQCAkDgYefph3akAABAO0bKl/6HAFzABAOEQ+byi/2PUTggAACHgVGq6ZNm2tXy1bEPfswzVboyvOAMAQqG5c6uv3MnscvaivofRsHBRGD56+sadPV2e9tR+PBYAAEIgV3tbeE2+tuqtEz/aw+3D9nm7ujqxdWlSOaw3Li21ywIAQPCS5z19ZZ98d2StNVDVbjkT8YcHsZ4u3SWSkdSup7rJgQ4AQAhkyre6YI/2kyLJ6kC1t7Inc2fnd93X6bhicrPsqt5dJQUAgKDtrQ504WGraHK2ZfJT3pGF6NFM57rb35cVVjs6EwAAgtYu2LrwcpRZVthGWiRyNS2ZXNpRn1VrJ0zqNPqqkwbH6gEAwauMLF2olaLLCltJr63lvjx8WRNJfVLfw8Z63K+wXTN92cwIAABB+9LThW6sI8sKm3xpbK9OdKUpkoupYZ1WsrKsMPcyJwAABO2Tq3P2sJp8qzB3Mpp8c61YQuL5OzX6qyXxNRtmao/2BACAoMU8nes2UhI5W1TYwqDXyEqiPFLjpdUUiYqJfZOeSwIAQNB2LPW5w7wTSVxFf1aYe98oSrx44fr9drLnRM/SEWk2PD/mBQCAgEUudW4y7YhTrCfeKsw+rZpx9rinxn21GU1f5R3JbNsmugcCAEDA4q8VdnIdze61D39WmHd3LsZ8FeZuFqOJer3kSGe+CutTYQCAwMWf1DfYTUTS5Ua1KU7LU19/5zhr5olyTb3JoRMprm6Xsot7YepRYQCAwMWHavRrB/FE/fTkqCNrLVd91uPF9rUj8dKqN45dJTuV5xMTM7ueX3jnAgBAwJL3atx8TUln/7FwnJC16ottGbbbu9n6HJVE5fGu3pT1afdiL2tS16+wtgAAEKhlhV2WTDsd3m+aykoezHoPL+Pxs2trrdIUyT/tpuKyvn+6ZR7Z9sylwgAAYbD4LWwnY97Wq6U1EelUNwtbrdZ0+KDPmymRYqzuiDjFo5J5SPqo0Lf6bCQCAAIXv1BjJSvvdKoZEefwXnsbRZFU4zou77Qn7i33wgAAgYts2L9UWOYoJRIvneh4mhbJfc3Le+1at3ctAAAELPKDvXtpURuKowB+LyYmGk1EIzG+lfh+R0UF0YANwmhEUBTduHHlLOymH8Jv3eu0U7poOzOl1CzOD5WYxGwP52+44Wcvg8SIh7zisplsgBBVd+y6xKJMqORkdvT7CVJrNb1gjUQAAHi89YRSetHWm00i0++xHUoxbZZHhHAFrR4mZFReXLV1jenn2FE1c7LO1SwBAAB4tMaeUuq7MZ/3fCFC5JI5caJxiZBILEiIvPVb1nT6zIghD8m1qxad2CkCAADwaBXTSyllb/axqwcJ15xSuteyMnmhbBb0Ozsmk6BxpvTGKwQAAODR4tEZfbUqK6RnsO/Oohi7Z1hAae0s+l01HvSoG4fSRbFHAAAAHk1tTOmrZSMfTNU+sS2fPVC7UjdcGf8UcJVYb8uzo3YpRwAAAB5Nqk/pK2eVFJJ7eneujqOC0KlO6A9ONRm1L2xDCHkIAADAwxWm9INqBAAAwAXUq0M/wjtpEQAAABforff0Iw421uYAAABX4IZJ+hH7DG6pBwAAd1B0H/2AU0EiAAAArlA50/fzRpFgAADgFvnk+f0JtjIIAACAS4xaJn2vg4YlfgEAwDU8Yf3gpe/yadfvEgAAANcYniz6Ht5lLUwAAADcIzRY0Pc481uOAAAAuEdA8Z+99E3Wro0xIgAAuEw9eaBvqmZGBAAAwF1GzetbGea7bGIEAADAbeRylf7ZM48EAwAAN1IM0/pTB1tqBTzpEgAAXElpnBwv/TWv76IVCAAAgCvJsUHn4vt1BZuaejxIAAAA3CkQ6vNLy/urCjY28ljdFwAA3CyfGS/Pn7z0Jz7rsym2ewQAAMDNpFRdvy4nzk8Bdqv6B/EQAQAAcDkuVYyat5mPvvg0WdpiiQsQAAAAdwlwUjCszvPbfr05KCZqusYfzdXleTqdPj/fX9PP+5XN87y2aZQrzWE8n1VHvW5E9hAAAIDH8HhYfIWVWD4+rDQ2ujC2d6v97TybWYfpZWU+jdPRdOd4qi5vZ2vmzM7PS9Mep3l9U273t3NVCSLEAADgv3lpXLH5tt9uDsrFmq7rmqaJ3/Df+HlR0xPGoFIf9kv9/rDZKjdqGtvP8N+xszVGr20yRaPVHpYK2ZQ6kmQCAADwT3kCAY6LdEdhJZXfskwyErooHJNP1dWiunu6Jo9pv7ZmaVSutIf9OIujmBoeBbuSlJMkKdgLh9RUNl+Il4b33EusNZ61s+TTyVywn1+THb+oZ4xBs5+PKWE2YeTkQMCDggYAAH/NI3P3+FFjqWxhW2rXWZsyio0MSyCRF6Lpsf102pkn+5gWxPWm2Gq2t3NWpHIRLuD5XRDKQTWWjQ/rrWKmJgrRpGnuTk82S8CoX2SVLNEwyoNWpd4ubbf5eSqmsBzEX2YAAPAhck7qKbF5oc96k9Goscw6jsfHTictvAwDxVoikchk7olTqd/HgPm5qoSCkcDbF+ZywdFLKYuza5fLhlEsNja12lrXRb8gCNFoJzk+RnlRTzTuE8Z4lhW6bo5DjgEAwJ+wmiRzHJfr9tRsoVRvGRvRnx5fd6vb9OA41uSyrF6PaZ51rmEhq4aDuX9yP2MknN2W6gNjI3TGp+rqs+U4h8ltyUaMHV6rFe8DxvmX0IjlWCQiB5BlX9k7l93EsSAMj4Q9dmwuljECczMgc/UVbMsgIYiUoEiQRkigoGbDJqtkkWzyEHnrqTqQjGakGc2lJ0NCfVJ3q3c07ZzjOuervwiCIIhfSdZDJVNpFiO7GzvrlSgckHhGHsFTPsOMPTcqbhpwwhfK2R+oXmTlYKRkCnhZhh+htLZW75oILyFQnUmibhmmB1J+80ZTQpkKM4IgiDMnwaXUTC2yPUPnc+Onwe3j5Orni+vv0+fl3Wws6Var67cbmhL89JFwKaXSjPzYWIvV8r63fby/vri++j7d9uZlkPKNGD5TQUlxPxEEQRDnA4c3UXDJNfRdD+TAY63D/xYxbxmO6dl+sXGDkmD945M13vul0d4H+eM3n1IE8sBRAXGHbSwN1YAKM4IgiK8HSPFpLgsihVoptv1ujJdcufEM6pvbZW9w94RWIR7TxVByFWE3KICcoYYp+f++e8IPLcOmm9FeCoUb7KDumHjUKYH08XTXu93eopVf5fOWY8b+pqIpo1Sd49JpkvIJgiA+N1ydXTHdgJqBRZfXQSXeWul4wQRWfH9cnj2VxzmJ12EDcP0ItgBV5rjTtdjTdYVtZDary3ihvJ8/zcrlfk6QeBEb05wWWvmo5UebRo3taHKW+qUJgiA+Fel6kMpUahswNDqOseKF3G5WBsZ9QWLLfQmXe9aF5UftzbEHq376qz0HVZmagY0M7BPf63Q6sdlySiCA6Pr7xlweY1G5BvfDxkBGuDQj94MgCOKkgcBCdOLrbI2vbNh5YQlKFYjBGNw+PE4u76fbZW8GZl+pFfvNWkH99Em7CSSbytw021CYrcBHmQ+Wr5MJKPmL3mBfhn+rhd1lbXAYYYsejcJArp9wlUkQBHF+pLOholUah13LsEAtZAjSIYtQ11eWtS6VnFaMOfFMih99pfO1ZBZ3be0GCzPXMx3DQC2fiSo8ILGWaXbWuDY7UHUWa5oykmn6C0EQxP9OHWqutu21rLw0BsNheg9j/3++vp++9p7Ggl5quXDHpQbn5Z+nA5Dy237HWPEg5S+fp5cXP6OV/7oYzPtQhsbusFnRQjpeJAiC+EgSoBW+X3KV3lxzEf9Ejn/T186x3qi8oKR3fgXHQcqvgMkS2Z7ZQosFizKG+Gbmwy+08uOu3YaD1Uwqe37fE0EQxH8Ou+ZiUfFaoz3smlBd5HaQE799nL5uQYsfCyy7IkYTD6OfjjHx2bM/LEtgM4EcpMJwhBtaG5vhjLWY60Ns1mDx8Pz6sF0OZv2cuHY6bhua4JQwC05mknKsCIIg/hUJWHxHGa0C8t3Q9WIWiGu8lROSgPZdfwfBu+AXtkAshPbeFzWUufS5b1t/VsKqmZcafJ2HO0ORfYX9ak7AizK08jG82HGcjudCBcsckDD4BJomQRDE6YClgxyqGTgGi3Be5FrnsZUXWqDGY+yBEllioYORha7ts9RCXGxT8nldeP0jktBugO5HoYZa/tB3ux7T8i0dh3LmQMl/mu9htLSUt0oo5eMJI74Y0AQzgiCIPyHJ1WU5CHF5xVEkQ79rOiWdF3Aw12C5fX58fViiKM7nSx3PhlsuJVUnP/xfvy1wIOUXam3f7ZR0MQeZH/BVP2+XOIqzKvGwkTkd146aNWide9EUrMo4jqPCjCAI4kCaOeGFRjGy4aYGUyeq1So48QJ2IR+leDadq9XxQDzY4GwuGqH1Y09sU6oCgYwgMdpdKMoM7JV+F0AkIQfgVE7wO2MXCzOMMSH3gyAIIi2DZ1AEa87ihfFgsZ1cXoMUf3E1md6CZyAaZjdq3qhZ2q8+FA6yTRpMys+NBxCUf/w/eVgMoAzWDZxhhhNnkkk6uyUI4nxIpOWR8oITi0GKx/x1iYGO9xGczQVeQeugFNQKOBqLNrCPJ50NVIj0f2sYxxFmvw31lw7oUBx3Mf8D26XpYJcgiC9JgjkaI0Vr+G5srETIfdovtq+T7xOMfdrvqpIOty42DNp/yYxQh6ew9VOBifn1egD9eEWfvXhImGS1uH2YTu4nz4sBtJCLlhPbUeNFUQPKyScI4kvA1X/7Is+A4COR56X3OxYBlQGQ4m3IVi+oKZlMgdMlGaigfjTfgrxEXsihkX9I8srjlSWwLhmshIaEYegrD6iEJgjiU5F4l+Ibm8iNTZTiQSvcDwb7GYaog+eGs7lgmbP9YdSGLHVoqUXXjaT40ydxkG80GGHT2BTb0dDGbmkm5Yvg4WDL9B3IjH2BF1dOx/NRvjmWZuTlEwRxqrB+o9FIxZHIrOXIxsDZkiXyUnWH4xkXy+ViAGubtIKay8aIPpVGgHx6QMqXR9B9HvmY96VLVTxhXMIczvlhElt+XcL+PTsCkRS8fC2jhCkKyycI4oRIZuuBArP8I5+VXCIvCDng/YBpZa1RiXdgLevafhtGMWbUUfCFkuLPnSSruV8wkHFoexii4jiGxfyPY4wKghlg2GQ2jKAyK6iU+kEQxP8PJ6dw+/Jj0wL/et+7fby8vri4uL6cPt/elau85XSGtYJyhkG750wiG2o3G98zV7ndDKa1Ta4gKf/b9+kWpHyBx/ay4aamBVSFEwTxoSTS9VBhl1x2N26VVnn+YMTzyDExns1EbsUeNMFuIP9cSVEX7PmBd2ZqRqtt2vCkeB0HJ5hhWYa8d1JIEj4rZgxSPrgfmhqcfSwzQRD/FbgqhZhFZHdxNtfu6W4BVvXl98krpBHB/b0IigZohTVNCbNJWoqI3yk+2UAtNHHMgLMSqlCvLx8ml9+uWGU230mi1fL8ZiGjyhyl5BME8QNIcHJqlGGXXHYMasbxNVpk8JJw7EnOW9jcyi65CipF7RJ/TBIfKAxvxiszZw0lPAsRQ45JYiudxYkZLbDyMcgqo4bUL00QxN97YQYpvo6z/EEsdOOOkeeFHUTt9nqDu/kMrXhxtYben9gFI77ZqKFnpo7CoE7pr8RfqOU5cFfDY1g+0/K7nmmwM+ncuAyP2aIH3RdVgdfhGYPD6EZBU1LY6k5DzAiC+CO4rIzrSqFyc1hX/G7caRms3UeCCRyz+f4ONjDwpEWLSfHFSgYWFnpBJv4V+LKUUjM30C4NddmKl6rYP8gaCPvMYcSKzDyEjW2gKoPtDGzWOj14BEG8kawHYeZoRDvGGmquHM5BzDEpHjMXLFxHWiauJMOo2Kxhs2qKbt6JHwXck4Wqho9ghK9Opmmy4aa6zoJcctX+brfr56D4Lzlm1/WLcGQNTyAdWRPEWZNgw/zlUIF3YDs2DZ0XypB89zj5fvXt8v552ZvvBLEEGa6b2ktI6wXxcSSyo+P4AvZMbqeX3w7mR28/rkorx/T89qaihDLHZdN0vkgQ50M6m8JZ/hvYtDqt9QpKLiZl4G8iuhp5nXUiO63YtaHiQil+JGdpAyM+GBYKnakcZpixCCvUiVhdxsMvQTj0zudXBkr5EUj5mZBGoBLEl4bD2VxtN27BaeEYCq7p/eW36yssuO5mOwEy7dyoWVFJKiROkKQ80m6awxhMRrgx690+w2Q5bKFHKX+ck1atbnSjKQHVZATxRUhywUjRatiGDLuWsdbziC4e4I9juvK6hXZhd8hmc5EUT5wuXJDC0QdwZWZ7sVliJdn7BDMcNafndajVrLWBV2bsDEFNUWlGEJ8J5sSj5wVS/AYEjVbJEoVqeQ9F1/a2hyHi7F6cBRZGRbjm0sCJV1T4UacgceL0gee7HoCVH45Qn63hQaPr4QsaOvkzdPIXYOXP+occK5tJ+Wogg5VPUj5BnCwJDrRCJfOCSvzQt7te/D4BQxLA6CrPnuZzzIkXdcOM3WHxMGW3HrwVXfTTTXwqEhAWk+WSSRwDDgeMRd+D83FdFKADpFwe76rVnCDxIuuTdvCUwbX9CLoYKxoUZjJFDBO/sHevL02FcRzAD5NKWLcpDrtZy+5QEqu5zlp1Ik4titOWowPrRGe4FUTUCYqIGL0a9DL2rgjZCxE280JG+CJnkhhiYkTBNLAEW2IaGvTCtPV7LKHyMsV1ob6f/+HLc57n/C7wt8igEG/LGhtbuPnokUyqiV/O+mq25rHRB/S6wlJMzTWFtFfSSsPocmkv8gIzWmvgX7HQpGcvjJSBpbS/bOPGgoINo1X5tJWTreXM2bpz53JWlc+WqxZuZC+MFxfvwJBhgD9mPtsErydmei/MXb3eumXNSvrLPW8rPaQcOk+TC/cUs4XwOXTnotlPRTRBFd+d8P/I0H99Rt+w7EhmzvJzm87vLi7edYYKP6hsKW/O0c1sfhW9MNKvX8Zkys7GCjOA38OUlbuqiHab0FfmUXooZB+ZrC6eFRhnsj/ao+u56NpFRxf1gH4tikcbMvxv5o9O+KRhM0u3W7fQpYzSMrrCbKyWaR75Nv6DWWOlqnx0PwL8YgeuPHwXK6mp7x/8PEQtyMl9bA/TrmN049qZk0nDUa1r9y9CUSHAeNk0g2attWDNMhqZdnDToevFh+fOnZvsHho12FESC1eWH+cA4BfZW17X3NPaGu/s/FgdDUW6u5PJ5K5NeUvYZncq0ChaTRPkdpixXBJgYmwWTdbiXGrspzlWhRuWDbR9phhFIqFQKJj42Ds83DISC5fd5QAg/U6VPWqpuhPwN5Y2Nvq1YChCR1j3YF7h6qwFZr2JDfK+hqphgJSo6SRbbzabL1aONETZARbUNM3feOdmNNpU9aakDnUeAGl3t6xvZDgR8Hsl1e0WVMnrD2jBYPB5W2bBKjMHADNzobyyJ54IaJQpRZIkQVAVypRW3dvytGgHBwBplHHi4et4eykFzSl7XC5R9MhOdpBJjYneD7H7qDYEmJmrl/uedL1/oKqCkzLl8bBMuQVJ8VKkasI4wwDS6dKzni6vV5BFh8/OGxje7rPZXB63okUbSnAPA5iRqxXN8VKv6hRdNooUPxYpSpTkD1Z3VG7jACBd7oVbuyRBtvH5uh8YLQ6nEoj252zJ4gBguvT3RzpLVbfoMxh138u3O2TVf7Oqfl0unjYA0uTEy3jQL7h4o24cw41aVYsk6ytNHABMT0bZpzuaItsMP0fKaLE7RKcSjAzGyjkASIezj+PtitNlt+jGy+dttao/+LwjjHsYwPScquhJKKqHTrCJEuVzOKXAzYbYLRQmAqTB7ZdvvapsyzfqJmK0+ES3V2v6YN3LAcA0VLzu8gui4aRukkjZPFIg1PvoFgcAs3W64sl7QXZYdJOhM8zp1QYHyk5zAJBKxtnmzlJBtOsmZbDJktbUFkaTM8CslTd3CR4Hr5uUkbe5BH+0/+lFDgBSufTureIWbZapIuWQlcBQS102BwCzcrsvrrgpblMwWnjxgdZUH0YNFUAqe5+1tksePn/KSNE9zBuqqsFXIcDs3K5oTaiiLhVfrRJtGliB+b4AKVx51a7KPl0KFpcQiDaE9RwAzCpviYDM61LhHS+8kap1izgA+MLencQ0EYVxAH+ZRm8e5tJ40HioiRdvJj206cE5kGk8NDQ2kjgQkNS2pm1iZ9JhimAXYJoilCl0U4pIa7XuVq1YxTUqLrhUFFyD4h73DfCgTtGoiSBYr98vadrJ6/Xln7zv+978DXnn6crFehk2hXK9eLLRun82dCUC8D96RzWL1TJsKnKVVrd6+6vdCADwN1V9PboihRSbCq5cXrr65Dzo6ADgPxAfV+i0ODalcrEcpmn4uhE2HAB/Q157XaH+NWL51y6p4pWtV2DAGYDClZ14WFqEY9Mh1RevfHT7KIkAAJOqu1+hw7FpkRVVtL6D4TAAClf37LVGK8Omo1xVVNp6ciNsOAAmZ3xxs6JEik1LuVq3+uzFowgAUKA7nzQ6ZTk2pfxfcHE4bP3jLQgAMBm27/TionJsesTG+vV7jiEAQGGI3lpxgAWbmjT/UZZU1F7fBH31AEzGaLpZq1Nj04Rre3Y2XKQQAKAg9o8NFQIulctDeU2/DzPj0p+/ZaFEOpEIJYRDN2pbN0JfPQCTobgHtSV6mUyOh0KJRFRe/mOQORoNjZNiIplcoQiJ5ELH2OZtJ3dAfRmAghDXRlYUC9FQaqsnGwwGw17fjxSTqrbyHr7Zh4nk0TNeTzKZdPG5zKEVDe8XwCALAJPwD73WLFcqUv18sLo66Aq3RzApJovmsq6gSNxEzU2YXKXc6gmKq65A7kJPw55NUF8GoCDM0JiuSIim+l11FoPNUEl7fVIsD+/I1lWaqtvH0yw96PbHYjHK7MqlNQ1X5sO1bgBM4tpDXbFWEPqzZpttDWGwrPP65FJFl6uyzGYwGEnKVO3DVB0XglUGgqQoLhy/sfLJW6gvA1AQx9PiIrVeyHg4m0R8JMXQaho/RUxdpg0Gh9srPuHpwXqHEYkYjvfdqH03YxECAEyo91ZxkTadGWix/CiN1YtHG6nuI2skaBzrjkiV8WGzDeU56ECmdD1cGABAYXaN6tRKIR2v91uRREIYWXM4IoaWSuhP+hFRSQdCMmk0njTFnE6nBBn9ybaxnZ/nwKsvAZiY5P6KErW263K1g0TihiIIxpRsXpu63GKVSGxldoYx1ftk6QGOEVcJCSL9weae7Z+vIgBAAXbdWqxQCV2DHGMlGYeDoizr2tdiKiGeraGQhKUDUVzeedgcc8ZYlkGIor3dO78umYsAABPZ17e6RKXuHuZIgqg0mR2E0U7zazs/cFZrWV2L2+1OBprwTDXpdDKsg0GEheZfi3feQHkZgELcKdVJcSEzYGYMDjPNsTZbS8BXrsy84ShxVYywRDQav8sip5+mOcbItPDxvV+XLYW2egAmtOHS6uXyjpEhk0TcLaeGaYogaly+MwON1jWV7qzX622OYKEcjVDMRB+pIYiyxuzo9plvoSURgALEXpbqMJnqDM/5q1qGhnodNlujJyIXBhvt6HuEpQRh0B1DMc5zb9jsqHLzuVuPVi2chQAAfyK23KzVYkL8lImg/Hefjg6zpM2UjPRnayTWyuBgd1dnQoH7eA452XWec72krawm+Hz917cHEADgn7HnNcUYJl/b5uU9H0b6xAgztPCRaC5YZUNo/CAxoRQCnNHJ1l8eGbnn8bS3dd7a9uUqTIYBMBHq6MMVakwfv2smKcepvqd3WdJgDnfm6qsQMtTQ1S7+jF7hC5tRzO9qfz5kN5Q15iPs/Q44SQTg3+24rynJXx4lwxX6jrFzvQ6D3e3tTGVrDGusCFktdEBQqz1mgvC7Ml0XLnREZZjQ0/BlI/QAAzAR5uVoqRJTZAZoimKP3P8ofllovjNHW1AewXLetCLiMpOsOdA29rHSbm/MPq99dPugEQEA/tWuZxXLse9kqcFTJsZeF4yn08E6g+XEAeuafIRptWKEGf3ucNjDt0eaMP2NhusQYQBMcq4xqlFieDoerGNIv5kzkZaacLxjkLOjcUa2vj2VauaD2UCbr3uIEQPO073z0fHd8A4jAP4nwmTf2LuT0CWiOA7gwxid6iDUXIOEOgQRHeageMhDTIeKgijIBmswG5gRciYbt2wmTVGb1Kbs3zKVldlK+77SRlnYnq3QSvtqVATRe9oC9S/I8+9z0j9ef3z/773f+z27ocYYl5idUy6s359VsvfWRaOchiLMnIMOncO8EBOyyfRi0nFt+tWdewgAwJ+4s58mowgr1O5mgwQjy24XF2rUzKbA4jUYaqN3CWrGun7lqVPr16+sH2fcXDJdO7nh8SqIMAD+2+xj5ycPJzHK7l2WFwmLLJTKBeuy/RH1/LFAoB1hJd5CyEEWSeTS8e3XZl2F1yEA6Fb43uvJXtI6Yt8BFGH4qqWLyzdqtSbvI/xBgZddxEytOs9qpbsKhd1vBAszv2TU1i54fhH6OQD4b7NvPxnWjjDaazYF0WJxz69cWWTLVPXGk9s4wtKFsdtLfOv/x6jf4uMr1ZXXNl+9BcMEAOjO/Kevh6EIc9Sux1gcYX60CivurqHiCnCCGkFJ5hbSccqDfmLWtXDrm4ki7AhMSQTgv81+8T3CbHbH2IbGB5nlspTOeCi6q/zxZ4Sp8/HoKVEMRv1saM6VQ5u33VpFAAD+lGhFmN3cqyo+f4ANBhmRr1yqXZJiSl5d3dA4woXWXajk0PXn6/MZIpwzKHPt3OdfIMIA6CDCbrQijHY6HSN2N98kefdyQTVIm9W5/ePB9kai2YowF5/L5bmALxa5dGjJNliFAdCtxPnXw5yks3xAC7LBmHY8L8uilCrvLpbQUPrtq+8kLNFwpeqxUY7yXUle7pZSGRRhGyHCAOgswvBZmM1ZKBQcI4bv26vNnD1TqpIUbW9F2EzpR4S5c3r9TJb1KVLzJkQYAP+MsEIdXW0O8gvrn9+EGRdf2W2atZo5wrG7NaQjotusdOFj3jdN5lVjHmUe2ngBNhIB6GgjEUWYx2qkU6lidU2hXOFnyyEdT6pfgyIsOlNKbTfNEu5IVDMrPx4UWSXffL1k2zmIMAD+fhZWqN8O/zgEky1KTtfnlOboGfvK69loQInoVqf90kIu6hYqepyk0FkYRBgAHZh9+Dxqqrd1pZOhbH7/lXK5JMx2C8vw4RiOMBeOMEchFfKhvqm4+ewFhyKs+HoJdCQC0D3lXjvCLs90cdIl1IoYEi1ivrg/xguVZV0r32QtAUXVuwplND4gEE4uy1A4wjZcgI5EADpwDEeYtVDUEhynNXfvjcxHEabjJvs19VaEFQuOrqbE+pRSvPbwhehTtOJruBcGwD/uhbUiTGx30+PGxGC+qXJuOVRaeUpNEIFEyTD3HsgHo6KUyszztCLs6AmIMAD+37qnaMCU3WxqXCCQ3V+vSzMt7QjztCNMSxe8XY0cG+Aqxuozx9hAItd8DdM5APgL8SWazoEjjMNjAj7ufTOfQRFW3y+6CC535VIyTPhixcXmmYNKNKqg92XxA7PmSZjOAUBHNn3BETa2HuECfiX35o2w3ILaOX5FmFTsslsvLRQDrJR6c5yLBmKRxs0F747MIAAAf5JfPJyEI+xgYhqr5B4ciIiMX0nuvZ5gCEZo4qecxbye2fuA8/n9XK5oLF4cj+/b/Oj9HhcBAPhfu85OGkNaHbtTAkv4lGyIWz6NryzGG4nr6wd9074/eYk2Q3xKSEgwFiZUunRzw7sTcPYMQHeYY61J9fjBPYZVsnnex7gFtdyQOMISzOcVNsBHjFMNLeBHv03kk5FKSv+MJtUvhUn1APw/y4spw2y003tFm0kg+GV0KR3Ho+vRKoxlcITRlGO1xkXbFSZL6dU3H40fCLseAHTHtenG9OGks9xIyq52iTHhXHHl6gpvwV/8gaCUQkdisZ+/l/nIxyU93/oIAMD/O3ZymJ2m6fVNaRqBRLn8nNYijF5T13wMJxUXUaS3fCAXbEWYWygZ5ZOPRvXvRQAAurHj/KzhlBM9hP7jeZX5WvHUmpUHNBmXkB8V2JXtq3MK8cO0+cmHG3sOgkUYAJ3YcnOYw25DN5mv8zODQZHLzjFoD26qX3QlooRjyWXzSDzw7UCW8zFuWajoi9DG/dA+BACgO5anUyfand41p5oSHo0tKhp6Q5ZeU54TUlg2yOXVasFhJGMs63YvX76ccc8UKvc3jhxAAAA6sPThmLFemrJ5T5UWRhYuVFPGPBuJeKj1aVWds2wx/mx1nEqpyWQygm9njpv1tW9vAgDQrbOjJzrsVuuiU8UIrhk1jUrKY+u6klIjycjClB63W+PpUgRLIpVS4+bpd4MJAEAH5A+fJ46wkiS9aHG1WjWMDPmDJ1M1FsfJFiudMarI4niXd9j0V/16EACAbt3+NGGsnSI9VKaq63rViLfLaR4uoVZJUSSJP7fp+pXalG1HYVYAAB2ZdvDjsIleVFQU5SF/M4/8iaJpmkJ/oJ2O0dOPDoGNewD+4vKZMWMcuKLIeRj5i+e3GvNQtHXN9vK16VtXwC2Vb+zdT0vbcBgH8JDeHblkg8EOywvYYTNsDTlkh2BOIYFAIctoIokMVIjsMGQrO4y+gd6UKR6K0PqnsIp4qFapVMWNDmmh4rAW/LcxL8PhGCurnka1Tdb2+P2cc/3y5Hny/PIDaEvgxaal1QPXUMMahVmWYmiSDkpLTmzyDgEANxv9UpJFqh6oK/8WrLqGEsZQ9kQpHlvrxYovQHveV1yTC5PeLp+h7aVMNJHDHBGgmb7BakThSX9ofqI0mzjCx2WANgU21k2d8hs4TrGSKcztAZoKjJ44gkT6FFyKj+XTPQQAtGewnBE40h9KlKPF7RkCAJoZqFRNnSH9sUtOvpAjAKBNL/cuDJWlSR/CvO4cHk1hbg/QXGDno6kFw6QftCpEa1jmAGjf26FNK2RTPhIXZjjNPUzPYB8RoIWhjYzAsaSfRFG6ETtbxi9+ATpQiQs6x3jnjeV1K1nL9REA0NzrN199JYpkeE5zaveeEADQvp2TuKzzpBeWE023+AO3XQK0NlT5JYRsmvTCqyEjmX2AJgygE89Wv7mm6p030YwkjnofEgDQyvC7c8sUKdIDLSmGm//8iACATizcPbMUhvTAaZFkahJDDwAvfXv7sveeL3u54JvFWAOgU/fTs7IUpFuP7XU5lt/GmTAAb/0H1YhiU3SrRFGS5iQKuQUCADrzcL4sCyJPt8ibLZqRfHYe1zUDeBuYO48LSqvXQtZWNWcsNYkFX4DOjR9cWIIabNGDiYLjFlbGhwkA8DSwd7JrKFLzPoxXNSuaSi8iUQCdezp3UDUFkaeYJn9y0wUrsrYyjbwB+NK/UV6XFYln6ZsPhEklxy1uL2OMCNANfTunF4YQUrkbXhspWwqZVuTnn8UBAgD8GHm1VV43FFHiGbIBXU+UWIrXK9jUB4wRAbo0vD89NmRNtK81YjSnC0YkWfy9+pwAAH8CM1v7jiGEpMZEMUFOVDJOspadRw8G0C0901vlXcvUOer6KqIbK2Yn0YMB/IeeW7lPx5alqQ17UhSnC040X7j9GGcsAbpo5Pu+6xqaKPF88ArP2zanhmT3MFHIoYDBX/bOJrSRMozjhcw403wOSYZkMplJGibJTCbfHySBsV21IZBkYyQxpQENSvFQwdZDbuJR8OxND+JBBFHwIHhUD15ERA8e1JOigogLevAgov7f1G9Z3XXrbpI+P5aSZdttE/rkfd//+3/+D3G9V8zvvvzU4w9An78d/FJUOILd/fhTP33wamCLIIhzVT6+/vKzT5+/7+4H7rgX3HMPPtxx930PvvXdD68+RxNWCOL6g28++fDTj+6++4EH7gD33sG4+8GHXv7ui3fef4GGhBHE+fLI/S+8/c4rTz311BOPPvo4ePTRR5/A315557mXaMAKQVw/dz7z5pdfPc1K6oknUE74+NSLL774wcevv1YnIwdBnDePLZ775srnP/300+efvwg+/3z5+MqrjcDOFkEQ14u3/drrb/yIMkIdMfDottt+OtBNzbdFEMT54fL7Q75AusTPUXBYwZawivv8x/ciVnpR5x5x0b6RIK4dL+eRkq1n3/j2+7MV7NdN4W5OLmS1dogKiiDOq9TqAS2dLZqZkTA76X/77ZUr74ErV77Fw/mMj6hmPtsNB6S6hwR8gvg3vKFavR3WUg0rM+Yr8WUdnYGHw2pcEMdGMdaNBuo+qiiCuCG8vkA3mzfHblmXBV5UxpmM0bTyS4qlpplJqDYvCHpFEO2M1UgGfN4tgiCuSigYneSbBcUtyIJbjIzUjGGapWK+jIqymk2joNoR3i0IAj8yrFYqXA9tEQTxX8X6dDHhPunvbm/vP5zr8EYj+ud7r51FrCnG8e+3be8OO+5EMR3ktgiCuAqhaMNUZtXjw+3tS4MTHhUjuf6k2UsTayz0Du7a3j48mMt2s6V5SFIkiOvC5WlrjXwpMRJ5we3mRZ7nFaiFrXS4zv21In2BJDTGxCgiMnh8ekRtYvdI5zGC+A0u2I2Vm4mIyDNEEBkVrEYqGvT8pU78tWA0zTTGkRIB7AvwqaVsV6rR7pAgrsW64QmnywW3Mz3Y2zvtd4Rxs5wOt3f8rquuSV6/v4ar6eaYd3IP7+4eVOPucSkW9nC0ihEErpPbWrkgVqaDo6O9YU+PGHkYNnw7/1Qe8E+FY3lDkXvDvb2HB3N3woppdc5PJUUQV8HvCWqTRqmgYv+n4Pwly4IQKTTLMS14DVKGy4PNI/aZIr5OdmOjaY/HCZRqGl9Nu0fiIuLdqQVS2XIT11tKhOdx+6XLvNrMx7oBn/8aCpJdRBdNVcRNtO5mN9H2GPWYTS98VFEE8SdcXr8vmmqYY1GfT6edCoTDgllsZVNRqV0LXfsaGIZ1sVWEy0N0C7P5vCMoarOVjvo4P+n5xEXC5cUxKpnOJ0a8M5/2HJm3C6ZVbmD5QkW5rtW7WJcCrKSwCiowTfWqPQelaWXZvpAqiiAYXC0oLZITbPcKI1535rlc1eHVUjYp7fy3IvF6pOikOY7o1Vxu7ui8kjhbDANB2jwSFwBXyBdcdNNZ+A4TEb0Sr/b7PbdSKKfC7ZD/v5VUPQpflaj3UJwnM+b+LeWzSS0s+UK0kBEXmqVWYRlj/sw0Lyp2IlOAOz69uCEvb6geTUHILySgoIhQUPSKzo8zJWa6p5IjNhnXDgT1PIwbUA1hmhd5O6GqiWYrlpRuRFD3L21TTTSxjFFRbkGf6TxMHmS6Jy4yXq4WiBUzolM9vbS/v1etRIxyyocq3Do3fFo5I86qe5cvH57m4mKmOJGoW5PYXELBZMscVab9vf27dvtxt1pKM8/hOZqFAzFzJE+P77p8eW/5/0NUpJIiLhhnWzpjzDzw7l8cvmMD0gSMh+de0rhiKxqq/YtDGN8ukjCX34pURWJj4OqBVMsybFFgBQXrhTJSjWJjogVq5+whhE7fjeGYx0z3rI2F/60JmnR64mLA1cIxdE92ck8eHu4NTwS7WU4FYfD9/3C5XFwb5irV3envHR0d5xx+3GxEqeSIjQAGeK1RsuXeYPfw8HiqK5l8OvB/31J5d1DGCd6pPnkJZdyrKM2G5qPjGLHJoNCysL2PlschQcAJTBxlSuX0IngzouZ32mHsUzPK2Xdm/Z0Rm1mEu5JniyDWEZZ93ShmRgrTGH7RNJhpXpNqN2Ex4X4XUwT3sgN6ZKtmOYtYAZodQWwYXj/OXsmsqbhn8AmeINIQd8HlWEoLBNs3TUn3e3ztAJxa5VIBgkt8DsPizD0yy6lAnbqgifXChZIKJmOWKsrwCU7jOm9nsHilugupftMaIV2wEweiKCnLzCiC7FRzSBVQEkV4R6gJmtgQXKF6IIr+yiJaS5A0X3F6HXjmM1YW7kDulugOrlog2cBxTD7p9eI6ToJqpllsseW0vkNlR6w8XK2NZq1GvmhiKybP4ifzuB5RjZYWuFVCHjMWtwyVj8+nnZkuRGz0sZQb6GNpk9ODWG+8PiwXzYzN65WKLjCZA0nzxWwK1Ra6dcsFMhjD3Ul5GXSvQlmUdX1pEW6kwqTmE6tNSNJieTMRkWeOzoY32AgBWAoawVvZbOwKteGbKhmZQmIZdK87FUGBTj+JBsl0T6wlXg4yQz08gWk+Pu2z5MLpDEnzWnuVDjr+tpY1WXbc3tHDw7keKRTZNQLnoiwPYgXxhjx1KZk3bGiHp0eXLg3iotFIrtTQcvgV06WR3BkeHSGrFAGnZjkp+TwkKxJrhbcmdRsWdor8LxbfiGLDyd6YRFeuDxIpPCnEGJzlcovLi2lxbJSQdE8jJoiVweWRNMgGCQW/oMw6wdpQbLWJ9Wvl8jGYTo9EKvRAs+kRZz+vslQ46uQAJtYBl5eTJpYq9IZoKL500INpvpVc+SYsly+aLdlCb3B41+VdzEkaldIs4IpkReJWA0kgJKWKCT6eOz3cv7zb7/AFmOZXvaK2uEA6X+AxzA+5AsdzYVxqRD0ctwXoREasJF5PsIuIXXXEzl1nRltxZBSXDcsrtlP8J4uwsjQnC3wER0cVcR6atHJHR+Ji4PWxey9m2uD5pWMeRBKlMtTudehp5NiPXy4lIkttg2dijKKw9DiN5tISq4bLz3mi6VZGlDvV4SDXkRGBYTUQBBr07azPSca/42tLYfaugdBGZ9rvV3uybaJ1rE2me+LmAjHDE4B2aAvOdDhA67AbalxrkoziZim0Nr+MXm6nhvEREyQORwSn1x8O5xUxUcpGg6iotXkWxEbjhbtPS7csdp004mUEY3cc9zhjwYq0prdJmDy2mFiwCOtO3GGm+3GiYDTh+cIzoqoj/nc4TEmZNPKWZcLd59Z1p+MII7ShaOF1TSOEr2s5yw9vDvEZs1FilJ+VZ/FX63CaJDYZF9wQDXQKux2sXDILmjcMjP1Pd9c7MM1fC2hweaBhU2UWYT0edwQFcd+pxVpoosT64tpBBKEF34Y+qwg8e7fPmGhbTKNrcZ2VAH8tuEhm86VmBlH3vFxx4jOZt438JNpeNT8KcUGAzsFUtxh6hPVO9WBv77gqq9ZkUd+kUXhIVkTut9A7OD0d5Hq6UjBhVazXPGskjhLrgovj/JA00riPFXrVIaso1uaR3qzGKh+eoOqOVw8efrI/jfMFq5FaQFXkQpv0vkGsOv6ahNDcjP1r0jwzPiQM9FRt3iSTUD3MTB6FxFhRRBEO4aXpfpktssZ7YmLV4IKLdLmUsZkJnZmhIsqIRdhAvN60BE/MVtcmLQj1I4XZvkQ03pxlY2lkuiduDhiqlyqqwnywu7+9/3C1opgNrba16dQWk1Jkhslm29tHg56gWmmJbsaIcyIUbZmKk9u7tH35aBgXkTQvbdpm8G+EwrESzpuDo/3tu/Zyjmhkw6TSE/8nnC+ooQs4cZaKzbuZS3Zk5NmBZKOkjqvA1aTk8unzDFFkH8YYyZSUVikdgVgnahJsDpYxQkExlhWFK9f0xTAOweTRhftXZW0sPP7gVVDGZrGRCrQ37ehJ3HJcSOvFpBRDrPT6BzDN67xqltMsxpPb+N3iH3BxoVowCnOVKuq94fGTg6rDJ/KpQC3kpf0jcZ2ueW8doyMVOV49Ph1MMTOB7YcCwfoaeeZvGNeyj2UZux0RZtODg8HUEcaYnylRGwtxXniWqdglo8BugwRBkJFEnbFayXCwdpFWrz+Z7rGKmaooVCoVGZeBI5ZdjC648Lq2ERA3FQ657rgNMg0IGqJblvWZ7rYRapYMXNTboFBd0pBIN0Y8sK7LbtFW0cditWLJMMUKEDeEH9WWxlFflJ14vCLzbEiklW/F4PC90FZY+FmiqVgD9++FsSjoszheHb6AZMXwxX5diGvRo7uxomHzlU4Ho36Yab5plZFYsbgQ4uHV9Y02m8nUwkwmtLHwQrzXqfB2Ab4pah0j/mMots8HqZpFi0YERM0fD3IOxkNmtc2y+N4gO5KWLY3dnf7gAJqigPwETJeQ6vWVy14lbj2uUA1dKEm0UY4RYpM7OB7OBdvMow+FBiP8zN6d9KaOBAEApgXe2MUDGYMDBoEBs9oBBSSEkQBFYhNSIhBcuOQEB7jkR+RfTzV5b2Yyk8XMEpukvltmbtSz3V1dVf07ty+UgJFUMWO6mhsjnb+r1iG9Ee40ffgjoTNch+DVnEuKtIicjjY7XUoE8ykuu2H5f+D+VXQPJcK0xoXhYl4xmYOsItYrohdVvPQINS15udhpdugCcmUqjG//tun4N7lPadabahoeKYlnTq8gGCvQyF+FcfWMrPF08jXVC0XzM2Fmavqinoh//aL5f8v32FYZfWkO2WFvCqMVS1nMKaKfgoGrdo6XJ+aACOvpgUtWbgMu9D5PONtIc6PpWiCDvbbhc20sukfvu4bB0jBpnt7yQ/H0RthcJXH7PYrm/y0PvXmsQUuEnwvuacd3ulgrwLkh7se+KV8kmqUNyzzP/JwCQPviW1A0j40YH/PTuql2iY5Q+IkX4eeDngO8Wx29UjXvDidqVaZrrMz9dCnHypCDjlx/pwLf/6b+JdOkxx1pXl+ujvu5ITNqqfWIFcLfEL3AuHKz0Lfzp/1uMtb5aoU2fOH9xWfxBz3XEVhaq1LsMDnCD3mISfTy9wz+jOj3By2eb5VyVagEEn+lntVSIx/t4ErxHwn6miEYFlQVvTGOrrxFEc49aInwLRZXfQun89FSkZ7mwBPFcaebwItQ6BNpfrkBbJ+DlnEWStUyz51q7kVpAaPu65WCgi+pb87tzzQfT426scN2LOteKQn/MNqFfDzcwWqEf9c6FrqC+zJq9VwavmTdw3iUonO56RRJbIL+ymD6dRgadatiSt6OuimOkZLFWqOVUB4v9aIUZ3BnOlElew9F9yr9knVHh9GGk9RaQYl4gvhIfUPQFQ99GEr+NG7TuxltNWObElU4uWn6PFi++l8lFQOReKJelVJjwzDGXS/0ANGLaGCoCeZnvxw/JLxC0C1I6w6ZlGxoE0P2LtK1fDSQ8bj9OIj93x91QPeYLxDKNnILbmRoxrLrFaF1rJXIXkVDuB37VjwBmulQywyXglzXqWyjmoOWpsu4z/yiwE99m2/Xi+odVN0zXvqDM4tqvXDhF6qhl/wwwyYLtTyw5Y5B5pARF+W0CuP+8koI0xn/LT+ddN+o59SkJIn86ZGC7JFaS8SbuDD8JtxwzFxKQj/uvj9cHw2dLyYesWj+/3YdTxTF1PK4HvZ785EXrlbDzrGvAu4PUWpqWdeO69mgN4HoVm6xDPX/9iN6X19w8moAv/mOTrpvXUWucV34lfkDkcdEDdIcPPOrxFeqwoX6SvS7jmb7VHQyHmSZqotTgTXD09HctOj+Fj9lF+tXwzIDeIgovbacFs1/vVu+nAj2Y7f3UP17d3qkuNMrrQxvtGwUexa+Ir8vWqjkmMPk6aH3pMmclGtkMcnx+aACVGnkJK+umQ8PT3TFXsM4XCS35/q2kRM3xqq3Nucyx6dL2Qi2s386iEP8uR9oZ5pP02Xq7qahYJr+qwhed6LZVq1ezKnpZLksMVyMY/iFSi/liWCY7fA8bKhVo0eR9NiEKaerVTiKrJda2TgeRjodFJvSFnaoNVVVNV2WeC4WoxOQ6g3YT+NNBfag5Yqtyk1SEhk6EU9aJKtq7qZeg0aWMM66v2B0ow07LxEK4rT5fGLIMfFOrbfvlatQByt87QRDlMPROLwJS8Ukw+lbbTo3aEkolFcp+B50Lren+Ui7bLnu2JjAEwWtEot0sVTI3kIbCq4+bOTJXDcj0VulUCtWIcVxMLSJRouAYUeWx3bMCxWA3XVO4mTIcwwFlmWFh7mebuFtIA7ihnrFghrTekOW0ADtNJlb5Cr38QAmFh0oE1JaxTt+Y8z3/dMTNduNFpAGxuWgc9Dboer8+DgUwLC/n4x1JnkDC0P8il2aTLQm6WNt+tQbCOTZ8KgXFTxmdpaMUtRXM/JMGPSe5rC0l0pxjJPTBCOFpFdeTlZmfyiQZ73lXSGCL0dH+RGqiNoDecbO1uZuspSZXB5LRC+Kv6kUxz2WvDDc6zdXWKrjLP6rXHcvkBeE9VbN+vDN6CRuWBNy+yF56cFI3mM/irP4Iw1mPiAvDSZSK4Kb5cuRub9LaWuW/MXQNGJqFtf3zvEjXmI0UyB/1YecbyHiQk7heawzW5Mlf8Gu591yC+9NcZBIQxqtBn+L1Gw3Fith/IhdiIzCmwJ5FXsU8y7kEO7btLEmrxL2TAEXG44RujEG5HV9Hb9hzhGpyWuWvGo9qoRd6AK4o/XYdEjeMJx7MZAOEWkzWp8lr2N3ej3uQk7QLIjGmiVv2G+KV7jacIQf2eTSfDNQvUNawYOUCxAuyg8CeZNw7NbwgXMCXyV2HJI3sT05F8YjaAfItLiV8E6gHsZJTM87gUeRtCF5W9+4U/CJcrxIpWuS97APqXbThewWSHBH4d1A9eQSbpjtl0kwT0PynrVRxQ2zAyjlyYC850FL3uJ5mMNlGtyeJe/bcXjMYjtPgp8K5F3sPlXBQNktqEgTlryvPypi8Y3d3KGkMSDvYgfbNC42nC2T5UyWfEAwpSyWAtvLH5eeBPIBtsfdY/LeZo/p+Yx8ZD1qYE2HzcJFbUg+0jduMLPhZO5seS6QDwlGUsHJYbaKqoaFQLFzMY+JD1t1cuMB+ZjJtTBQtvLVumvysfWmgq8+B2vmtAGxoL+t41rETr7KuE8sGK6ScRwIZiNfa9QnVhzFKH7DbJS553rECtMbciGn6tTkAbGkF2vj9Af7/GhxD8SS2QFPWeyU4I8ssUIw1KgL2UYR5wKxgl1hoBzLnedMYg27WuA2zDbuqLQiFpn6Pa7ubRNIT4bEGjgOw1WhbXw3kwGxRjiUMFAOFVGnArFotq1gZb1dOjVII1okrNKPLmSP68RmTSxizXIUc742Cea5PrFqz1zhN8yRggluRiwz+awL2SMr7lli1axbwW2YTa7uptYDJcgNbIGwSUfViGWCUcLkvCM1IYzWCZO6C9mjtBWIdSsJHzibNLaDcwLF4yGLTRS9R6wzecWFnCeocCY5Q48PY97DFmHpSM7QlxO4urdFJ/kknBOocRvrtW0RqE+GxLrZtoSBcqBISZuRMwjbGnZj2iHQPpwVKHZaxdW9HX4U9MFZgdonMVC2yDMPZwWqJ2FhvfP487zJknMcGZy1Yof4YkfOso4lXOjzddITcpaB3sbEhg2CRUMg52APOLnNeTylF2t7VhDYZ+SXF3+AgYFvRjsU5MEbEXnx5x/BE7SSC32+eKpHngksDcefIiMI5LVITao4D8wGAd58GQqK/cPfA7UrY0+R4/jS8z9CZS67qZ82S3qvvfAE/yW2GffYP1+7coO1pTYoaUMChL0h67pu0PBQs+khleoedrPnv1bjVEyX530azl0aA/X5gq3lgIDBbqlvut1NSjZMgcbtoMdiG63H/nyKlhDF1LZHw7j3YmLj8wWz3f5zItfYQCw2xp4e9Rty6pmuH+b9U6C6ekrvaib9vzre/Psbe2euo7oShOFqYdqYxSAWsZlhEasxmwEBErKRMELCBo3ECAQJCREEh2Qegre+3WaYmbsEl8QQ9Jec8fic5JTa1V39118vR8itozs7qdpOfVEpjjUS3Fi1/1Hqt8jPP0xYRfgJ9NZXfJsXUB5WUpVy7IwoWI7XUqm+4rYE+mR5WiR27fcNXZxHd5CNOXKccPkk2I15fLHS7/crH+3inx3C11izUioNy3s7h+GLt5oiVCWNrqg/fVagcpxwS7bXjB4rDitkSRU7R8HYZJXUnZpnhYyrd0DX27BBrRSXMhua+Gr4KrPpz8DfdI+DO8HsijoH9ER6QV377UAl7Ptsd+80+Y/O8nZvkhqRR1doaHfPTuR0Jg+ElFejq9FdCoDf70qUTYyQ8Yf5oDtPwTtFhMn3vPpIOHkWpm9DupL8o+bsSM9dsVQPCOHBhq6oFfNBd55c/IoIR6k9Eu0l1fyzvSQTPzmq15aEyz7lo/tALtoi20Ksp9n2/cUID1boDr5kA/BNt6giuRy8G6SvDPSNXGYzV5ymV9vcTDcaXaC4RsXDEgnmusB9OXeoBtL2Sh4oXCJOPfpWWbbgnEZUZvhmJ1qIwI1A/aJ/t8UGqxsBT6VWAGyiaTrAVH+fA8Nh+nu73K42Qnf/tvKbnI764U5kyOtSMXwfc7SWMTa8zNnhxYimtV9WN55EHu4EGpup5x5PV8J7Rd+cPaxp1mlCZevW7FWBLxLrs6B5E9z9L3hOU7n1HZgUdc7R+AwwnCVSNr/siBIi2HBBz+WQHsEX4bq+u2Sj8EWGagqMtwowHKamYnp74s7dk5brsyqlS3m406251fT3W7Hk3iE0azPPm9di7tmhb4TT2BtP1htDeoWS8Mp6OUKS13CQAOg1zN9+9Wxz7zTR9wsibOskKeVzhZAIo5q526YjAJl2k0SIK6vncY6DSEIZBjkIDUwB7cZsz+g0vvoWUS4esoqCzXevm++Y11ibA9d8oBRE8A+si9qPgJjoK9EIOT4fMBJmbWA4zGCF6TcvGwIIVNbtIMlZzc1mxsc9HvcgIwIEk5JcHZG116+mwuQxexXQgXn9vhil2AT9Q59taJ1hF7j+wbIUehgbmwMOOGWBvtmNWSum02Rs2Y0gVxOuXuk9qYTBVzmc1Rbd9s/UdMQVqc5Wni5AoryQqkHgCp0jkQmw/gen6XnOiHJKhlwwHB+xgLFxTs7tfrFFMgQw3MidBEC42jkUE8Al3EckqKz/wXGKW0wFGoMuiB/8VCJCDVebahCpgN6s9gBKkmmSjJWvxU5esufwtVYGUpkc+8X4DyMBfHR/+iGRPp0WKYCoW9brPRCH0m/rIlafcpovGzBN8jTie3NWDEJ3OLMkBUTShrTcetbrxXb1nicR5XU9lgJXkOS86aEPDEe5S3zxKt0jq2fglhYXLGh1kqvm/PE8S0Wg9Ca5oySi7u2u0/b7Q8kzJlsT9mV0GFeWWgUYFklh3HCMFzUfiE1riSh4VsmTPYZ1MZsi+IhslL+nMLPMJImvRVtaon9AjtYR4JTx5MLPwV8an5feqN+fignoznTBuiMcxpUaH+3gaBfrrGmHQRBCrYXMV8CXknZ4urW2u8mKlhWVmWCoTYBR8kQ1wExV7zCJ215DUIs+gMjnR7vVmUz19SfRlI6F5aoZgEzc+x4ESBGVtlzkXIH0SRBWDfZldBhf/Wq3WWbDEOnHdp1hBHrlm7kl1uJB8snzTnbbahd8g87JU+Ju3RJWegSMFyIy+LfFypFcLYuf8S0+1aOQH6o7vC9wMI8f0Z2l2mZuAs6SVw4TdMewPEQ7/+GR5XoOAinPZmWtjhgJVvaWwgS5RVJY3SK/KTLtqLNwpZhux2g/9ANF9CkLa5u9pTBj2+pBsPxORXAVaYLMRgS4siXg7ZqN4XMWUqbQEGHKp/JcZsC3oi5/yT35KjMN6fW/jPDOk+MiqbK3GfJHUvyOqnTYGL6XIlA2hX9NU6mGqKXsDq/K5IemOcUSOVVH1z+zqgyzxvqNnCXQ+jFjxrp7GODE2uxiNhIQifZbxUb6zxGhbTpPG8R0XWqTFZg1kXDJMu2os/gqt+PyxF2AL6KNvUoCJWa8R00d+iBUXZdDtJBoTWYtDsSqbOBLks1/cBYuw9uBwodqSOxGU8EIqRhuMKJYjU+IFOheBP9p9fzheSXIucJlut3X3nKssPFKhNOW8K9DWMYP0exJMDatEYwGqyleKGTdNU7Cd5ZbVdmX0VnCxZ/GvOP4gwPwpa2JVQwCiN9NLpd6FyBanC3ihVtfHz7XmfDGWXrKbVaYnv4ECklMkXm6U87Z23qZnxOZYrXeCALJZB31/cMPYmuzxLo7wcTajhIpdSaIcvLMXWBDr48pk3HKB8GBbNC38fsKyvD07U4qsVvLF8IfTF4w+js6lbVV3nZIUAcjeqW5xItm928pDJ/KzEzAWX7/9+u3bq/a7GqWvzPUSFkctX0uAlywP8z5aAqTaU0/wzb3jmK3mCOEt0Vbq11UEgC+4szdpP0pTYV2HYVaHneqC2IwpcwDZBHWNkuk8WyovbP4KrYM4HeSGq0tRNG9nyKkeA0Rtt9uelGvbpuufLBAvRDi578mreBtFoArygLCcjV8S2GHVheC2YuA7ujM9cFhgukz/klhdi2jkFQ3pD51p9tQp6vqT1x8ZZOWs1jZw1lGNbs0L1jFqH+U6lxnAxKA1oaq6e+Eldgfoqb/prYx0C42Z19GR+kOFwKirL6L7b7aAiPCdh0AGMj2a/P7bTh+slNYio29fCH80fg/U9h03AZXmB7OBLU1+kphNXIKK29/TmFnlsIc5vcOQjiPs6kA+RLyb/RLKM6HbfIH9GOaPq714ItIUUZox1KYw9gpjDCV35LehWbI2S6t8q7UavCn1ji2xsUw3Gkelmj3VmBfRkfp9v8YiLCMVTjw5aqpkMufi2u0VWzWFF2+9QkRdjx5G84NM12IKJJB1dgshb0SpJB4xehv6OsEvcncISRsaAqz78KaPggXf6WwS4OlMGcJNbbCz9Sp6YqIBbhE1kNTWLjRGVPhYWJ9neox4swhiuJXCsNHT4alMEe5pzA8OVv6lJapQgAF9/kotbqc6HdRaU77z/E6bhPZ9i02zc2S3EAXmMjXUYjB+RIhqngKgT9XN91tHwQGloGQ5imA/6ZXNMxyCLhhfdwo+CFR1zFLYS+GK1w/YfQbQ1ZIJBWqzMHqIEwUifIES/383+Uc2yK7C3OWcJkuLiQcV7J6XqKp3KJ1j3pjDlwudtFjGZHsNiwBncfpZnOYCpG3DZNOSk+wuzBHGdXU2+b+YqqnqS3CdkEmqaHjn6rS738EOXIKUwVB36eV9rBElG6uFvkXWoylMGfJf9jTN6abNgcBIkWUacVwaC5vkuxIYT+1y4ZDEQJpdfqHNkA3zSUrJL4ao/UWo99M/5RcEGxYiEB3IL725ijsPzgiqv8pOQoWUyQ6zKi6WtIltVlXB/xKEC4NP4hKfV0gu8k/E+OQIufklmkg4yovFp3kB50vZiGsv0dZCnOUUdMeeGls+XTZKy9JCosCSWE6EvSFNH57pxXggYlJipNns3196PMTUb2AND7HvoyOEinZSWpHfbND8Qu6xImENCVP0WTR91FhqYCohL5E3rrPyKqHASqbCZUDs0C9Er20hdFvdvsMwJzEjLBdByFSmelGLCf+bm2m441YCnOWXtWkKewaD3P+UlI3znUfuJQkyVWB9mYpyEoAgkV5goWlgOwzmj8YP1FRPUthzjJqLia3b18EEo0tPnnsQuJFMJZTAU/kQQiiabIHEaYGxoZa9rm48kpAupspEp0lUuhM7A9eygXRNw2dvXOAD5KktE6Bg8+GddMm5gAS5O3VEwQoLXbkLUthL4WPSg9/o/HU+mav3X7OgSsXs47xMLhSb8avamOTtTY7i6+pTuwxNyEXhKorbVV2QaQY44eQL0nHiWR/MDfmzFvfm9ql06eNtDoSrDLbaziLry8d7TnMlQhRDCymctpHHVNM1Z30yFOdjmcu8Ja2cK95Vdc6ikgNpjC6JINsr+EoYoI/2pblFZetpt++B28pTOczIpT4r09gASCUNAU1OyIp7M8Onfk5u11+JcTawUC/OXt6wCkkkITphp6x3w/bIgdcc4HukBdDthNxFo7YpdCuZjJHkfr7rhYKQC+5mdXAFfRuT3SAW259iPXJYWyw75SjtHPziJZqi1nvOQtXeNPs6+JqCLhP/iK1XCCmt4d0gNpwqO4gQH+xpfY2vSa/aGTocVlH2EqzTaHDhD23VuW+CJGhhNVqFyClTtCV3l62b2Y4x04JoNt6u8YUH3m7mBB5DlOyvRQuhchyfmMSDXD+y8zIWDX9IM7bg08S76yJvpkePoDhLB8STWHYtDtmh4NmEMRM52SlRfB/DKolP0Cf3y6aIxBDlYo9L2yFqc0v83xwmM+bze+RyNqAS5WVBL1M0eR3OneqVUtxwA1Mneqh/KGUkogQ7dSC9mAWWR3RYbpx3f7IFUckQu2kEiXxaq6WaEtb+Jor4eYGW8sDBPuNfshFvouWgaw1q2u8FsPxFP0CH1p5CBRJqAj4nCbhckW61LyUP7NhK88kt9du9l8p8sB1uyKMFHW344N+EH3kidSED7tVNkHfcjTleUnKm6pDYDhL+DYvTPhDVhJwvS4HXSLfPnlpZLrdCIjR9/NET+ZooPL20Nkroj2YwHAWsa5je7RUgQOIhCM3AwEB2VNyWpZw+wTWEy7ydkRjSXSlGMllZpz9WpS8E/QLQWpzMLrr5w1JCdydSlcGm9r8TDI3iQ2+JqP+r9Iir2MsD75C4Uu9aXgnKdxXw9/7FlNNMDsuO03g/YQo+l1jyJWIsGaq1sJAcUUHsykWDsWeCyghu1tCIIVhhsOUbTW2oGaj99DVqOeUWs2DWP1qwxQO1dHdBqK8Ib/btNgdymsxT2roF8a4GfDNvy07Tt5S3k+WXb453qEfrh42M8dpol/z7IVNMQoE3zxpt2HulYBIIiQW6hYmCc6T65In/+dgYyDytpMDhrPkGyai4FUjYz9nsvKUZrRhhCQtLlgbnzF5jFVGQAi3bKe+5ZjNJnWau4WUNiOTVIAQqPAX8iwXe2Ive7d80Pf9nmhvCmsS/VRKQ6bmeC0S6TP6hfCnmMs199P743ZdCo3CnynvBf2CDTdyHmJVj2yOi1Y0NAqUGvYCxFqsnRiFo4W0ukQEM/0xGoUyxdkREc5uVvF1Gq52wF+DYYuhUa83L/6hkcGWpxAchTOtzg7Zj/VKoDeKKpKGCDsvOy47jnKTsuFdrJkIk1XTdp/pklq9z4Ml9/FnslE7Gg6HPwcdDZPHGJv2+2KMmn9X1Wvqfn/4aWI2VhLv5d9mVwH9gGcKcxJwGmKsfYsB3qlvPO+VzOnXEtt0SIQka4Io05Xk9fId+YjpO5m1oDuOqxKbIpudTOLk3ZtHRDFO4xiJjKrdx5bOvCRum1ugtlk2SNFxCu6vWOibNy8JxuEi3JZQJzb+cdMTLgey3vg3Vcc0pu9setGLweXejugx8JG5FjmPPxTX0IMs98w71nlsK73HmC6GTCTgOMTORkCPYZgD1vzwaoTft+gxiLkRuwpznnzRenTB6XF2CHMeX800Hg2Ul7kxOw/3MZuixzhKKbZ7fzXygw1GD7E0m6yH5Qm0Fw8uOEGusg/jEyB2KegxVlm2t38CIa+OHuPiYQXflyPS53foIY57dqP5DKjnzUNMOkzm9gyCyRN6CDxT2KbwCfgaMkYPoVaZkO3l4DJ0EtUjWGvWFfYMouUHS/eXdQIYztNtHjB6hJ2H9T48A3HYmaBHWL6lmJDt9Ri1ifveAxhShfnuPQPavIweQFDbrDz1DMSE5/hYZX7ALpefQjR7Eh5ZUdt0kJXmXw9/IvmIoAOf6+zD+BxGWRM/ohHgE2y9PYXIQDYeCVSsxAL1FLj+YfJIZX4/ZJajrwinLB7b2wPjOQwl4aG6PTstP4lC7PiImKPMLlieRPAhQcc1y65QXpMEta/8v2zTTJPzLD6zD1xbah6munkWo9bm/wdqGWOj7J+Frzn7/4GaSn3WvfeaRNrS8f+fpQtMPPUXe+eymzgWhOEZ4ZNjDAbLYPluAwJjY3wjWBjJCpEShAQBIQURhQ2brGCRbPIQ89YDPaO59KQTpoHYkerrXUfJgl+HqlP1V52kKC20wcFCreFZ0sTIl/mXi4M7YXXohCUGI78cGsOyE5mBobCUUqx3DtTxdmlCIpIc3d5wemDLcmLDJpzkKPjB44FC3fFgR0yOjMRtfz2MLQljzamFGJG/HRTDsps5nLcEyajyw+1BQl1RTbgtJ0jRPMzRcTHgoDqVJH3r+eawyYfnNrQs00vJP6xCtTtvUJ1KkqqED0oan54tECpJ8iraHFTvVXpdyO0TJM/YBzWYs637VxAqxRS94QHtsGlsQTU4WVg3vj5AqLUBU83JUvW5A0xS2YkBz+EkS6aJNtkD6k88TDWnmgzjdG4PGcGEAZaE6fY+HmXJzu5hBDNpaHf9+LFNG6kwaZQwucUBKwO2HESwlJOv6K2bj6wcDjyykjgZwVzffBjBGtAIS5yiFz9evC/UFsGmm+ShP7ww7x+WBdto2imo4uz9CHYHntI0kOnrrem7521DChDBUsCltX56P7XXYCIsDeSi5/eFelJcSDXSD1HT1+9cqK+GzugXIAVkRvV4+45QS1uCCJYKipb2znjYdYsPweOWClgXP/w4LZzOUAQP730FCoKpPGV/dJMOemWo2qeDQtHirn4gVPZxaFSgap8SaBe//OhETTt6A1L7lECH5Cz7wwhmQx/si5BnLW3yVvk++zjjfKgipgfWx5M3s42n2aoHVcT00A/JzuD2jQD2eKc4Knwxpga6Me8Mpm8Idf2ynldgcu/LwIR68HB98b2Ks5Uc9iGCpYiu5ASzx++DWPYl0KMiXJZTBN0wces/2cbNRrFdAYRKEdWaSf03iE23Y9KDqsaXgl6InX8VqS6yg47dgDnZtEE37sf/yu8vplctXgKh0kZpZDxvbrL/EOr2uoUiBqYeUkZhZAZ3N7cX/0gJr++C3isUNb4YVdUix4Pp3/nicO4LkIakj6oQ2cpm+u98EZor6aNUDuVg9leBPjtYol4FUo30QTCLutb6K4G/eJpgQ4JU4wtCCHVlc3txcZu9uMhuNAveyEkrjKttLnZnbSfUxRZsHOmF8dHk5mIv1M4YNdZHYKVPKZdN8dt4bHbfrmyRUH36gtBqW6cCJcCIn4s8XsUrjdR9FfqZaeNy1NZJTgtizIsiTwWrOMBzD7L71FEqhwa/E0rD5E4pkgsCjdLbFZiUTRtEUTLnWFutAkzaItJiJcB2T2KgZfmFyFRZyQg6szFVlwRmRyXS8XIy0QyJuQQlUwRBNwytNVkjIxqxLMuozToaz2aK3mQhw08TRL/ioc6khR2/wjAsW2x4YjxZruSQycGJShH57sgil5NOYFsNgaH7RcmbB5PWs9gWLqEb9kWg1abl2CgeBravXua/6UrXerw2DJBteFIR6lTpoFpsWvV7MhhqolXJFf4Iaao/D8YK5nWrqcLAbDogmJpvzEltvEK9Wrfw56UscqhYwaLT81W4M6cDoltx6zbJPSv77lcp/00oVqrjnVD8vRmBUF+BfL9ZJ7UhR84dr9H/K+/IvUqWM0daHPBWrQ/pSPIQ/ZpFBspOKN2Syrm//ptdWIaNNCVARshAtpE8BF2x7nEcU7zshX8LlWcrUX1OYiXWDEgL00CGFkJ9Fce7aFVvV/5+++ZS9U2Z3yvohOUSDBWlm1K/Zs1Xk4cN11Pp7wJVobsw4rvthHNCtQtlqmTZ5YttWZtsHoK6xHwnVL5Q9vDuR0PeqrFVOHKJQnTVSNc6d7PhPOx+n/rlVAtNXrZj3muwEMSSpUAXFz1yPbhb8u3i98VdgvX59cPDGpmLIrRSUky3Ztk4wIgU9bBYevPnukhSGKP79gicHcmRG7k2FXAUEo1IoDNvrJ5q1kUKcyssejUWjlxilF4jmeI0DomOW+u+VWKUjDnCXMDxZoMF33Zi5MpNg6QoCpGy13xrhR7b8GQeYU0jjWYZEviUQjf5zuP0SusJuR9VGfeb7PXx1c3jWF5AXTgpShV5fX3z+KzXcu8N9vWCp+lti4fVpImRE8z46faxM5fo9yrClvbbNPuA2swvQDKUhJ62mV61yOgy80sm84NCYzdEs9ubF857hRiWPtiGqyNO4yjeCcvVD0ZpDZKjKIq8d+Eq9unQqq/zFMaYd3z18gMXt8NjjClSthrg7PhsiHIkk5iiNEp2a+8+EZsvNk0Rc7t/91YD8o3PhiiHxrcThWTv/Y8/wy48G+00xWK9CSb7NJHPMf5cmf3W4gyp/LF1NF8VQgO3Hl4UWWLB2fGZlJimEz9sJpzRLOeIDw/nZbFmUuvZbChGYLL/VErdkck9vDzEsj9iq5mPD2CtRy63d2OxXYTNKp8KrfbwZHM3FN0Rm8t/JFSJrri2snloIUu4hDZzSii9+nWbpDgN27trVf6gmHepunNuuMKi4zUFOHOfAyFEdZlHgaKJboXOH/Y7qitTq4AibTN6hTvz51BiFt7evqtoZK/RLxw6+azj1QqTouGOaPhy/BTyTMN1RMTFK8rYu6IOgdib7INYo3ZCNWDtVArYebN7VDzWeN3za0zp8FGXht+zqSBe8V6tC1ex85MnKiY1HK+QbbiLw03YRLEWmbKojRVkSpDhfwIEW/HtlRJj0XB3RY3DZ2rVsCeTO6E4p1kGoc4PQQttO1CUfSIe/o87Fa2GnsNzQ4WT20IVgliiEHSxYc2DVqtDWqP/HYjylTpe3i0px2+UaVDyrOR2kUjXWg+ToN7o/k+jfJ4eueRy0gpEU2JyINQ5yVSZmuvwzw+t+Cc2pORUi1y3JjFvNos05IVnJcdUIhM933UC2y/+b6GKoTxsTYao3lShRJ8cBNvw5ntvNi/3pGLpZ0qQoWmTiMJYtCpQ/DgbmUvBn1Mah5Ho+ELup1po5j1J7U32Vq0PfeizkVMjeScUInmnPaJ/aj+fp/MIB5jvNRgIYmejVI50zHEY8YZfYzM/sYeq4jo8xXEccprwNF9CFJhIXD5eX8V1gTjir1Tk4WD6uLQXYHo7F92aoTxNr8f6MTvoidd6PLi5bYlN2Cx7LnIVY7W9uerwYe6YR9NdvNkL5Rchhp2JgtDjXi4eJ2R0zGjQTqjZ9fSFaoM78fPJdEeWTWGKovbDscSRiadB4h2kbdWgnnhiMrTatklqB3/sQwElITRFDmNqJ9SoC4fuxJReI/2Pc6C7x80wfDPZc9ROddGUwGT/BsdvokffTPTWcePkBbbh7b9FEZrX4Sr2qRB0Mbp/fhlMUK/BEkd/9JkSs6hzs+3g2W6WoYR/OgpEjmnqw8FvM81pMNXjhcr3ayZuvQzG974AHpwTksmxo/pqO3hR7OgER6BQYmuWuNwOWqjN5gpQoj8deVqwUGt7N+T9U6yKytOqK44H2zvcU/vQZ/4k2IWlkwhxGiVHQi5zojUEvk4pGkWKtgvrnE+2ddR3bJLSYspuj060ma2k+jrSOIR42RqBUKchU46ce57iVhxpSuyJhCo2HaRpmJzrvQUDQexUU8ymPCdxwPEnu9/uhDKQFmDE23oIpd9PoMSGsvbciUnHCkenWzlf6AqhKZPxuoVNiQGPzvFUiw0Xjccxkr2oxhKn8/CokuuQq/VSq0uwW/YEENVXixyPFWz3/MUrnTldBtN0DV7b/WU5KuYgiJ3kKTB+OFY43nCl18vT/VlB8ns2fl6veVeFJcDnpcRUQm+uLZcK741O/WEX6IqHxndLbm42hT5EsSMDTWjeo+fWmDJrOSJz2qN8WfF4ZdLhbDMcwXssRxaSRpGnU0przBkSW82fWCihba86+2mIqAZ54ZGfZXnhOmTcWgay/5o78W0pk5P0YDlTSMNvwPDl+cj3Gyb6c2324hzblqvlpmmTOFhxc7cGhoEjDkTFmuNYo3jZjPYm+jMI1bPJfUGF7DXAZH9UAX0erHZC2XV/dAZLLsHup8wQ1jiqLoHJ/gihXkOH074J1T7L2w10pW3wJPWHyR6yjfNAMKG4vH56CczyGb+0iJr+PLgZxDrswfx5V3VDV7aPV+P7yvm+tDJVweM2j9drOwQv1e/snctu2kAUhlvF03GHq4CR8d1YxmB8ByyDhKBSipAgiSyBjJJNNl0li3aTh+hbN0PbRe9Nm8BEzP8IczyeOWe+c/5/Vcm04o/ns2tZGjzdSz5XceDF9LzHB032a/zXxspFCFbns56QPGHR4WQY8b3p5Qo4KmuSfXyVDMcFEEOYdZ8Y/ySQvYAAwmDtMWDgwRoYzo74RYLvGU9akuB27DaBi4W0PWZ77sEJ2MgWEVk+3XtagqlYkUIXQoSh0GWT7P/lOydWYAAg2TGftHmVkHIyQPcS/ISZij2q6sOOmE+nZ5r1m9aiR76d3kxnit5hO+5hGkvu9eW7jxN/L4cKCRQ+m573s4QNLH2Yhm3/ajv7MF939mLWQPyddzd8j72JPUytZoq3bz4u3aiyj2dfrhEJ17PpFncNNlX7ERMwWdz5jfpec0/l9IEZrAFGhN32VPa8+bcJmOcTr+UYuXtzYmvdJTb/2ag7YDnzXz8lJn7GI4iB6xArsH2oXLkPFMYICDKD7B8C0a/JUyLM0k1tP4vGVaU0AxAB4HY3zDH9EdSqSnac9xWgB+3G/hCLQq0pBT6Y91fYajNTsb/pDx9udJz33yPdk5rjva3YSaFqRjY/yXPNl9jE0r+ayWA6fL+/hGtnnzNeT0oVo5OKcZ4rbtRgkP2fxQ3VkF/23+Ms7RjV/V2kC1VVcmSY58ssarJRD/+nQqPt2S5QlldZYOx7HAM3bIfCpDcn/TJmlaViv+92MEehDJU8FkJz360l5dIiEK+u59hNGRL8B5XHiySVwaQ/R932mNvzQVKsRjJ+v9QE29swP5Y/BEpNHB0o+RzZ94jgngPFjTcWnucxr4eJyqbu/QeRu0l5PIF85gftQ/T/DO46IZlaEMeiY7Kc+ncddY6INUhGZkiH+DW1KpLji4Td5tMNY7d/Q7ap3hrHGhDlbnQQq9ea6dlkvITGIPs/QPSRjjUNA7c7OggfOFAjaxco6CfstvFvKtbvRmvl9vYsttXDta+e1E17sr3cYj+pMHe4X5TyGpJ+jwZsJ377gF7mnGppZ7Pb91nUrLMq1S+K8m0LX1zezH2TO9wS1RsBOpu9I1UqNpTv5+JKZgh6b277vFc73BJxtUjof5j1QWoyyP4fWhTMUEQYkjfF5O6gt7XW3cjmEUAQuIHBcurvNVgEGcAQAdF67C7mh7u/WYQSx0B0zCHbcz+QbZGMMESI96PDBqpY26Qu4QWA0JVY9+WPR3xi8whCBPTAPKix0MnnxnSEMW9tWKAeplqS9d6e3sYpHY3ipY0+uXlzuVyzHfcziP7NbGIvqCg2FBZd7ebdaV9MWDfE9ytjK9Pzd7ksDWm4htWbBLI/P0NOg+2o76oJ3fjm7bTPR3SkPqVE6F2efkAOaxR7gEGio2c8whqvjxqUlMtLRmTzGkSAmIoxdvvrHFdPFgDEGpADWppI6o3EF3ZJoRywQH1RS410kewoKIYGJU3gdeJ6BTGEwA1NZmL6lYpqk0ICxtBNpeoLOjRuhxnE5Ndnddgk+z+rXBh31kqvrwB7ZFTpQW/LhZoR+eh6dXEls3doonqjY+GL3jXSPbM6pOeG1qqpHQso/dWV3qm2qPmADieuZtp4tcqxG7SbY3o+3fq4KaWislrN16PGgIbU8MAqDhdBlm9XEzFsN4b0jK8ulxpSmMW9Xp93FhR9QFSq0BylvggnCnYdg7aOBG5sOEJ8rcDMDqUKPV/YIVRoSI4ugnipiY5JXTcWp3oyJKYUfthpUpIeHkhcpe3YLpzkE97qUAfVcpVkHb+fY37dHalUFDgPpnLN9Loyj5fvoU/fqJl6JfGhstR41woMNlf7N2dEu4smChbWliPRCHIO1FGqi0C7UvjQPOJ+5/tApfyVEgPXD5MmheU6rrLrJ9SUCThq97diaRFkk8kVFOQ0UYcvqNPJsO2QQM0n0B8d8W2jOLgbyfEkRsLa8gwaAzU2PGstQEWJ5ftAseLGz1QfGt76avvhAjrNFqVYNFcqtExL600vYjlSx8eZiXHDRSTHZ7OL2DdbgwGdJ3mRKzcceDG7id3AGB9nPbE1bCY26k/P5nJnyNG6BOV6wwG9m9sl35UoejnYp+ql6ibkr2fbpRhVOVpznHKhOhLz7SwHXYkVfn9iBWaGAtIw4te0c7b3kL1FQFMNuQ4tEMMeNTCCDGEIkGCN6J4eWax2rJ3lACKT7I9uy7VUzyU+XQD4lDsuFKubcA0QjDGwpNrRBareGPkAQgCAHJiUwDa/JjtIoCDk/YQW0o4WjUf86vXpbG5XqA7hV3GGvpy+vexnnWM7w4aSm5+eTxVr8SzKc1zzHrI/fb3iR8cG2ROI/t2ry774PD7Rk2oAb05fbZFHC4i3L5XVVPvw8nIlJhTWD38UN45A793b27h7x86wLyoPVcflCUkq2JH6LH6MxDvC0/mdK5buPY+f+aM8BRKIHiHI+xHdCdg33GQqkkDxbmAcCzBALH5FHkAM185zAdZPqpIl7NpWsrRdexYX2cehegVAIHoxfS4tIMVa25HRrhui22G9YmQ6UXPkKzdn17sCa/35/GM+kXd2P2mfURznJ++gAhZB4CcwRAUEERS0gAjlxSGggu86hjLqGs0qLHO7WUyvTLzahXf2wnjRmNQ6bbQxu1inzRabpm30ohd9SZo2s1uztYmaNJl7cQ92ZqsDdOuWeOjnPzh5nnOec77nPM+DRoJLSxjtjR0WibTqWCuf/xHoxUpN94A3jMSegpOA3trKZbLQ8Em4cQyXGN4ICR/FGAXV26jPF6mleUw4W5OUw23VNlu8Mb1AzX0TBgaIVVItWRVT4XyllHs87jEf8cP0PNRNsDQ26hmKY658/u+gZ7Mr5C0CmribITEMLwALL8QcmbIsH9cxBBK5IcOnqZhcg1wiYOhcDBEqZqApCCSuQUJ16cgCUUlFhv+pjgowuQh1lXExagCygc0bEd8aLpXTcJxKa5arZce7Jf66MNnFWkkzjWrpFlQLwf2fhl7bVJB1rm6qQKMVvsH3nSuRu1FxPF8g0dbUXzlFAEfiLxh5C1mMD9FQvDi2M1+vCZFIQsM2NBcuJpeVqGUQfzPJPimtUIj4VIuLoRCyMnfsLTcPFZxDLgtDUFJeCvFPrlNXCkoVIgEVbbYWdUEG18xo/FpkcXUjjyovZgFMf4mVBQatCIU+HC9TF74JNfNBTi1UsYeF1WViVWM7WVsISJc6QDZTVk1u6GinomkiVlXlMb0M8O8hkpgn0UEtoeqRjdWyY/QKxz+esi8o57t8KnGZspiVl8PMtMwxG01mc6UVEmr7gD5fUwpX285mcmvKXF4fSgtLh9k5pLMZ5lLZJ5g5eYnGH+5TWTStIGY4kkNiqwW4qgPnVwsL2OCkmdeBuHB++urUejOjG+/OZzRD7wm+xU181C3uXt7enFyvWGLBjfLJvq4uVitaGGJdt47KRwsFTJh6lVx2a+L3A91eNakUcvMAlpMp71SyEm87kMUW3JJPK6k53kP0R7hhU95CRabothfXp65Os5lnCRkC6eSwrEaLJHmxRZdPk5Qfj8exX+f3Nw2ZKhbnU/kSpbCe9YacY6euTM99tbm2tUGh7OoFrQCL6L/z9tzm1i5ld2NreXFdOFx5jpARMGXlJYxwzIFhfp+4AnRU3KeylK/yY5hjDHWi1cWZ0hZDWZRSEPbVUTD6YLc2I6z6sF6gslEoG789356cWmIvnIJvFLIgl4XulFq8VjpGtzZoWGAr5b+QzZLjY3SMYvXqWpSlXBJYPe2I5LIMisnFm/efXLuzs7G7uxvdEksMLOBW5w7PTS5vJezZ2Nl6jooxvqi6GLA+kIDEEmolNN2QaqCLjmEYxRZzNVdAv8xIZBtEOm+Uggyidw3ohxKdCAP0q7SoYikRUC1hX9SfWClHbEighF2EEQhn84rXtxuju8ijLq7OryGXWpycml4ggCZHViFHC9Xuq3Ps7UCrnlYtBHLjISVVxQpG+6BjL0QMesM4Gu9QQrlv8++49Oz2/MTESD8iPjo+Pn7x4sz88jrszfnO54/uXo6Pj+4Rn52dmJlZnd+cOg85bSRxKxg+q8PhpGP7OK0uCZSrK6lqFYUu5qBTsJdQ6H5/14C4nAv6DKsqbdbHumz+P83yR8PNBtAXq96/9OzmtZnxi3s+FR8ZQaFi5s6Tr5Y+JACG1CpyddgcNicF+wN6VEVVg374PZutZnj/6lFOhy0WbhFmhLKWjHenp57evRcKNfXZ29ra7H1NTaFIZGTiztrm+hLYQ+zK1Uff//RlX1PCqpf0hSL9sy/uo7TxbQJMSFx1i7iDjr0KxarSaVrBHmLMRL445jxoVF0DrRpsQyKXWyPq9qGk/lVsPp2ohkUAyvvTz57effxNJLLvUihQRPpHLj+5ub4EdvfllZbkq6IHXcoRc/G1UrCHGFfdjMdsB3YfvUuVXyIEu1DpIL678vMvLy7Y2zp73EGP2ezxBN3unkBfJL56Z23x6hWYHduFuV8f9wU6exI2IaMSZrl72vpCs5fnl79agpkK59bLLd5BOvY3nF0qcg3QTgtTyA/vKTgHcYy1lwmBjqkUKMSN0SQLRbd6xdVAP7VDYeLud9802QN7YcKDwkQQhQl7qH9i/vniHFDhja1kNNb5sYPsCfSiQpgLRWLLcV9XEo/y16nIFRn4TNjZDx48fTgSsfcEzbXGIl5vL6/IyOGYzO620MjozPzNqfOfEsBxFgmj34Xsbo+51sThGIuKinhGjum0xx1o6o+vPpmUQiwu35K2tKNYnxRnLF8J4xXLA5w00Hw2LDl0Hxlk1pjLUuBWSgqbrC45xPSe+NHKoxf9kaaA21P70qOQQ9XWetyd9sjoxfntCohPXRLZSssglhxKVK+BuFAEklTTbqOkMKpOpz12X569Lp++d/3W46amth60M4uy9unlGc1uVIiNxC/f//oSuDrszPSNh/dC9h6ziYMO5ayXoKPZZA52JtLGHzbn4KnCJww0lQ1LBX0Mrx4GN0hFZJWLfU4sFc4Oajm88RuSrKwBnWApQ6OqTAZPID3/48swETSb9l2Kh44xlBYmct34/LYW3EMWhNwCjSvNQtlU/GJ4YSKnVZAmTFDq8JICQmbx8YOHkYg9aEbn16sYa83BHntodPTJOrgBiPduvBiNtAU5B0zqLeKYEkbFxze2W6FdEjtRn49yqzQ4hxTgRkhzlLgfS4fTZYBWhxEL+UjFSYevrB6aR5358fZsv91t5vB4vKwEr+aFkfGdsBpcssGWd6RfKCutmAAMUis5hqXD36gAt1BpWXh2+0KoLZiVjF7O6WAgEv9teR1YB/rSjRf9oYDZmMyoItNpd198Y2u7FFabhSijdWDpiTbICwmgyFPiUSw9dWI1rDOMJBV4KVhaHCqRFFbB/NHKr0iX9xizkmKsDfTvDHRXw5q2JLJL2h1YWugdfBmsVPeEkNbhxNLib5ADi+eHtGhvR1DLyJSVFB6n1hMIjc6szREg8c71b0cinR7Ofrp4sBIzf9EXH99ZrIf09iORLYnRsUPwN1TDEj4MFht2GFEqrJmOYUnHoQtF12tAddU/XLl1b0/VSBUngm394zvLNaDS+zyt3okdhk8AS3YbFvgo2CE49EqgwzdJOLPy9HFTIHjamGpvGk3BQGhkdbEYUC7yyYPvv7R3emqLktvUy+OYe+z9M2uSYUBnGLck7MQOJWqpAbQ5SYW0QQp2GBQfrRhQV71KHrZhh2ILawFlwu+vPL1nDwRNvVkp4NUG20Lx+c25MwQwnChHCsChOBo1XAIcCuR62+EeZbUo4TVjk3Pus0do8NxsLMpKSW/iDItfay4E8zTTuZVbX9o9JiMvtU2c0x777J3lcjhDVFXlDV3YEYjRhHAUqgLRvuJ2iHgvgZMJM4WW6FGM6tJVgKktT136+WFTJ9LlU8MzmXtCE1uT02CywhMyhhU7An6XFo6yUak9yrGMZjqoUjC7Lz0fXf8WyQPGrHQU1SKRYPX51+cJMDj3yaPH9h5OWpuQmOi+MLG1DUYfzTVQo9hR8Hs1YGZmK7UqG3YUnENw9FEpf4CCHQHKGLkASLJx7pPrDy+0eXrTu5TRHIjsrK1DCRO/U3elYU1mV/iDkJCwhDUESELYA4EQCDvEJCZBIpCIgiCYCdrAsMg2gIGwVNkKCLJVXFq0FtRKbW1rp1ZF2+lQqXY6tXWmo52O1Km2tdNlbOvUdp62T8/9vgTtpvjv5jzjOJfkB3fuvec963uIwCDD2g5qV0ioo7yosCiOwmktwjJEO5Jv+f9F/Z03P9y5PZt0V57lsmzf+co/f/AVB2G0aL98f9Pmjc/eEwRIN27+xGd+8qqD5J9pXijCvSbRyBMdJCHhUuyqcVqbKELCHUTdu0cCV/GaRFviKKFE43tvnty5YZ3zsyUga8P6V772q684SBOpe+wa7Sco6XAYdR9atFY1oeInOFBw/hmFe++/u377Rh/n56n77Isvf/r1V3c7hrp/680rO5+UpzwreP+JT7/uIHXAKfGQeF6jNNNDCYcQrziD01pll8Qx1H1ysXytB8XYlZRKOILQzO//dee2qgjn50ha1cWTL595dbdDNJHSQul6pzWKlp/gGFE3zxjZmjdV6SZwEKvwWaL+/A9f2rzOZ4fz88Tn2M5Xvvcjx7Duq7//7vpt4Fg+/8Ft2frK9+TFhCNIMBkfWKvR6BhtH34Za39vEEqMJxxBBPS6tR+UMs4hDsr0nQdQHJXm/Fzxyd720qd+FOkQm0ouMjitWZRuDmFAuYS6qta8J0a+Y9XE/m9p+827mzZEAII9TwKOXNz0qe99zhF6jtQTb76y/rmOJdUetv2lT/3yx4QjiAQK99Yurg7hhnkV6Z3WLpVch4gBZEDjw9olJ9wRrPuOu+9u2pIVsIYnVbUFTN3XHIJ/NFD2IgeV7xA9pCkJYqe1i6rC4bq2/0uMb93fuXmj81qEzBy99l0HyIa1//6vn9gG720tGLZx68tffNUByLM8vDgap7ULoyLGAQrrXeL5LwLLrKZQB2jr8C5UOb2AlPIcoNKy5fKD9ZvXre1FVW37xJk/fNcB3LDMmF1OLyAKrgNYhbQo+otsiqWUOBZlwP+Q2rvvbIWk0ZrEB4rQv/rql7CvmKWd/SGYjM93LKlSy4tXP/2r736DwF0ypWKnFxBWs2s4/qla36A6pxeRUuFuAncJS2hivMieVHkZ2Ocjus0ffbh1w3MTYVSdb9oGKPx6NZzAXkQhmhd6UrJ0/IsSPaX5L7apkGD81cSz5b0Hm7f/e4gbSOqfXgU8WQWs2/bSmde+gr26N15DfW7OlPy/rVH7CkDp5zM/ee0LBO6Sy1E6vYho82Oxt6/YoTn6F9pUWV4igbv40kdeaE8MRTT2B1U9+mDntmzq2TzTNAyICAiI2Lj1k9/7kRR7dU+ToMq9F4pj4+9aBgapnF5IxPjfvufI9z/ctqEq4qkreBBGrKStltJnZWU9xfwLfVSffv3bXyIwl457mxBbVoTPkSMHfWByjG1rMDzG50haAAllQEuKxq/AN6be+PDL3/sn/r1hiQV6pxcSRRH2AarM2IIX2xNLISFwl9AS/Qtuii7APXFkXvqALKgP8DkCbyrtyYsCSXvifh08eOSIT0QEFHRAqwr2Id9k1xfU9gw59qPDXFLlTi8mSldHaRb4P6L+zaZtG7MCngDY8eXl48cX9lPLgyfOnVtYOAgrSiI2XvnUV1/9JoG3NL51fdPmdWkB67Lnzi8vL1ObQYB24vjx88f37HeGGUcHF44jOQ9y4YNfnPnij5Mx1yK0aI1N4elVKo2G5fRkhdYqFYNaa8pgyj3533rXYAJzCWdW2rah0eo1eq1dVaAtqsr0LNtSq4eB6RryUwYTdyXCTrTlIrQajQZOBo6DGvquh0OCLdkElhq97RhzMnCvEzj70Tvrt/gAgp2YO34e3pAzCFodB1mAFRKfdSeOL6MP9x+5eOXqmdewJ70JlNmOAl5QmUplPxo9Wqg0q2+Mhc6xjFyIM3D3WDwjxU726wb7gD3YL2OZRq9nMZ6+fhotWupLsFcTzxT27h9u2rAubRXB9oz3nzp1qrd/eB8KIe4/PXQJydABO4Zlv/Plr732Fcy1veXuB1s3ALvvuuP9p7q6Zi4NH94PM418TiwP98509fbPHvbJOgI7m+myycOVv3zxj6GYZ/i8mdRtVCYxi3i8OLmCXGplnDhY8oRFQQb4AaO5nCsR8grz9OiWVmDPZhFPxRG1pSFxIPQcCtBYJdwiIewxCbYEUllC58UVCYM4JPd2UiDmASovHrkL1q4kbhFPyBNKCkNGYF3HD4JlobyOQQUPc+hFRXFB5eR3DTzMK5sb33twEailAiIWbvb3dnX1Dp3e7wwBwxPj8KBmei/N7nPeAVmGhZtD8KYuTY/vO/bOyVd+FIw5AV9KQgE1uC2Hi86JJ6d4mUdCgoQgPF5REnk5FRV0uH28HFQO3ByHe2BDQEWxtYbyILh6PGaOEm2KVUfngV6Ic5WV2Qc/cOGB0Ss0sP86R6j7esYEu8/fh9kJAaujwcZP1bcd1Zk6rNP7fKqqTl8aNYE0DBw6bHPE1l08+evXv4t5iOBLb76zfSOECc89qm0z6kzm0UunYbBs1fmhvgad2tTRN3Ri6sSh0YZqna4GRGca6Htw5jUp3oWWfiI+pd7lgaTFHsVXoOWuSPubcuFWMhhKei7ppGQYkLYv5e7GW917RFPJiNIgf7TMzGgioXckgUb5aEFoj4ymBFIXsv2ZzQwotMQ9w2erEVCEhLrYE34hLCetazCN3BOdVCJlOaQ97xGapye/izmDsenaX2HIZVX2ibd769t1Ne31l07vX5d1ZLm33VijMzZM9h+GmPzUzZlRS0tLQ8/g7LGL619+XYK5ug9nKqlqmsSwp9fo3CjJJSEuJ8GTOlYVOjbM+9DdM/JU5O0LCrWtST2hZCZTqJ1eQvlk8kA2+jQBGYlldAeovHlGgOAfH26tsocR152Y77W216jV3abOweHjc+f7R80t3d3d1ZbW/gMUhvnA1JXPvOqPtRumPnt/65bsdVXnHo21qfeqa3TmyUsHTqxb7m/t0DUSatPA2Ozyud4BS4tavZdGozW2dLReP/OHILxp3VKEBhLBxJHUe/NMDEGDZg1POIqLFFqlqy0i5RsjYyA+AcwnCyTTyffGKKfmqNB8Y/I0CNB224IiohAF9GgLvW0gLaKDJTxCxzt0z5bksyimZfsrofm7wuRf22AL99Ry0CkavpRaJsc2sdCpZuB9UJ99f+f2quzsqZu91jadeq/O3Np/empq+VJ9zV7a3pqjndb+wwePnH842tDd2NjSMNB189y2l74aIiKwlkQyZ8mQ2Ymjwoo5SljTV7WbwAAAV5JOXb/MBJkeStBj8LY1MtNJL18hT022BW+kfD2rjCOi9uQRyANXk6HkJPpRO+QWoHGyCYQDy3s/v7LNxx5GzJ6/N9l+dK9a3dioqx288Xilz4IQrLFb19E6vc/Wt7hh56d+Voz1Oeq+8+HWdeuyj80PTuwl4IXtrWmfHFquGu5r6AbAotGMtadun+utbTCBF7YXNEyjGSDsn+V4V2t7cRR264qSsPQSDbw/EeWh+Lm4BCkrSxI97YgXhwAuPxXrWI6HF59EsDKh/dcMlEBTsHzVDPaU5jEUScGriJcBCKeR4W0z+tGpaKihyBfBl4cHLTk3CSbFBNr3BIawtjTa265zopVwUEq8adD3nn3zpQ1pVVMXHva0wYvau7emo2/6/IVH1jb4DOSosXV6+fjtMVMjvCYAsfreA1t2fk0sJbCWSCXS9ioqcEGDPy6xeQwnTRxpXMC5sYMhRiCOsZ+UF7MZ7moc1i8Kotgq9KLEklXL1pvXrDTEkteLBv8gmC5rEtl24S4KARg3SPAO1jxbLv/iSbdHxNTi5Y6aGuNEh0Wnbrc+XFmqVbeYOgbMlhpL7aEDtqErG9e/8vdUrG1G43tXNkf4bLywaDUS6vaJ2qN7ayYGb5671NNNazGftajV5tbpqdmuPqu1/q3OahrRONB14zMfV+DNHuPPJ+9mPgIpP29veHVRdCVDmxMVRvj5Z6RHR8bINKV02IOLdy4yI+NRQKEA70nHLoISavReBlLtvpls8FHylJWFYfC2AkWBLgQ7iqnI5/nDN3PDYUn4Q9cmqwBvNjB3W6+RWJICGiVemi6NhjnbeSgY6pnh74f4f4AXEXpxPPwDYckuRl6ZSoJ17UPNdx58YkNA1dxin0VNtHW2t6ktAzO3b/R21hBH2yc6j+7dW9s1/val0e5GmslsaiHMrbNHrnytIIbAWoQopMsqiISTSQlNQEAmYLJYikg/0PtRsVJpjFslS+sKNYju3gL4jp8UAM6JiXdZvYCrR7Acgrx63+Ko3Yg8IEeWEwp/B0YFe8KNlIhZhiCAZU+BN2wqE9mMI4VYuyTPkWvvPoGwtHO3ehrUbbVL186iv+7cu9zRaBq4fO29gWqTeea0HcK2vvKrBKw1Y/u1k1thgOz8vdoaot26tDRRQ2uwTs91mburO/ruTXY0DPQNr1seHx56eO/998zdjSbr0PzVj/Px9sJyyagHq0TkSWRGSRO8aYQ/jAUuS4KX55vI5FfIxCqWLNoP1Lw0Lho+zQ0Cm7EuBusygeTgfLJco1xEY/tmJMCwX1ouJ780BuWIopMifT0Ir+jSHOBghr0WoinpnkIDREEyCJwlhU+V3ZSkg4YQcfh5TbJSvRM/NZnmlyiXetGIlEJWfqE/ooYQSuD0vCXwP0GP91Dgo7+7jyDswr1RsHDr+/rqzZ21XdO3uhpq1J3WpcsTR4nOvtnTvaMWi3m0tdZCGOun973ztRHM+x+C0IvSVCQSYCrxmqJ9UbReqy9N8CBcgoXl/DxZM0M7Eh1GeESl80Tu7OR4OZws5hXoxa4sVCvEDPcgkhPdgqRhYOq6yV29AbsiuUwY9JAczy+Tx/qB/xWXHuXOTomEbJiCjrdr+UxR3726dUuAfXjW3MMOU/XE2PU3rw2odRN37k52dJsnrz/4aNJiMneN76caxbI3f/K30Vhrxi+9v2lrRNaGxSVzo7r2zvXHrUZaW8/D+T6LrmPs0dzQ2GTrzHhEWtqRE3Mf3L/bY2rp6Dow9+4X//QtrBN8wQYW6bCkh3vHM3NcwfnyjjGwlG6gEwOjc0oVelT3EA9bSMirk8WnIFZ7ltOuIqwJLX2lpWRwtDzBO1yaVM7MRX5WiSwWXJmYCm1OqAtiJOEUhxFhGTKDPBiCpzFiyD7jHZ/aXUEVLvMTwbSV5o9UqrSwypMKdouSWCEQgg/jsUoifVFBTr4h0hscT9CMWrznChh/f/+lLc5T80s9NW21vY+Ge1snW3uHbo1ZanTWe9dX6tsAwoZP94/1jLb2PuybAAgb2vfOlxVxWL+oMDcWOW5EBA5WjIwlF0AQIFqrkiXSoMyBU6pERfaavAwwnAorDG4ZoeHRKG0pD8c56EZL5DMQhBUKaOxAZmUBwi5BkCs3E6ypnNK6dE+ALteCuFCIBTDr8oKKA4ODCljgtGEdA3i2tN09aR+qFZB2ZP5Og8k02nvh8d16XXXHnfcvD4Dbsvh4pdVEeWFIfKo2f/L1OJxNEdrZ3yAIO7ZyuaHFZL01f2GwU22qnVmctLTVHzqQdXh2enh8D5XXm3vc1VFtsvbvOXby03/6/NcJfIWdWMoga7FLkuh5paXy4DDkhekNKHCfHCrlccWQpeXD63MR1umV0NPsXgz16gom1nkjfwnJLqWty3Erlynz3UIJmoDywjwlYkbObjbhHd3MFyWD6ZhfwA+GH0fnA4RF4txExQ4vobww1ygaqI9oHpOPNqnM47jylU78YBfwwhgV6ZmER3yBSkMPp7nkclhOLA7WvTlt37+/aeOOczcud+gm+oaP7zswPD09e3Oxq6Ha1Hrr8WK9kegcG993erh/aHr80eAE5YV9+Z9BWBv33hyW3QsLk8j0HH8PwreIpUgqBhUSGM/jJingrqFVoFyhb25KCpEpkS2SiHPQDbJ5JIRxQ9kuAroin45MJQ6f40V4ZFSMjEjdCc94+YjQi/BMaGJVFsg5coMGDRfEWZ8/W9SdH727baO91X7/eJfZ0tA3dOGDj6wWy8C9j5Z6qs2TK9fvjlabBi4dsEPYtk++zsXZuNd95zc7N0dEnBiCkCHkwC5cOFVbY+wZfDhqslhvnd+yZcux7HUR5Ian5lesuhbz2Kzzlitn/oT1pNlk6dNTgCvLoQhbwB3RVMTYywCkIwyAMLZHJrPMSR8STPiFlqucKl2xzhsJ4kaeHgbGzSX8inOUKh5q0MxTuXqC9uBq8xMyISYikwHAEd5xBfA+eTjbjGHBFIQxuF72XTKfcNbxg9nEbjenEmkmzTO6EtYZLjQvN4CwpAycNWM7jArbGHBu8bJZV9t14+LFDVBgPzU332s+etR678FKrZEYmDkMzDdTx964cGNwgtZuHd5z8eo//+iFsRvmIkjSkoOL0/2IsGi+gZeJjooxshrS9QXvuNItCtpZ8p96euIYnHHZPaaEhDA3kZ+foEicFA2/bKKsoCQXBr7zDfkZbCgfEmuEmTT/oqdocfT8XOxJOv+f1NR+dGXbk1Hi0Nd8qH/2wBuPIbxmHl25vtLa0GC2vlVvhorE4X323rFtn/gqpxjjLdf87oc7twUE+BweHurvnz3/xgeDnTUN1qU7PQDEfV29h4Zml48EkFs5dmNpQAdpssPO2Vde+dO3cU6GeT81aEVb55bhyfZLl+m18ng/u0fDK9Xy410Il+gCbSU3FIoFOCqIkmCdN4pyUzzF6BgU7kkT8EZYrCSBH+GfKIQ+qjBpBaNMnurCzoxPiHJHSKaH0A8EHPGVzFhK4amE9mC7H9Wag/pL5VBe4wvKQxbribwwjRa5aimQgWeUxOBcklj75ofrNwYsLE42QO5r8E7voenTC1PHzk9b2/e291y2WkyWvuk9QHmTNTW3uFTbpq49dSBtG0DYF2oIbMVd1GTjsMkFczAjVuBBePIMTgWrSRI2eDTKoFzCXRAZxGS6ialC0/xonOs5fHkGMlgjLvJy8RMkiPyhjJ6pUdWl+9IyRbFSX8IjOKRUASickihhMulyg5aiEsjA+fY9U3RvXb+CyDvtEnBwz54dWRcfXx4AbX/7g8ddndXdLS3Q/lt76vR+O4Rtf+mrr2VgbIrU/P7++u0BQB4QsH//nj3HLly3ttV09i3dGWiBqpQGS8do1/Ae2wjPlQGLbqLrcIAzJPh+8jmcmX4DCxVPkZoV+xEe3lyFk5Yjskfmad4hlXwpAFpGebMBlT5kuoE7VhKLc+ReVF72xAfjCcAyzkCWsTg9BfYTRkOMJLvA5eSBO+bBJmEafV/PCcZ4U1CAQjphI+meT3p1wDQGUbiFwrMJBUYEsRQ+DJcbmoX+oEuLYFcFRRhrxpq3HryzNdt5YXHUoja2t5vhDV06sDB17uZYJxrD0gJFX72nEbdP2rkLS53Gmhbr0D6fbS9978/fwjg275lgo5eSJSQDXrHRI4POevGTIl7f6MpSYSARlpni6e6eAi2L2BOp0KD7nwrTyFGvPJvcZgksyYQC2w+W6QZlcwJYuv5enu6eoTySkISVL8U5sPE8CFu//T8Y3SOOzK30mE2jM/MXbnR1tFB3uH4VwiKytm/69WtfwRnCrt1fv2EVlI/duFN71Nhz5+61Dmhxa+lu1DX0dJG5sB0+F+6YWoyQCQsA0pGX8YYwQVClk10M5KBVz6JdDD0zFGn21NAUUPJCMR9xTnvH8yS5qKTWrRLop6QYx6doqfKyJ3MsUAubRzFdjwxdXzse0FGvaZDdRNwdp0L+WgjWECZpppzKDDYaoJvghf6dxCAVRaQLOi1o8Gvm7kbKRcJDwy79eNhDmPXBO5uzdwCEGYm9NTXqxmpzX/8BBGHtJPtUo6mj9wAZy1m4Ya2hqasnAcK2n/zez76CM4TFim2hQTvdC0CY1kkWhY5EFOVLgx4qWV6MP0FjUx9GijUkkQzGzTceu20QpmmyT1BxjwcIK1vNiadEliqUsWzYItqVSxS9lGzVSXdwCHt6eEJAVtW524MNKCV2/sLiILRNNUIzsLp2cHyPHcI2AIThfDePXru/1QZhOwCP79W3GztbV+4tdUDTZXdLdUu1ZRQ1ue0IOHjjcqO6fWx2P4KwL/8Ea/ZiAbfsCYSRdAJsqVirpwe7+3lGcopEcCETk3KYgF3slN3+fuTIDwVAWDrGHXzsjBzVKoSVkIx6uyVKBkMmTUGfktPESuGjIvsevISV6KtJIozD2P5CMr+nFyd4sj1D45pQ/4lnkJaaNoXUSqYw30mRk4qMDP/d7oQjQJiOgrDjiz1GAjBM19JSPQCtzXO3+wDCaOpugLQuqtpr4WarsUbd0tN7GEHYa5/HeCxTin38XkV8sq212ZtT6SQO9vUIi+Iw41Ng7eaW4L16WwVM6HTGmxwGooZUdrmMH+XyhJiOpYwT2Fqbk6X5ypEE9hM+KkSbxTA4LoQZ/wvC0qqOzXfVqo21veNzF1ZaLdXVZrOluqVjcvqw40EYicetRl279dTivSUzjdZtMg80VHebW4dhIwH7bk0SuolT6PFl4Q5hoU/VBIy4Jfi7ILY9BauJl5oaW1IpE6bAOqikKSbwSfYMvDAW1slnl/i81U0xSqOLYVN+wTlKTUg4NDVnCjIJyIXlsbR1sfA2fb0zodMloY6ceIFz6cNu3i4Skku5ieHxQQaqWj5SwUBNtMxgf3ewfN00ZaUQNiXFsSCsvo0GVDedZgswHozdml+cbCN07Z3tNTWmvmEySnNw+VRtp4lmbh2P2H71DNYQlhljoG5eElw3F9/cFLhuwPJeJ0mMindTwbxYUPASoSgTKXpfXz+4rolyLYriY9zBxxbYJjaXcr2gNcDfKwVQjatQ5semwC684YF5BCflF0DKHDabmQx/JUdCUT2jwIEhrPX6+g1VAU9D2NT8PaiRbW8dPnz8BlQkWjr6Lk8OmBp6Lp22uWk+jgBhW2wDmaduDnYQQCg1fGFlyUzQTD19M8DjVj1waY9z2sEDvbWErrb/sENAGETY7KIpbYoLd0eFA1qlmM+vUDGUbsDn6y8R18mlnjS7y+IKEJYfjXGe1i+h4gkul8k4QbkAvEV5pUWeNJog3U2aQiPCuUoDHdWmxEikUBicm1QJOoePc11zIEAYElU+n5MD1PpN6JeNz0dte6oCuRCymMkxBZWqvMjMVSR3EAgLOL5Sb9x7tN16+XJPdYtptGvl4YCpsaN1rLVdpwa/i3xxC7O9fR1Ede3QvotXP8YawnwjC6ikJRS40kJj3BI80StjlZXIQ/Ka0SRtGvBxxCAIY4sihcFhKB+twh7C3CgDip/gTktODeLFuwMLZ15JEvhk3hC3FriAliiXoSuZIpLERoE3JpLDphwZwi4DhGU/DWFVc7daoee+vvf0nuO3rJ3gfq08+KivwdQwOGubuuVAEOYzNXepw1gDeHzgjcWlTlpjx9L1v0FZR7e568Aen4XZPjPZwYK+iTuEhbtpnZ4SRZwA9HqSHQFU5WBJ+koLtGUh4fAS2e5sgublWgYVwzhPZA2LLbFvgKJKjEYT++JyElFRfQmjIgrUfWKFW3EY9IWJS0viAfTSZYg6HG8I+/eRzeJIMCKCkxTUyhDnBYoySQmU58HJSOew4Y/QESBsK3hhKz1GRDx3/fpSQwtohjtjlmrT5L3HK9Z2AvyuHVnrjkBZ/dziJE0N6mLu6sdYqwnf6ALq6aSCvyLMZ/BDwRmLVTBsZqI41g/CBNJUXxSSz1cyAz0gJqAACHPDGcJy3ZSkPQjXzEPgqtmVtBvdSGacL/iQFc3N0FEfFlXIzwhDsQClLMgX4bLSob0wKhdGQRiFT8dv93UaG3pOje/Zv/ywvkHX03Xjg+tdHSaIFOyxQ9hLAGEYp1iO/t4WSAyoOv9w0mRsbwUa7WM3UEUicHRcvDVpqkYQduTcbasF3M1x9NWsbZ/EG8JymSryboo5TKZY5aThoEbfuJKmJGa5WMVQyRGEpZcyGIo8DpNeGO9NsAMhyq0VR+LshcXbBkNUuHI5YhZDy00maMAslUoQqLLKIE0Bph95EJiOu4sUeoUEwouJObgHEv2FZEJdXyCnu1VUMgDCUPEhl+7GdS2phDFN4cCmAtEeRmUFh8ktjPdHmTINKnTDeGaT7i0Kwm7Vt+lqxxb/+sG9AVN3h3UJUR4MLl64AYWJltF+YGzrnR5fmLqxpKuBIvs3rn6MdTlHZkw+efnQpBF/uYosRfQQyUo4dHqF0klvkAKiJabDS6LlNpUx+OCG+cUCPowwMe69seXCGEqJLxq74lSWB9fNO50n8YSOsdKyMm4u1BbxUGtHckIFQ5mUi0qk4DI6ckWi9d8gLCKr6uZMh1pXOzO7x3nH8sOBNqP10vyFx70DpmrrEAVhaVnbAcK+hXFC/ejvf0pVJKadQ40sbYih2Gfj/L0ek2Xy0fmNt8fMpo6Zw3um3nhUqyOgpJ50PvEvqicrEmUS/2TEhsNCrkpYOjfenx0Ymc8qk4cCk0VkAdkTwkADgFAZnAqK6tNxzoUlktTF+pxEb3agcBeL5Qr8xLulriKCjSKGdUVgSoa7Cv3ZRBQwv7G47hDJL8e9nMNWVN/MjPL0TGxSOcliUsAAEQb7+nkngE6pgN/dP4gsAwPRJqWyaV4oRiyW4A1h0BfmfPyRtf1ofe/8O39bGbXQzKOXrUbLQO/83HzXBFE90NU7OdFmvXQ468Idi8442f+3L+MNYSlURaIStTKHGpzIhjBaeIjQPxlqHFjaglgP8MIipf5gRuWDJZLoCVEDiNLVBWFczkHz4pLZ4uZIYJgDiNbLRC7AxxENTYcpEqVeAzNXXASS8gRf6HAuQOOa4TIChLHEsQ4LYTX1CMIi7BCWVXW832pqNPcNH44IiDj/cKLNCDf2jcczHdU6a/8+O4R94td/LsZ4xPHR3/1w/XayO+DmnYYWHVlMmbYR4hsWi3VoeQpmrlQjCDt24eGErrH+ELmtqq2v/OlzGJtX0BKlIMNSKDAYHKLRJolQQ1F5rBcRFpqnVSLyUUFRSak4r9xQyQKKNMIviq+B2toEjN1lD1EIwmUtH2Jqnihd5IoCG7HMYrAmISBSEOML0yKZkb40AHANQyVkQ5lzEkCYaxTGRfXeMWBIUPEmmiCu2akpPoygBTNFoAHDy2GOUyhskV5SJ+OXyyr1GtdiD3Yg4DNDFolxxLfmrTcRhC3cbu009nTdfAO8sGqi0woQBsbgzbn5QQRhgzM9DbTOvtP755eMal3rEEDYn7+J8e1LTiwhIQyR5fnDW8lHA92KS4K8kVrXamTIRoyMixYQLuHAsF0hcofothKQjodxUT2iryHZ96Xu4GeJoSK5mAYjimLS3cELa9ZowLRl+0eXS4FgSioG4oNcVOoMLmdFBsa379minlgBdo7VYSvZc7eBT5DWOTi7fOLgwvw91PgLHInXx8zAhTa0j6L5Xbft5a+6hWPMHFPz3ps7t0F668jxh6PdqKXt5rmDJ6bmbrRagCnx9gUgmkLlHBBaPNWp07VOk85lNu4EU5mRJDuHAdp8ETmikguq0NdVHA2w6+6mFPMQstGb5MJYUVBFnUzqCxe3Avg7kzIw1vYwLgbhMisvFQUQk5o1hWHgdsXQixHLgFgLP0aNK9FeHtAcXAozjxDoycFrY2KcjYBp9iQ7R5k8Fw1XadIjvHWX8hNSYFNcrQHRToWXN+UIE0WSvII6XiAUYcoZwNAcizHxo/rsbz7cudH5xM3B2uoOIEV8cMes667tW5qsrrb0rTxebDUTpp6ZS6MN8NfQ27cu16gtY8MIwr6AsaXrF5XDIAfwCeB1AdltDnR10DLqXMHp90tQ1rmGox9zmMFstr9raaUrZMq8eJWoaRFnh8VTmE9BGDyd4HKtUg6bSwEvzB1xJDaPwNwi9m5hkzCUCBPJtQamN0qyK5w0OZiPxn2WtN97AmE7INo206ODH04emp4dH79xb7RBbelZunsN2Nwt0D5Ffalq28uvc3FWInvPAkdiAHD4QsgQVhN9t26On14+Pz/W0N0weWelrwOqqYb2H5xbHGs/2jZGpfg2XjmDN81vWALZR6/gCEAjFjNdEzPhDVYo6YgdNpZTmApIJW0qoYd6snOlRdGB8N4kYI9V0qMIjMVWvWdAhq1vjBs/lQDbkSnPQEVghRU8XxqYyk3MKAC2XK5bYS6gdWwFom7CuPKBcCkuYZFaJAE0orewIgYl1pkj4BcDpZSMGQ8/TRTLkor9PLxiedxioPpB7PusEBHGRiHR8f5fN210zjr/0GqCSUV3705Cd+Vo18M+U3c36AeglCLMk0PTfR2NLea+mbFaQm2eGQcI+yPORiHNK4m0NTjBqIiIK+N50aBcqKwCjTsO5NATwCcLledDVwrNPZbLifWEJcpHl8RiffvSZah9Y5eQfFF8VxS02S3kFmWipko3jigMfEp6gWu8Cw0+LcxwAdDmQ2ZdjnMA6jlivHtyFcICsuZujTagSNyEtW9ssHdx5TLMXLH09HSgNpDe09SXSKb6QozjwQRx9n2AsDSU/WpBW5xoHRs7NfT28d6B7m5zD3QItDRMDjsDB0lrm7F9kJohs/HkpwtEjQS+QsswkJpRhlouPYNFvmxI0xbo8xCllJcoPJOgeXKb65JC/aDFRYC6xkRJlcjExJmPGbJ3dSQbTpMIQCswONEXIohBFQXRgMcp4bGhNARyzRVo5llYeHC4O+w0DuFyJNYmY2Aeiyy8CUKgFSoV+EE9ZRPQV6JfX1rsjXqblSMlqCLFVxCOFGOIEs7VDWtbw/x9EsLO3R6DURYDZ8+au4Gf4+HijLmbgGWtpaXRNvKyu6UD1AVhhFaVd7788astBMaS7IoOSitOD4MzKY4JRyNVg1ilvEC4bqnB3h5An2IoUzH9gYg5XATnxk5FE45zRBhnlwlaAslUX+ZW7AEhw0QR7MUjNSQnBP52EYhSMxGHZ5NKHJcJ9cyJob7wPyFdrAcYx9mzfI7U3L26eUuanSDx7ZkOEw313xuNbe31txYfTlbranTdjWBcWaf32VqtYOTl60U4x4OJzvdh5GXa1KM+M43c41FjW23f7NR0n6kRUUwBtcDYuHMWgrC2Too4K2DLyS8asFYiRHA+iwrd567W2TMVjGauL41auUflsFiGWG+7OSYZQfPseVjbGpnSAqqaXhJmVysZeQqW6yrBuXtiOUPBiXri4fDLgIZbinNwlMjkU0z1AFo20gf/uFLoNbUbuh7hHAZLUeS/Oh6jGQ5KizV1MdFAzgvzmTp/qAccr261urth9NLN849GTQStUa1u1Flah5YXHoFX1og+JTpbhxeufOZjHoGzuNDJgwKQoqEV/AmLzwFei1SPVVI36HZoEiXb7yY5tTkkF+NyWKDoyWGQsXlp2GpkO7p0V34q245xMCfMSZUjoFYAc0UjaOQlxnXLz5Vrv16/3eepYSumbqCTUtfogFZw6Ob8IasZLiiQWkxCVR8padkbdn7qV1Kss3/tvz+53iftXL+1QY0ODXZjnOib9VnuH7W0wAM0DYzN7nP2OX7I2t4+0XsAICwibfvVj8VYOyxEuExLsT7EebOpFpDCAhZ4ZTbQYgejpsay8gR3yr+JJX2BZinGdW6AUKn5NqZVW6OvX6qbkuFUx821fR7MUQK/O8zvo5R/MRMSgowRrNn3ieRy7ZOBOFSBh0wDnIkxtoMKpZciHZPuaWPqy0Ff1+BtFOq+9eATW6CS68T4zGh1dyNN1zDaO75wYvnQqFoNGFZjtvYfOHhk+eFkB9i76qPQxnIge/1n/vljAmsJog4qn7fbdnIiDhSYQ+SCTd42Lx7KalbyM/yok8ooR5lbujfOEV+imENZukn2Ao3MBLmepXK1F/FCHl3rxNjFDaUALVCCwt67uBgnYp8r7/1l5+Z1tlzY/tmujgaLqbraSHph08vZbx+qP3pUV20xI01Pis/GbS99+mcirEM5Ne+9u74KQZTZqENibGvoGRvfcWS+qwcIs0wdfdMHA5zT4PPOiZ5Dh2Hjaes2v/xxE9ZKhBDYyZgM8V6UaW+gOjMzSL5O/yAFgyRDFyAMc0+Qkd8uwDrqAbGNEhtDooE0ff0CKZbSSkmKbZ4YVYZJzS1hewXVIYfFgPUMNMLPVWXjG5H4U1x8JEix5IkupNLgKRkUwCG1ESYq0ZPfjcE5wwL1HG8ChAWkpS283QV8c0fbe2bG96zLOrJ8qt2oqzZZgAkhLSDixNsPJy3w3DrrDy2f2LDpM3/Ce7w2waNoR7XQgEgq+CjuCDoaMWVseMWKYQXiJiAPTkRNBsJ7jCcUGFK4rHBNtY2vC1EiSKNTkQ1PlExG60I21VhA6onSIqw9y+fId3744eaqHTYMOzw8M9OFZLBrpnfowEGfhdOHBkG6eiHcRknWlitXz7wqwDqUo/7O/a0bq87dPHRqkJKurkPQ6AZt24e60GaGD8OGI07cHOo91H96D0oCZm99+at0rJUI4Q0BAFJUFW48oSSaLiY1JUOZEyeMjo5zNbAoJ40TJJTwgvJU5CovHO+76RvCsm1KzhMKhXH0AsrVlDF50RKJkEMFTytldIlQIoFP0VJRjre77CGEo6B24SaUCHn0EgWlNXIKhXA0rmJqi81JQbDDwiTS8mAYMrA2ConPfrRzQ1oAqIiF2Uvwhk4dGofGUbQ6NTg21jUzfQAVRQHADcFy8FT/+Llscp4FgbXE5lNWoaaCyZNES4Tl1O1TyejkA2uyzYaoC4mDu8njN7PQh5GYv6jIXbbZdHyeBK5fEH8Xi1y6FcETkjBLKm02Y5wkMlrIhaZtpCZisfYs/8Xdmca4FEUB+NneTO3PUjtD7cvoFEWrr31K6eiolpphlM6YDmmDiiUiNH6IpCREiFA/kBBkrAlBLMPEHnuQWGKLfQ1CrIlzu4yt+u77d67v19yZP3Pz7j3n3LPKsO3+J09lYRgk0l9NsHL14lUatX7VyfgCNFgck63oxK5y3NJ+wbYz1212/9aTV7dcIVzdsmU10VTCetjNlS3kuhG9tXE9bJL8rPG7pe2PO+N+TPfqOSE5Y7UkGAnli4PiK95qDuUHzGMSukBVYo5EIsH43RRrNkJta3ANu5n5xJMF/ulg0JzYxSAxFAhFgolN8XliBLYcBGkPOFAPbQa0A6yJXZTApzCX/PxQkVAomFyqLOb8QCRYwsd2D+ViqNl79k2h0QA6TIBbtXQpuU8EPazgfq2Mr3yw3LIULtjqrXaby/txHer4HnG6iYkbBccNPoaFT96hYCSQb7YmlrzFHAqFIrFlXtfuuKV92346a+K/jsClCYpkRZYgF2AXoio5GYJIjYjZEtPZNXH7NWQYd+yhZBeSk1b0a9YIer0gCHqN2ucjw0r0qwhVKzFBYfM35NYVN/PefpfNZDCsSgK7ie0PflyT3IxGEFbFfy2AyRjdg7nUDaidBQlUP+F//ZmPrf76K6/D3F6KUK1LLkj0lPD/Wk3rg9vWgJY94KBKDc+nXjlwh8KIb/55YbwfuJpIBH3Sb6NZ9XNF/hZfQ85XQVH4BeYmv4R67UOpTlhynQqx5ijcRmG1rAxzFWr4eKPjHshPX3oGTnwqucG8osXkCj/5jrmZIGHyjItSoUEjtxd1pXPUVRwtR52hAvRqYamiDFVOP8SdmBLFzYo3VbMBblsj1odIIbndcUdYuGo7zlz3QPUNHT6D3eWd/hhzYTOh4aiuVRTi6Iw6xRdo0Ga4wj0NGqbF7cWWY+AHCVwEvqp0aOzSol1fMTcTjDH/oNfjp92T2l9YFC7bwGEnG7zaisjLRO6eIoawWEUZVtyZ2oR2EMJTRuMs5GqZm3PvjdcmUBu67sPbo+fGc8hp0FLph9J1QG5rkN7ZSm9ULnoxIcPp5wU2o57OuhL8hZvKXmzAXHQfY+69TRL1hdO7PaW7X2B/WcKLZXBJFSXwAUitQk6tPjplUgSCERx26kEpgCLGYA/vcdzsQ8+dBUbaV5jxwIndFeXIH2Eg7psFFboAMhrg9iMSTyKMZVJEIBO9mJBhyR2Xy22gE/ZGm3TiGurmnXGGHnooeWgvHLTeX1GxZxuHnXothisTjC2bo/9Q1Ug/XyUEm+A3GWu11ykzg3Xd0X+ogQs/HPa4af0a9sPRa2+PcOjJzlUp0mD5PXDnIxIa9Agp2xTq9pxUTDn0uYjOvvKZSNDo0mXkUVqg2sL7D7xuyvtm9IQfvd83lMNOw3bK/B7DsOcIEGqRlgf08KP7YI9ZAq1qKDKEA82Qp+4RJp1+KBVoqMSERm9zlg07jl9MQN9AUZFRmMFA6l71Tq2VbIovwTw9ho6pC586Y0UfsmiMEDTazYJ1xY2//bS0wKSmeVmabM7pX9bh12DE7yEqidLmIK81StZiWqvQY8nAXc8Rp3ZPsxK9zMaoix0fDktGvY9CTBiMrtJT09AHzAmjFIUt87NZOH2N2g9T4pkfhrxMgIbZ0IbaZRQopL3dUzy94jJ+lxvo5SkfvFIhhQ5Tm+yu0ugl7GUCcbQt6cU9b0Y92KiSWtkOeikCU6ix51jGaDdWpP9Qlhr1WNjUlJcPiwrsFEFzwXigKFzRjAUxwdWHtmzUWHKasiDt63TIyVMSCcPdKYCKqceebfK4KcS94HZO332LAZcbMO/2J0lyCxThvQLnol2op13+OhHYwVPft1zM4/kriXdqp4QPZuLuxZykP5l5QckYXU8WNBg3dduzN2AVUqQj2g6fiJ7byYAfkYPJYIOpDShV1x7Y0xFj1O3fht4qzGupRV47SsWkl3chVGuQTz4/ULri8XH06YhxFt57UOyyq+XvW1F4xWM21DKMAYYxx5QMZ+MRRqY/TKDOe5jQhwkhAoPCMkVaHeZow0gsYujLp04Kq1AAX0101/HemEcX/aR/mxLaD1WS2YGFRxhp55gh0hqF+S1QNwJX0mXKS2aupEMtwHslem3d5nkcE4zfcf6mUy4cpiYJ9dGKcszDLn+lbd9pVrqjKdZkZRBr3UYtIipKM3gkK+m/dfvRxtRhlgwrCWHL7j1wetya9DeKVDWXVZzbx4YGg2jYgCDla3mCloWQJaFBdi5lxCFYozkbapmiEXUYxL0vrcdt+QHwuL0/gnqK3a9Mfnmh2CljNOpN0Hf/XTkTbvukK5FK3FtaatlwIxLa1TDTRfeatGPC5RYfzUFX8DYoty8bD0tg8o7vN0tdJsGXri8HNGsLf3l/hAk3IqGWls6VyHfFX7xXSZ0eXXkqt8bg5v+DGzHuIzh3s8hmSpdv5C/whstuZTP07Ky/4S7En4W0gWebd9HrTNxD7H6jblYTB41g1PVlxDtF6N9nLE2bKXPrfgzdt/ptuqpoKrV7MBRN37vzwon0KR0a0GDTr43twsp7BWjQUZdH4QGINEE+9eE32o3IV1GIidEdGZLnsulGN4qlQrvBl1qJ+fR+OJplu8pxz3v72z8Kjg+T798+jwLn9BXv+zB0NLmGzTOsFCWYzRox814B332d9ro8mhJMpu5bFkUJBO/IzGLoQ3GzX931Frv+3ctH4yeh5YrjjIRh47RqEaDw97ZkSkzAsNig/I0KdWOgIJGWgWvP3nU6oUtHyoeYjwj7cFnFun3Y26v8xtBj9x84JZs/9Y3Tx3qR7n7cnSnByNXJbinKHU1Hk+ZMfShuSBudVbaFRcd6TG2qVqfWQTkrOFCDkfyUJNvO3iiGRggpq0h9asFkk0pBTMxiJtpAaDikiZx3nhdzWPI/Ab2zW4u8nP1Uozlbp0+Gzfc/FjtddpMmdeY5aLDXe/axkvZQOUnm+wOvhwyJ+BtNTC1/OXqZKYsRqNdzmoVPn2WU0YkhRw6hYVa3rnkyqRxtspjSYESK5IxJL0VCGVoWamV/YeC28hebJLdJUKfw1BiMbo83umvdEUYyvpLUbZ4pk1AkDujJlgYDMdF3sJj+RplrMlFSr+Rwfr3rdXoK7X+eTrWGzNMib7AjLD2lY4x7+f2EUyr8y2pU6wW/2+Us3X2pvClLjhxC7f4dR4t8uqOZoWXOuKrdYcRwaxqtPMbRpBFzp69/l2nphguoLDla1gTjD+7O7SfJMI7jbAQvB0lESJKDaICCvHIwE+MQLF8tXsIDQZYjBjPabEtp1bpiXfEPcFcXzIvmRuelY12k5Ww1Zy3XujDbXG12WK0t3bwo2npetIModrjq937+g++e5/n+fs/v+T3Pg1Ld8fmOrrb9tt1r19Q2FMDaetyhqxMj2eMMYPArlZu+K+ga0EFphf2JWE0c3iyC9R+hxY2wtW2JU7PPYyF3m83h2F22K0/Zbsex/WhmRhM3X6ezABWPfng3H0JBrNt2DIn6ocnW3dsViSXeTE8OgzNGBkNqlHhbizcIcKzwjJHB18g8feyiV5rlVTXA9mAUQgOL3Ft0oHwYsBp2nn3DU2/vRCIBtKQcZWXUktqxY1eZI7+iQrH781/gRTCq6FtBuop3wmINoHoAvl9WMSoH2UXr8vqKJoCz7/eHtXOpZCLS09a933bMZkOub9vffTvQEUsufH7y//+wsiHMs1MTyWTU3dVLiaJAmtp6KFGZB9Nj8GYmRUnxykerDxcCNHtEizFYzEVcdh2QS26FKPw+bhFjhNVy8wv7ns7GU/GQu6eb8ohjDgdKc7t7Ax3ReDL1fgqmTTCEfrJoJywG7axhleqaot9AcEkcxoNEf9/dXD+33NHREXEHevJ0uamJ+eDG3U6D8DwDJlLj9PKlUCwUcXetaAqgbDERvzmxhGsA7ivzCDS40rf+oKV1jx5rlsKMYAym2MgJD+5dH7+88k4rnCs5aylXNPMs69/8ZfeREjWoXsRfuTWWzi2/iUUjgQC1pHp7ewKRaCJ+YSI3MnTlv/8kbGNKpEZWcIOyr4tU4gehDlT1wSolud4muCeCvGYpwPLTn7U3j717FYvHY7FoHmT1ydTliZHrsJrB1lJ+7eHb58l4IhoKrYpKplKXX6ehNacUFN78HmdrQWnKKzEqgG5XKBql1nWFN67L0tnUAnOznKdaWmc+sXag2KgwqlaBO6/8hdP3vry/kEwglwitGgVlE18/XITxUNuGlIh0WH9hfb4vjCsgD1Rju3rAWVhDHMR0UigvwvwDo/emHs3Ozy9fRTaPqopv3ufmRmbGLgKOYAzGqXMvXj6mRCXyoi4sz+em00OgIxiKYe267Zjd46WSLLbrhFcftvOqrELAEQx9ddRSqeYoCX3/gZUn3L0euYRTpwHWtVcoSmqq4hFh0sldabbRE2ZelUkM20NOZyffPZ7N20Qmlby6PJvLfR3PXgScaiBKm7QsIqg/tMfp7OtzDvoshMRvAL5b2XJG12kesJD9zgPfZx9LZhWDtonfcepK9vpkeu7G54WFhczi3ZHJ61khbLNHHL1yb2jqa+5ZJrOQ+XxjenxobHgn7KmJssadCo1Ji/mcra4TQWUFrrPWiKEWRn/AL1XU6rbLB1vZbLarX4k3VLYLYZs9GihBqcagZemdXDab2xdk1TWpSsEPVLlweGzoy9yNDGUTz+bGkU2UAt6CrdAoajc14xzJETmCV681aOAPFHOntLJBW8+z6517uXvC242VKqkA9I7kT0RvOWNkWRYpgua69lsnYedWq6JGs+NLHxc/Ip6MDMHerPxE0NQZ1pNyFm7QiAXQY/Iq/DN1R/SHvF6vj2TpaJIulvBr6wkSaeo/RNQfFEE9WylM8Bs+hRcpPi7NDN+ig0sgUSjfsBoaGnS62nZRNT00MRtLVU26KpbHZzHjmq30ELU5W2s6zR6WTOvn2Qf8dLnAPVpbQdhZMzNajJBoz9DDRBgiNUZgMt1BaQtNVhuCX+MPyjEZLsPCSr+KHnGZKTBicmU9rmbJB3gmoA1uhWxRae3ypfRM+pPHzqkFX6n5QbmgRYRopMfU+65JqNA0V5jtHBM9ksLNKRFr9XrCymfuNPEOyWUKWtg9UyXz6Lejd5fKm+Wk3QC1w20tAitBetQiOq011BqmlqPL2QJmtcluCdbRw+6/sXctq2pDUbRgwzkcYxNsDnm/JGo072gxQqBQEMErIkS8kIkf0IGjzp32G/oZpR/SP2pKvQ+92tJZd+waZZjDOVl7Z+191m4rxnIWtNlXVpEOxX4tWITlnGSZVOMDvypGuiwkKNNVbhe2Je628hy6MP9n2J3CmIkhX9E+H6+N3OvXgCK/ZWuNFv1p9SgMSG44NQjMr3WXaGSi10rYfq2oecL4fPXIx7KWFB34KgAruTQ3nHmjqrZsTKQxUQ0C85uumeRM+OVQOWnFay3B72B33dwCRkpADSaE5zTyl+h4dyk+hq2mIA6HWAcfww7dcrgKpOZxQhD6vFMBDSO5At3cLpEPn+GfoyHh9B5bxyK6Iq5WcucVdLRd7X0S8b8UHS5K73aDJnTdl+WKdGUo9q9FdczdZ4C2ZjcHlnOqoxjWyxrxHFxWIKo+9jF/6DgEyT48f7rnsPVILrHzeGWqnYk0KWLYYuI0UymSs1plVCzvewZSNw9Sx1hRCfViDjTf20pAKRNy7IPvj4tLxgR7q/7h9K0R9bIHmmjqDqI4kkBv1C3AtiaIoskcvgZ1vQMzJCVynxXRD1zELAhYy4efeDN3co347acltDqBNqOgY1gro5oWbOqVT3Eh2SNHeioVNfUBLY0BUMusY3cK1mae0n5k9wafyflO7ULOCqcx3qJeZ/REE4LP5Mjl60uNNcFbIRP3NAB+2+062E8DPEPfT/65DkKU5IYLtwhoWz26JwPuZKFWkW+xD5YaWT4W01zugt2Uy03aE6QlE71x4jrVQynk2tHo3Xqmyf2TjRor8qL0unB1Nz4kSemeGsG0IqIRp8bpfU3QGMVMXgYb2CrAb3zCaEJd/XDqYC+5zJ705kDbqBpWQHM8OLNUtbtqqTE+1IKYEDJlrkKbCvbHpgeyIM5Z4ZXVXaOkEdSNqqKVVnr98Vlcy8S8VBWomfB0gDXGmZ+9vjBgkrIHN9W9GfA+zpOiZgLOEe2JcZ9MphcGBZeLmQOz880Wgv0WXfhdkZztHdRmiGaIVjNXelUnvOaiWboLxxdEK+M+d2F+cI2NmA5Vq/FSGcDb3Rom3b/hYmOnRS+z+JGP7jUTJk3cFOwMp4s1/DapF7C7PYREn7sU296pFHl9gPNl+BgjZPabF0RhycUJE8zhfXGs5TAGjrhaaTbTvkdo4bcvFl5Eg5obeCpAQ4jkhOlZ9oXT13EIwj7AMVQtxUSGfIUmZFR62f/m+n8dY8Uk5dqvVStYhbdzMhx61xzppSBdUh+c8tGqZr/ve9NrJiRo+NEToMWwH+xdQa+aQBBuopsli6hBNois4DOIIAIuT4ImJO2FmKgxJhqbcvHSU3uwl/7/pmkPbVMV9LJL+93f4bnL7Mw333zTULTtBFas6dCI0ZfIVK48BS118wUPuKtZZHu7IdemKl/c/C1J+FMUjYTNVjhei43+ZpPG1WyzVApScNpEbqUOqtOeqtTQj/Wre49844IcvlSztb5jpDi8+kiJY+9C1XjJ1SM2H2sG8cbcxfM7UkRAqNnvXJ93zlPktrhKoZY9z7gIrny1RHMRzX3OhInyTMsM73oTdmVDgpwun/z8vwTFQWvoD6vziHW6MxQZ/o0dRo2+lZ1JwpNteLNt0QmctW/826N9NtHiNj9hpLaMtSjfV0yKKAbGOrf6tVuqUmMHgy4/ZGJjudCitbBYXj/KdixMiNft8JMWNqUYZmv7VphoJziiyYD70e2qo9Z24fricyyL/ZNEDAGl1ki6uX/WBkRw+Hm3X0cOwCC4WWNJIz2HHj/CxFo3UHFqVsV6+QekQaCmwOnWb94+hxrA7XPzdLdjz0i1WL55Q2fAwGYs8xLuX74G+xT5t7XJXRdRZB3/N8RYR2uqUeRX5KDqKxukgjN4vVOpBRo0bF7ebeloYujdc68Qh46AgSvzwSU2Ww7IhYSfNKIIxJENoRDcWR5Q77pqLjgrPm5fbT7TMDbvTT20Fzo09jEnDTFxEAKIkjt7wetKsKfI6/EpIf2HUJNjE0IvrsJB1fr2+kxn9+Pi61CdpB4fAwViT8sitYBDsRjSTR7wMTurJGSSBrwk7UVdpfV0KxT4kJoLfM7sARcyluUMTYh+XynUHPpZJiy4SEnqKzOPYIEvRRyD9UQfclMw/7PorLQsEsZc3L6b6AwONBMKrR8Rx/s81RYcZMLSVL0Y2rhIlayEMKUWB1bG9a5tpIhjp4q/QYy9lIKFVEhKoOb0wIO5oBIaObaKvLbi0EcEJBww2bWRTokQFDG0mcceMfbVGryvJF56OknhlMNhqd/RP2y3qFeU4hc2W8RBgnXMtl/0gvawnR76eDLZfxkUPfoCqrD55jf/Srjbqq2CPO5wv90I7I9kSvb6Qz6VChZsyeT9JmQ+K6y19rsNHhXU03TN6D3ovfkP1qGY53dpwH48v93U8yAyCzPXjaGNMAq7TNM5L6tESIG9qhee1jwg7M3YTkbmiwNF3rga3defaCqhgIFVmBwUhyYyNJftbOPlaEOoztqF918EWopMxlvM8hRg7PfEwgrnBGDV5WsG519EvRsijByOl6M3pJCsaVDG6EEO0I5aTEeRobk+g6lUKx5KZYecKNO2AtKCrtcWR6ryIuha6QQFUplawKXrdbhkODSKQ+GSmV9fSoSR0SGLvCPLWeE8gJ+oo5R582J0yXyF7/z+X8D8qJ6Jx0Ef5eq4DcpA0q6VMkkPoAEtdslE8Ttpr47lcmyqjYngtlgVJjZaoZBhfcjrRbsylWdTilyl9Egmspj1nK7JUzWn+rHURXodeoRqDLMAiosodbr1kt3oDB/+CxOZhzgTcoNXy/Bm30pz5CplWfGpRqA5YJT5aI4OlKgzqaw4x0IEuay21VsBJNhm9Sd/VOGm44vqfq2X3aYAU2qxam0pL4SLoZcN3C/jA82FmNEEpdkOAQFJ2US9PQV5ZvKhX/6n0Z5pNOXSAfdN/asDIzCVy//hDGepz6ZDxOvAvBDQe31ARUbORsKkh1GzHaI1TarlTC8O7YzAqVwr/8XBiNoKk3WYtBCytT8Uy9MhXr5WYyZ9V+tdF19wuGyUnyxQT9QbVirvqiTEsXcmKocDYq89H0JtJj/klHaA2GNxJLM906Dh914fcc8NBQJZHGepD31gaK7CcrOkNJaxB43Dov2QtEAzoM7gOEvjq6MaqvVIsdwZOABCFmVS0tFHUJsqD20f0P871/OAZU+HRA1bDLeY/75bBe4m6qNxUXGiCZwxlwlLLv2cWY8+rSO6++z1WYsiL8r+SwRWnF2ve4jR5mT2H/Xq905fEHsqqpa9m+DjgwclLvBbYjMnk6qNhGh3GDz6PZrRLh//r8OYh5RMdpHDJAtwS1iYG+bx0TBQ79uIAOvrG6bQdwwCk6+Nh2mgPaHqgi1SuDUVaOZVLAwoIUih9bX+eF2appAxSxVp5FGiPU7HzGcgT/UjWw/zcqpeoDnoPP5FwhQl3C00+vegOCjDzAoc/gbZNd5TS2k+43RMolPC0rvdkP1sZzzTlqwP7GyDFizVYVKAP2U6exXHkznfOSKB/BRll3/OE5aSjdexNon2x+Yz+mBhc1L7LFEbYpxGkdV+iheBO2KxKpP6j1+Eieh0Poy4STZWDsIw7NefIv4TNQc+O34/87GJsDqdP3MIL30HQNVlhkysDRyAocXnhvobpkogV5+bYOh0Q7ZGOxTXg1DvPdX36fR0bHgLiZUwIg5CjQKr33iORQCGYbMTJv7jG3vnt6I2EIXxgoYJU63BGGZjxokrqZq/ZtRghKG9GgQtS2CDhdzsI9ibPkSfpy9YhNLSYi+2HpjZ1u8BcpFJZuac853f+YN6eYycuNTQ4HDRFp8i6iaD9pXY9DJmQpuB8Ouiks7jbHstLyI3OdOlhbg9SHlDMg2L/FcVYX3JqtJqXblQpUu18bu11pnD8OLaPMz9LnUkKTSxxXYmU8RIeOU20bLKR+pU9e0M01ydfj3ljZG/BGPi68mUUgwA613XLuWakOu3JaHHCqBk1A3xkk21yNy9GQf8CWfdf8rJsZ5VIjIBWl7bhbmXXq1DHNYaLM4fjXX9ik/8k0SLgQ4rfj/2G2mUFgBxyxVPcaFT1vemywaHWERmqVNx6LJWdcwFSSwQbl/MmFtqcIZtMyKdCiQKvltgIdOx+jjMHqdCYM2JgM833rmCm/kWhNtnClrpQI28mzfCCcYg10sf7Y2NBmvefhszShKASXpnBqlozPxlpKj+Z9m1LxqsmU3qgsbx8kCGHZib2qjaPyD1nR+rgkeR34MZd74e4nd7T30FeuDtv+CXMNnmWeUVIzpWQOi8bl19jLB6cv3rQL7nUEWEbnhcylD5dt8exYcjhiKajdLlAype3aS7enP6iYV6J32t0GVG+rYLFilssIM2aimR97vAYGRx14EyzM3iM7le7UD4demxf41M3x6FBJsbMDrUauJjSjK1mY/z1GmHwF3jeknFkK92MnfLyglGARiA534UGMzc3Mj1uuvNIDMRTjVr7fhFq80hkkkXNAAyPlJPaYPYzlseSA35RHsjH6TSUXCrkkb7uc5I9r/QwBcHs7Ahz4/kdIgWKi8b9hgfnjzQqGlSRQcyVLn0/YXzwclBt4khWn7wtOVo3/STJ1YtH4zPujrI7HGKTwZsM1ernxucp+rK6q9nHudkCBuujAImneBO1WWk09sYAgejV/+S7Nrnjgns2rUWhkRTdV0H/czgbDoBPW+6b79XqxWpdR4KaGQW6Hmzzt0buf4lqD2LqdDC4HDR4Talwkh60H/xzJX8UVXmozUxG/kITcyzR3O05IEqsu4gdPZ481njcP5vyPRVc6rAwZrbxJRivlP0qvoJXjoBdB7drn1KUaKoQazdSzk1wbeJbeE2T7GGaMubfnffxM2RFDqWMFYT36FuDu83eTNzGx6XKrJeHavwGqeCn3nbsjJGWaCEuPJ1HKAGZ+oNJbA/ht9wMoMPl7YzItDzq7swsx5CJMQcvm/P3vlImuHzHgxY2xNm9sOKCBlcnpiWcPBv7F1LaxpRFDaMk/FZxTr4moxRfI5Wo5lBC0MS8sCiRoQUJaHtQBdtMbTWUncldBXo2l2kBFeCsTUhhuyMlUCgSIiLrLI3FNNCImTRJKVjaeljV/Aaa/P9gY87c865555z7nev8OfNTczFsyfHOV0GIWXDUQ0lBeAW4pYkteoShjEhuQNGBQYg9yalDhW7Oao7nzVeN4aRubC9t/oGUq/ChWqATKeIKQ2KKqjO/ygdW5eneR4QG41ObxGg6GWMSZHmGRoFkOiyEKq1Alzh6LEGbw9CqDfBNFxLPuJ0FYZvI0HGJgfjE5DSwETmHJ3OhCGZFQliFkDHFcgIu6Mqfacz4XGfLRoRGHuqiMghrWjAfQNQb080oGCeCjquhAz5tASBUmByVZGUEoRcpmSn8xihuWX0oKxPbMECeFeWqK7wx9UOjGA8eU4XAZI5EJrW6kF5BHfAIPALOj3/4DMIXIgF2HFFqLZhNK+zqmGQjOK5MI26t1oG8pogjpiAKNj+VK7v8HA9qQ7TU61L2mAgEg/xcFz7F7rB7ZIIwFW3gWUDSg8yh3jkvZWf9SKSThjDu0q5XmZ1jWBA34MZdvhDAZOyg6NhXFIbIXCg/WG5hXjlsncyiggd+DzTY8re18VWN8EMgXSHmw5shHZ20uHGvUgwqAKp7M31wQSh6GQ9GSK9GBExAQ0TXmTUb+ot++5JCCk4FgobOV0ASHdTrnfM4JhfC1b4L2lCGFxhoJQyIXCv45KSQa9nBo/DTqBnJN1geMqP3rAb5aQOdAX/yXo6uenQ4FOYZrAbhP/agmvD6aTZM9NkELCvOV4buIFhqNZ+O0kKQXehX77eSGcL2mY8DpuBXh1ct8NxjGcw+6Qk8GOLSCdTqq2ab49GgbR0SG6ZitNhp1op6xkj70lAEgfO0Dw2nkuFl9qVh4Ryo9ei8IdiEYFDDlT3T0aF46GoG9fa9RIx0IMLV+zzemx4JBqIa9RAqXRyJxKIBjGVYcgoFwJkgm49z787er9cPjn5dJzJr3N6AdCtjexRZqu6d3KyVyzcHAfnCdC9fKbI0pSLtUIpewdkDH75Ov323cezg/2Tk2YtuwGu4w29uFfaKp98+dRczhSyG7dALkokZlNCE+wPBSO8IQlIJq5kCGaeBt0IGyZkwm69QHsF6Fm69C0aNWuZTcnwy0sawRmW6O2GMIwy0bHpiSitsrTiMAcEuNJByhOmQ7N8/ghBwzaTVQ2ISUQOmJ0aBeoPzY/1zwZRjZPSy8DERp3EaDfw/KPT/bNRxsXTeLx6OZiq5Xq+9PH92cXueWMnl9o/L7JWk/znm2Eb+VJm68Pu7vnqSu5z5WB526yXgglZD/ObmfcXB/up3MpqvXpxtp0pJcEkAY/Sm4Xts4uL3dOlXGqnXtximcDMML1IZ0uZs2plJ5fb3zuoFre2Cz5Qdi7XDxlsPFfk1cTkxCt/K0wASnavS/RejwqLTfKnRwM0rLU4jPIu6rZc4QeeSFk7/2599WZxuWan9OQlnMWklEkwRQRj82P8vr6+sSgRp2GTGkRNQjzoVMwxxNOxfpZoeiQWIvyIlpICYBIm7TZXJBSdn51kudg9zO138awDAPxAJDObECwSmJ9k18QfG40GmDnYAERdgNTXjs8bp6enh28WU6mV1Ua5eWwy3/yne95cWWGryi7q8PAwkWL35cpeuVl0DgDYmF88LtWqB/XG6VIqlUqsHVYae+XjWin9pO1M0PDmdpFlav2oRCq1uNqoHxybvJJr7Wdaz2aWq/VGZW0ll0otra1WPpWbM1alsP3J8DXy9g0Yc4dio9+8d3KUYDDYZARQIYV0eguP9hOxib4W0UiMcE+xYaLrddH/P+iU28sHrPOutcJRy/j2yqjC3vFHFLkSKxKc6O/7iX4+fzYAD7V94kJEUrbICMv0K9dYDPf42r2zQKTRgL3i/8bE+sKUVi1rdxgZVjqQEP+PRU0TCm/b3yN8mD86qy8tLi48uHv37v37DxYSCdZyKseZ7Abnn8W9bKZaWVlMLDy4f5dd0sLCYiqX26kvF9Jt7lS9ePj26KKRaH2+Ftjvl2j5XaXIVmPbHO/Hv7J3tTFNXWGY20KhyJAO6JBPtaJQQBBHkZZLW2F1xcJNi4WyrqOttHOYTbrsK8tC+LGQ+GNZFn4NspH9aEjAD8hYjD9AcSwwIgZiMBFIEOP8mKhBgmN+Ze/ttmSItz295yLU8aT/n55z3u/3Pee29j163NIEi7J7TgrWRR/U/ADnB8X/qX/4cbeLpvIsy0PUMX72THwU12ZkQ1xOiK5aIFgi52AmuO86REbFZ1TWPsNUUh+b//F6IramcKi178zj7mZaeT0K5dGojqdnx069WIO0cWdIJSQQz6KsvgZe9uZzauzha0A61TImoTI3nOOrmRGbt4dKwVc+A0Ft+a4UjtOjuPyQmqPLt69YV1iRw+3A1md3Ri5fdVsom9qoNwH0RrXNYm84fuP2+bGPgwITb54YfjI9AXaegkUBjGpYEziy4w8et3F7u/mLY7O3pv/dPgC9fRQ4TWA6/wO323dwagYOyk5TwUGZPSf170Ht43b72ocvTLth+2xqmkr/j0g0dN+ebNvxI6catTE7pLT+OWbiaGlYDsdmYkdFoq56uZk4XAlmIqALDi8ZovtoObfYKZtHo/6VPhdI35lTL7BJ/0paLsEAVQ2nL9VHp4aqGJiEuiwurQg/KqNOyEClDInnNJPeLmVgEijfyOSS6cOhaZfLrjZr5XI5KadBkgqtWU+5fuvoGgvMoS3+iZkbriZ6UQoF6QAo4KfVmNROSMXm86I5ZHrnznRDs1OtUZD0xolEItKhACo91dDcMTrApcIdmrpwvMlpM2kMCpKUi2jQB2W0uDp+u1/BaQDV/qirqcFi0mgdcrmHSU7S22dzQiw8186luX81PbeMQaOK38jmspgYnJqsJBhQnrFeTFwz2Jv0pNvlpPQg5rTgOUgSVFir8cj5eM8pfAJUeUmoqSUYIKitSeDsyho/Lj+5TsBEVSzdxN3YMbyIXy5kYhJWxabHcMUEV5pzVUxMJcrEbfsiuYqC24evuS02vUHO+y/Eci0YLFfnaEYgXnF+f/bJg18slEkrEv93TSIFrQfN95PzkyK4cmD9jy7fsFv0Wsmy7VPbXeNn2+I3cKXYJ2YuT1hAsUUS61Ims9rZ9LSSw/etfjr55PYNu1ojX7ookcIMa3p4dz49JoI7Oa9UEUyAz75y9vRocFzarqOMyqvaH7ZGH0b/36ExKn3+ARgkjWKJ9FklCjBITYN35wZezHsxwUlhVcUEM4S6hM0RHCVGWTXVAi9MdaFc3Wh9PTO51guToKgm7VWuXrkMU5Z4YVJVVcRFclRwu3UV8nWzlhTzlkBC0olYQ+fTub7ooADDu7Mjbo8SyMVL1yQiPY55cPTMxr3ceLCLCxN2CyR7It6y7YNEzNk5Prf1R240+/MrfzORzzCBYzbQB/Vwvu8njtLyKfDK4CuXMckVGj0d11wf4+rdn9TwKiHBjLLyMM6+2pzCHBN6qom78tZ92FrAseFpT/mElPEASyMoI+WEauIA1JdXHBEHNoFoekOJNIOT8nNE0vZK8CtehTM5h5PmR0FOcr1XJkF1Yn4MJx4sPlwHTN6opBWc3BLfCx7Mood6EaQry0wjScf3nV1zgZaHtc5e6DWaNKAE1mfXJJE7aM/Scn2snZORkf5bi5TaZCA9HmyZuzTb7E3nejgJARqPzSxSHq/McFB2V9f8SS58GP/g0E2LzQhMkucyQR7bzdH2RW/eVFVCeEMxvM4QycksfUputXeNUobuCbhY7eUDHzyY22LUOETLpM8qIqGKAso7OdC64j4sOC4DCm7eUZa7PY6LZvC2I9WED9SFxnOgBhv2hNf7WpQyMZ2DPCxy66Y6X0zF0qwkPr5h/HrmAaU2yMS858JKamgflpEaUPc/P5w9P6HWypkWRZfDnC1nx1ob8fWt/dFV2q3Ins8kc2iA6W5bezQHbvnONJ0ry5/PBDmf3t5yf+4kBxnfJ7M379lMBhEzk6VhcHKggANzlZQg9WkmpBUf429fRFz2kWIfTIL6kJfnSZqAxft3LlvUjHJulUNY6ESI1bCxcZtUQPhCdW7a6xx8jiSx1ieTsD4Dv/cRvTWkDmFRsXnB+NuXgLB9wpo0fCvy6fA1GEQQ8ZhgdZjVDc13E2IC6KsrkFjeoPQeHWD0YRQY4R+wpY//yTAU7Q2khIlJRhrUzo7bZ/BHBb6bvWC3aRSMJwWdAqOzuWuuvRE7AOi/NaE2aRmZ6C4f5eqezNvNgZmA2p4vFFemxWFL3+7MQiXhE7qEuKB1rCo+mbrspsykzKvyusaf9H0QtKLYnV5aS/hG8Vs5uNXnLXtijyIwCWu2x/Bxa+kJ+4UIVLow7AJfVHaNCoGpqHAPrhH+aOpmr83sEHsz96cp18PRgQCa1/ryyqJdbWB0K57mEfSOuib7InEjxqlrFpuJlDAzSUiNreH4dWxv+fbFkQmb3iHjMUNugIzv3FgMrgf7cmbRptfKvWwfqaW3r+dABPYs4lvVhG/UJuYXYBfmQ4oQlLcsd1tB0DpWEW/2L7hB+sTelBfqDa5zbcdW1IdFpsaWEChQhqZGYNYHNh0VoDDVHtmJKZzB+blIixLqsN/A3vOWCm37QlIxy4j9I261AeY4mGEFH2Zpfjh5MmC+EQgz7hSlARPsVQ1MkIe1xWCmLP03KYvJwfMGCQxAOJvmd3yBx/TewoTFpBB7XRRpMDY0n03HHF06OLRIGQ0S70xak73pflsBrl+JVRIoqI7dillKjNlUhcQkeCNn/Y7zaqIVGr56h1fp8zQ3ms8hvK2OJTA6AgnCOszMPSq/Rogmm8rwvC14HxFNVhFIUJVmR+IFp2FKAYHmLVO24JURb11VayQ875Bojc7Opz1RjUEBgb19T9xGA2nleYUcGjqdZ/NfxTuomQm1GfyKV8hIhc3VFfYxHyvWuLPYa1LIfBwUaaBc90M3Y5l7/uzNXqOG9M4Eaaza+XB0J9727auoQlTe8ookvBuqO6VlBBIOx6YGUMn8pcPuk5dtZoXEh5zTzY3xwpwVPKgNmagCQwhKsb6vFLxjVxEqU3kG1uvXcSlVBCKqQ7G+r7Q7T4rKJEjcF4zTX7m4aNcreL7g0PQ6O0ZzAmTi+OCjq3YTzNL5NPegBvN9h3DSvdnLTj34Fe8Qy+Qme/PdH3D6z4dOjNihtmf1sSYRabJ33B/biBMAHBxxg1v2vX1mqnlwPh7LXGWXCgk0FOemYzXetoYgGyRlSgCVzF86nLjlprQiK887RA4zNDd6VrCUGB+qIlChTN7Hx/ArGZCvIEJ1ZM8rOPq2v5hAhS4rDmf7CmuRmQ6H44SnF0cuGaHi5gsyhcYGUc+BgCglfjQ1TdkMYt+LAiPc0tXWjqNvI/cog4znExKD2jV4vg+D6XO4uqfx6Zah82bodQ1e/wEnALhzDcJgke81KfRO13hbQSPGzcdkdDmvDj+AkVu+nqFDZhIeSV+frF8tfHflKrSWfSqvVabQ25tHz7QGrRC2pOgIZAjLd77CnmnnEQE6VT1GNSIiKaQEnamsNAejvZdVhL4o4eF0jJO6ck+v8dSdfUc97k7ltkC4HBZxYsFNmUieb0i0eufg9YEI9hMWQxM2YEIAaba7uh9hdMOmHriNCjEK02mLa7AnGiOqudCrRmKih0eaJw+wL2RHbSsn0CHNehXjnSBI95BRFB4VtI5VwXfv/ep55QYlKrTB3cSVemmKH5dYTKCjaNNm9jO5YVUEOlSJmRjF9FICHYKirAjWNjgmVOAP1Wuvsz6oj0Yos6cO5jvq0fa6fpvbGgDdsENTN20oWgAgNe7j43OsAyj+ewuUUStDYRKBuW+aZF/3ePsK/dYTCpNMa7Q3X2c//LB3CLp7IhQmCcw2N53L2ojxLEeRP2aiMJXP2lmm1fujUfvz1h/8XR18/vPvNmjDogDSMNfgwIdBK4KCbB3hB0pq8tkq3Ia8UhWBDmFVBWtznxRWR/hDFZsUybbokS0l/EFpXjTrkts1ygB1ZwRYHaftHaNja78b1tg686ceLuWiACbrLS1nWecRPw39oTaTYnRzn17A1i1f/JWCnhsSk0Nja+pKiGHrlr9eoPQGpABALP/G2NA1f6CRbQUlTVrmj5koZz9Yn7dLRfiB2opA/ThDgIN/8ddLSOEnwDOV2LNvZYKN1NBawh/UhrJN3OMSGJ57YryGlrqF7YAKPKbtD/ansK17bC70b/sOh7Flem/knlrBQ4Poe7drfHLt3/t8u/8m/VwxEiSkxug8l8LW3B8buWSGJAwJcoWebiaynRtdALcst6Id1Lcm52DlHrb3Sod+h1uCaEySb0+7u++OsYwKgzdDw9wfFLG+QBLsaZijo6Q0M2gdq4Afh+6ZNCSiRmlhomM0a2VqvmnlQsIfCHLZPuW9A6Irv1C+nWXdIyZB6R9TbSLb8mjmYYFfTCXSVNYNFrVJxEOD+JtLv7R0Za75OzOfDy+a5DxEyBRmS3dhHkvD2HdVrRCJEb2lXEN1KvPZjo1cM2pJMepJaW2d1dtZHtRnI3+atKiL+uqbSy1Pe07x2RUb0iv9lPPSbLZNgFgh4ReUFUHrePHgH7tlMYusiLpLao3Hu2JXZHo0MqyM8A+Ht7H8I/lSgZ+OJfkAuzX9xd6ZQDWVnQH41ccOAgHZF5Fd9n0XMGxhU0EEwRjUgEkwQU1iIAkpEBJBwl5WCwwFdKCt05ZOKQp2FjqMSqe0apW2Qm2ZTq3TdmxH69jT0/a/LyCxZXpOXj3W9vifMyNPOO/y4v3fd//dXj9Zu5X0zgSRzYWBZ9JKkgLJWdO0u188DJ2lDnWPjvb1UdyeSWyztrY+pHHZ3T06MX/r5Jde24K95MJ9dDmHciiCmG+1NpLE2o3STSHETeOhIih9fe2p584WeJJ0w/7+4GHKIWvi/hEga2tFxMT09fWtt2c8BCuBQDBR781ykvXn53bucFu7PQVuTWTqU1YlgniqQxGwLEh3RPut03p/JKlRNz7LISaRIUGf1/ouiKCstZxUP09fd3d3+62jX337KzXkDoV7yrTc5yf26JBT3lMZWq6k5/yqNOy/IKx3fnr0gDXSJtBNYlsjgUtKDFxZP9Xa0j6Q9sHBT37z/h9ex56/6Dg56m38ps1KCY7bcNvGG7iSO13ZHXs2XcMnzkpfP6NAjdDsrOPBVvpFxfHPFB376ZDiSmCx3jNpgMedrayci6ET7+pSwfpWwY7PTI0mexB2MlpdI9NRH9Y4rn4avYIMuLBKOZG8VtN8HH03v1APvrYjBZZyztUj+6AV7vjN+rqeuvqGseanvqjuuf6OjpbGtSrWvt7++vqOm/NHTn8aXo691MKeubfvQIT1jqHrDfV19R39Y9UUt+bO/jq1wFP2d1arn6pvrqO+o2Xo1oW/vfkdkhUsu/e5qS2s0vH+jvr+XvTR7Whs6aiHlRo61xJhInpb4Bdp7L549O+fkkvoqLh2LsdNzRHi9nDv5sb+eiR18B88BixNGb/eUdfTAwuP3zr697e/YUkKy+DJgcmgo3MtHcSdYVes7gK3cfQUndWH3Cgx42MNaMv09w7Nv3f647dIhahw+6JVxUzICDbSD85Avod4n2C0q52tjPStUnwSiWnK6DqjLJs4f5LzY5tFZqFQmiPcFG5tFRwcnFGGFLS4SF/fuWhXkoZe+zgGE0qdn/YqoePFC/PaZ7tzN0X0DY11EMrba004xof6O5DmoveRdfcYoV09SOqW7/3kT195/hOcwUGQ+TnRIRs/e68NTfrEFD8TUt70Z/2Ihfn+9i5paQE2u5IJrNgE5bmk2QemFGrGhD1JBY4sfAueOQ86+7m6uHgE6oLeEbSxy0tz8Yiy0zQKk3WdcDKw3J6/2lt/b5CLi6tHgEGWmvIBriBBRgWrhqtNQBp817sYPRw5Vxhr5v7u/bE7+ubqxFwOhyuoHateZVbpXIeyra2rX31NKZ1okIrFTQ0Th0/+6Mffxl5moVbcfZKT6uY2cX1JoJKp2pQ9Y6PdvfVK2aqIBdK6zmbiNDd0WywW9LQ8eQ+GbFmSgeWVD3ceWI1zDS4q21TKhmZAzMRiV5tMxuHI6xpXoTPeIFW1SVuqBw9+9SNQOFJNwHbvXw3etbecF3AFddWN/VIuV6YWuHt/o/XodamYA/+OTQ298we/9O5rXyaF5UeXD8DI6SHiIVQgcvUuOOQ2fl2qUinrO6F6euJ6lxztGGX/3Pzlo7/5wesmpMosfdRns5JgPw+ntLwA55Lk7GIH0CMXV1cXWydXP4ddyYbHrLxh13tsJ7Z9ckhQKKkySyuA5Rm7IKc0uDUojUdeILS/0yvebp+W5mq/12edYcf8w/O89UGlCtxflTe/cKGqiNg8ZWixViyDF5KyoxEFXIcXlWK0ybv6G+F7l9pUSL04rRwZV3733b9BXedzF1ubMxu7so08Qk0s/Qs3St87s5WMxRK9PcRQ8y4h0E0dB+VwITLtj+nnWcKlTpi/j6HGoEhdMmM2TdI0exaC1gWEwUJ4tFdwAjIvM309LOGHjPNsSjTbjmwnkzpibpSgtkytnIzR02z2QlHvQse8UBw3wUPD4Qp91zkPJQfiZp4+KMK3lcyZkffoCUyEip1YVAoHqFQaT3yppVnNrPTFJk4FT1zXqwbaxEgXRyjk1HXvO/rNN7+MvcxC5169DENCRocfcCUMPkukENeNNY51cQdohLDpTC7ABLWxGF9UiuiSpo6pn73/EakKSdGjT/blqnOjBkcuKZgibm31ppih610qHp9PpTIF/dUEdGJvSmUMprihevDwyXdJfXw1136xU70SpX2yh1tBl0gbex+KB+ChWDQ2m8aAf6pOys3a1gE2lUpvPd8/fw7ayJ8iV5CwLxU4OfKgjVnFZ7EYvEoxoBi5b24+kLFEsq7+8R3t12tlPFiXzoGVLh+88NE3SCgvvmWvOsWiMMVPB/a5qfH24hNnbJAe4ThOHIXt4+LjU4LMMdj2YeFFhsgTQSrzxnT7LgCWT1Q0rl7ZxMR0i3+i3omtxqboMs1hl97aGTjYVsfUyfMYfFXkhb2SFyy0mc927ovdBIclLp1Gowtbm0CFdkwsSBUiFoMBm29sU9+InMdgsfhsag3se8XMT3/y829gz108jidu3AzROxRFrwo3/KaRBRlY7il7ZoE9q3Ta5heXjGrsVzPAXW00+gDrOQaRAMu2cB89TWvP22zVkxmYkg0EsVsdjR4apJnjn+W7mYwfUY3lbMcAnac9/wv1iiNDV1fcjoa0Jxf5qa/xNN1s1AQ1lExC3b2c1NzYdHgp1qA78ZmIWUhiAABCNlvW06nOB5+83SbCaZKe7v1H/vL26y+1J1Ekf4ymT46OKHmsqqoqPoMprx9rAYQNAL+o8JQsjhIQZh0zOndJhVOFgvqpn5199wevk5kKee/gamuu0uFlAYPPbz1fbU28/PnlOGr33tXS7bYppn3ytkqEMWSAsMsXvvUjMmfGgd/+Zl+6GpbD000VbFyorO7tF9DpdBaNik6vdC4Ymx0COnr7U0XinqnLMPySTC8Q+rXPduYeAoTVyhgYTkWvEXE9ICwiZnSxiYmVV0obxicm69pEVByvqRFyz488OfzFb/7YgkyxsX42sc/zI83X+uwcz9zrimtMNrIqCPE1x9Xb3jszGTyJVmQi2cYOiWg+rOZA5jDvwsK1e1m6GCWspZV5g85ZBJ5AfvpA7JW8YOHNXt65P9Ztro4rhM1HpQ5wzrc0T0wtqRj8Kj6/StRW3zhOIIxQZQyvqhT89FvvvoVjz1uCzhhuGO8KJvLm3DcuenY8ZUIClsGaPEwwckX2EqENe+MTy/Yi1cDRHs1z1Pg5H3ftwQLg0Ay6Ze6Fw6D65ub+x5INrQgbDBEn2tNH44n1yXA574z6aYhBajh6HIvIkEL/aOI8iaEVs+C7UWtFZ3hAFuh2iDkZp9Gv9sXGpg+OCCogLka87+X9yECJGB1p4rFxqkxNNLf26ZnKcoylqGtOPfjrP333pQ4SMGfvw7C82KHbKry8Co5ufKqiqaG/RyCRVFQIach7KpOOgb+vdHhazsRwobx+EiyWH5Eo8qe2fnh0tTNH7EhTZTlO5Zyvdhu8LWaCuvFxrJwhuzROcWsfnlbycIzFbahuv3zha38hAxbhD6ER4+pKS7JyALWyunpM2dpayeQJaxDCxHXXJ6USKkbls/gsnnzhybnTf/mKKYmg2wc/25kLVuVCl4IGt62okHCVDdUoHjH5QEbD8Eplw8TkYpOECgAD84+uqpvaB+3+nUggLOi4um+pw+Y10njYZBj4bTY11dExIXQuPNjHKOpp8sfWM8jPEkAmsqGLVipwdzLR2aaDq6NjW0uy/DavapSJn2O2OlhvZ0uUQZ9BX/tjr+QFS+vK4Z2pseMPm+jgD6DTqLiQ29M7eRUIxgdVruIzm/o7J6UcSQVPSGeDhvEr5ffOvv/H5z+L12/j7khZ6jJ+942zFYs9SLwZvZ6ZwurjbYGZWITnmZtCcXDWsZDtOpBHGBBkDpvSQANABb4kwGLuGa85jiEqFEZFR0VBTaxOeHF8sm8YdNSI2uoEtAzK0OwFsoWEakfFq8cWwZBp0y0B3tGolZy+TzgOKwbsTcMxS/viL5QEw50323uhScquwSXw4TqRmRNyLgfcXMMPuQMYjalQwFFHBSdua0oMRIlYOIavIWx45Q0GRiBscPdX//SNlzoYVrkyv+9AbvvNSwq8iieTVTIwXlt9S0tHLYhUIMEwRltd46FNMYOPV2R8hLCOyctHz5KxWOjcz44eUCMsfUEFHxAOVljE/EornSpSzLzB4IPG3RynDE3PKqjopxsaoSrh9FfJuD0kvzi6v3R1pTYeRiAM0jkgoH2pdpZTUzMgaVpcWBSApayQyZgshuzBY0ge/b4lGYSd25m+qXRwWimh4a2C87U9kKTSvInw5jBxDAMrbH7hAZeODbRyuRIRv1K5OH/k/TddSZhGgSGEjhRFoQHv9mlhGG6xNd+n2MjAQNfA3cMEddXOz0QN4bal2ZvpQOfrYj0AXiSJIMApZ/Xo52AbAwM7T69oFB0zKsmHIZqWTpFROqBCBoXqxgfbjZ8iLNkBeyUvWDi3d+7LnZgDrxDsLzG3spwqaWp4eJdZVcVUtd3hVTFUl8YmWupqa89Lm2QiPp+hWvrwwtc+ff51Pts3nmGX70U4uzw3zk33ITOkJypf42bJcVBcZhEQrBu5BQ+N8smK84LDllF+cQAogf8ujQR+XRJgcbLTeChD/S0m4G4odjRwAkXT3ZUUiTyKjokOxpill6PGbxTiQkK11R9fgr4tYX6dCMeAXf5WW9ASIckO0fC3zl8IiTQGgMcVGZjB8dQXNK6MzOzBOwdzIBF7rh6chq0zV65UMqiy2k5I3oi92aUoRzuqh0DY6NQSk69G2MTlr/4J+q2/xKJYns9Jje1u6YLwk0wqbWNiPHF95+joxPD8/P2rdzAqT9nfHAF2xvQssADnyTuGLh88+z4JsFTMfHLkQAyRsDk4XYk+L0AYZX5JQqcplD/95RsivqitfwjiRgoqAbyOxvaLl0+SQVgN51ersISVFHzkcZFWH6L0jUJa8ZNfXasYEHJrpwAstBrJ7NKSSsRnyh/OH/3a941JwPLeuZxY+HSW5RU0quDq/fnhUVQrYB07fLuNgSGE9c8D3tg1rbMrK4JKFo/bM/ne2T/akzCNPDMJbfS1xUxtt1rZwRnN2HMtaH3GIBr2d9EJlFRh7OJgtN0MM3XSL4RgmDuJUeseGjoJvshwUDLvjEJH8HKk+RY4IhVyiCfiA1DJ+RRhhr7YK3nBwl3elzM4cVPairElytsrM4xyobi2Fv7gqy5d/eAGi69QtqTHtk9MDN//8BpHJGI2TX/23um3w7DnLJZbEzfsGWhnbvJvrLBd3tq7wvDtPsmavTnTLPFw/YSEzGA7A8eETJs0zNTVsSDLfxvEc9cz4gEOaf9h5/0kAzMcS7MpScgP0sHMHVLKgiDdw6jsC1lGe+yKjmmgLjNcexvXwj1R3dsjDPBocCIRuT2j3Y0AYadsTnyhyAtMTIPsOKgMMN6amJhQtMdBHyV2nSBxAqD9fncOlFxUj9XVnu9ZfnSXQ6dya3s3UdDrioevIgwKrIYetrGqcAJho5e/9JO3XubeO/gbVy/uT98R0dhS33Wpbnq5SYIJ2xoa3SiU9sH5xytcTCSDhEQ3t/YpMMKQOQMIyzl84f3v4yS6uX2yO5WCjNa+67MM4m/OV3ePKAcgL6bnsw/uMOGQWH99pEcswjC1FdZ38dbRL/1Y+0gsXfyrg7ASLDU6ssSrIhDWjArEdsQOzt+7Q6PBWfXJ1VkFjcZdXlhoYvLB8Jw/8jUSJXxs7oeH98duKp1fFtNxrHVm9kFDZ7ebNfiSF6QEiSXSBoSwgQHx7YWF81wag1M7ee7sp1FU7RPd9xQQpSGg9xaBGfHH8m18bUIKn7aKB7PLPys7O0TX3yYupNh9C2QfWwHCTjjoaH8ojCrWDDf4w73Sggv1jhnsdSjKyg7Z8vSA6uMdpoEw3f+Fltb/V0KdWdiZkzt8UynBB7h1cwsrlSwaVyqdYVSJ5P1TH16ppEkEDX0xMTva26euzjAZELufunXu5EevU7HnK2Y2SRsOgfTDsX8TCysgMfjS2H29CwjsbjszHUvv/GTD7JKEksRsH09zzDgoJD7BzgLDw4OTNWNyuPbxvTgN8hbamOMm9sEwWAj4sjnQKN8eWV8JetnxCQmFehrYzgrQHixb9hIIC3G3wE2iMhINfc1Q8FkX/u8SXAKBPGMs1OGYrpcJZq4LKxQmJJRko8Ost4X201Gv7d4fAZWrzY29vZNTV5c4dDYXXIcxkH9YycBRE1u4cotpB5sMKy+H9IT65r59p3/y5uvYSyzv3LsIg0Ks0UPNTU5NA8Iq5C3VaMpwO1y14hIU7rOOmFiYQZTGRfKGof073zv7lvbvK87SrZ3QitENMtAvqcoJhEmrx6/L6UKOsuHJvSsSKkP1YHpazmOvIqy6L/fikdOvmZGx9w7DRBdUL3NbwC8vVyMMJALyLlZk5TROz9itqzMSNl3weH64VgGexLrBg6f/6Ko9LNs+3An23o75FS4NA+9yJYqEWUe4dUNsETkwcYlSjTChYHFyuL6NRqvsAoS9HaA9WGx1jxGNZQLCMFu7Aj3DpISE+Oy1gV17nAAzVknw/fiy+OwSH0BYqJcjXB/bo30gG7wXmmdlL0tgZhY6VCfEJxoaZpiDvedMvJSsnEzUCDtGFDefelXd/GKFduX+vpzU4RGlpEYo7qcMT6sY1NYmJSCMKe0cfnKXS6/gdhDZxH2QIsVgyKQtF3POffHj7z3n0AZuu+FMkrK9sCu3fT7CTuxx0n5vQoNEDYT5huls8zMK8QnJSjCEBKRAC6hQ8ykp0QWvX57+OoFK4uxNtX4ov5RkDRwDwnAPZ/jCfzO2Lcg32AXCVXZxIT6ZZxI1CAZuj0DtFS7NJlFdeOYdFKCfoIcQpuPkSSDMOR4QForpeGfuccVxW4fMTB+fgmxixXgSbV2//svd+91Wq2+HRlYEFQN0AVReED4jBouKI4ShvIeHAiZWxcf4YIX15Zz8yZvfxV5iufP4QO5qH4tRVF5SgXPOE+5QysRCLZdXxa3tBB3onrutYgHCqICw8QPQ6vetMO0RtnILdalHRdSQq4fTcYSw7rkeqDzr6Hxy9YqExmubnn6gYtHpNDXCKOkXD55+05aEvfdkX7obCkiNSBWQpPIUYW4xE4tyJs6U9zfeunqjYqCiaWRwoofDZ8nqJgBh2rv3hDP30bjmHVN3OVQMZSQKW5Utjd0xo9e7mOjzqpEAnaebwAoTPJycuN3GZku6Ji+fffv73yZRwJ9A5CPCGNVT/nGZISFZJWu6E+9or4NZrIJHT88wy8hrM7aFcDwm2ERrX3rj/UyKlTnyqcQTd9ZLjg/ZamxivDUL9QdI8IT3kym+hrCiV8XNL1i+fWVq/4Hc4ZEmAmERg49viGitAoQwnnIMEMahV3CgwgPpb7+0koW2fe7+nUc//sZzDm2YuFhtkM2RlAK7MMwM/1yEHTNw0d7nZqeZY1HmYGyq4+Ln7h5p5xhvCLlLYRBL2pWYqA9b0cUgUWPupfaN3U0CizWyLLN14UFs7QqTErwtMR17fyOgs1l4QKC77z/1HjnjrrVtBLRNItYoK3bMKDPUK/QMwzZH2SFH4hY4rKb4WUIOYrG/E1yGu7u7exqVEXAutHMiUcV6+IA1AhhlR+zktEAyAOVGnc0R6SNKDpVXKWLjHMImWzjP4bFEDIzGIRD2LRjc+PIK9c791PQYa6KlFGSGiyV0KtQ1qQsFbsslIl5TQzWyZvqVChZk2dPUCNt99jVzEo77izkw2thtdATSG9h0CRtr7aq2Hh/rgBYWQ08e3WCyKpUj1+vbmDKZZECNsNjU3Sd/4Iprnai19CQnHVaC9HwxuCeZOCaUNq9ViXGEEMHs7b64zBUOSJSTg4N1XBqYZRO7T34aZaK9vUcgrG9qtpKK4eVUHNL1a1tG24c6BAwWnV3DRlYYIIxNlT1YgOTIGqqka+7yhY9+rPVLxNTVGSlvUka4MRbmFege6GkQsmaE+UCDbNM8/YQ1hXUOMtcx8dBF1yW62k9DN9OIhBtmIBelJyToE1JSvNUFdJdQufgie8zEMsySQBhIiv027JW8SPnO3akDqbkTYIXB2LC6oamrb7CoEoQwnNXWMPLhldYBIYptgMoN1Yl5LDibdqcf2Hf0468852CYjn3cBgMgd+2N1tFx8tj2uQiDUl1c67FaRkmaJo//NqhjtjTFoSbS+UxiBhzvzDwLspOLPCyhgGw9SzIpJCBU64fy9jHUTOcAH0Oo33GffC9U3+JtYAsqCYnAuHE4WHsakkDCNopyROqlPiSiZiLhJhBtdi5ywmBFx3g7Jxx5NSPhvmGhpia4yak9hH5Cwbb2PrcP1M0lDsXE5i4qK8BSgDffDshG44qoChWThsN+sY6dXBELIV2RidNa65rbc45+C0oJX15hXbmfCgOHCYQNPVSJyqk0AUALpG9yiUvnyS4RnZhGwCBjSCR0+hrCSNhGN65ePADDQiMmbsuZNGYrh44yEpG3r7s7YnTqbqtQJLs0PNcvFZ8/L64gEBYRm7v75M/DdUjYe/sBlpTBhVkFj6l4g4YQ9rRKjMaQNzTHzK9whAOt5ycH0+tVNJqip/3wybe365Cx9wBh4wszzHIcisIQtMT1w4OTXTK+SFExMEAgTNrKxpgzS2C3YzUVXXO3Lnz81pe1VV7wvJegfUuAwtIU9AiMJfU5M9nZXgeVjiSv9dNBbkpLv+IkpLzOTlo/lK1d2XoMwMEcXJSALLX4bDVDPX6Kia+3W2DRtk6biVgYSIjfq2DYi5UvP3oCCGu/KZXAvmrqWL7Lw3GmWHqFgZXLupY/uCFiQ9l+5yYU6pBKGBDwbY4ozc058ufvP+dm9ZbhjhvNOAkyMXYKD/98hBXGeeHacsVWExh6kLexntVnlRkcFAYIK0s2jAOEOe1ZH7aQnKm9e0/Hc5dmjCsF9bmxCNoeEK1G2KmnPouAjERNLvtq/2bUcFmCZO0xx3Avx127gkwx3MzPwRU9Y5BjJGgevnqa1UV0TtL30N5g+WBnqrppUfrFafEAIExRO9dXOrJUQWOpZhSQn9jTG9H+eFbBrmzjtlIHWuuqEcL++jIjjHHlSS5whWiCO7msqMLLWVAPSSBsZEZCVzT1NyOaTTcxeUwuh0DY0IH9586+6YJr77K8mLrj0KbuYQgiirgqrrCmtRZuTiw9viin05nyjtHx3v6OfjD/1AgrTT988ud+llojbBkQZg2FAMtiHo8rvkHHKtQIi51aEdPpEpRGOggIo68ibIDd2jMKCIu0JGPvAcKGpmd45TSJ6s4bQnhr1E5NLcorWZU3WgGSgLCFFajCYEs43Ao2hld0dd56D5pZUbXOsTieuIawVXHaSmRn6ZXY2OKmXlZrup3t46VuElWCLopcLbUf9HdmXSMDt2Gb/fKftjnwg9Vxc6NC+E30zSxN8/xcQsF3c4ZAWuDLPxvv/0sAYam56e1ztZwacFmLxciZLREs/ZKJYSJV2w1eFY4Q1gwntwW5iCFR9kOHApg08ecfmz1nhAWlbIAw31OYeaA3aO/GCCPceybaciVNE2GGWf7G6y5GPysDv2iEMEO9OKg4S7NLMFzvkugdrX2WZYGeZkh4z/qHts3e3WbL+sKB+ZoJvDZpJBCmacjpn4LFvc8kZ2+N1viRDO8tmpUFiaDawfZkEWZNKU3PfSimYzhbCC90FOGgMdtmZaIqzqVeOOe38apkUoGCrUbYkW/99SvYyyuiK09SSyPABnND1W0yVjkOB7hOZJRNLNwQ0qFoAFrLQw4El8aUzdwYoNHlHYAwsMJcTbRG2P2LuTsioOSgiU6TyOWAME7t6hzN3MkuDj4A3TncKPDhDi40aSDs7UBjrT2+y7dywLQsnZ8Fc08uvyFcQ1j61CyHVsFt6N5Eubi8jjAau7JndOcXf+SutSdMcfcJmrXWCMhiVAoe3LvGpQ/Qm65OL8l4ItmVNyrogLDhkYeCCqq6sF+NsAvvvvl1trYdEoOKkwiEeT39JU3NiC46hgXgOw91X4tfoQpJtTuwDCmvo/bz/lDzjTU5FoRjZg4Fa+8MZyIsbro9I9lwlzcE1933eBivISzTPRp7JS9SYPxebvqOmPEOwQAKxKoHsCqnr3JZVCrkRMMlnKcAYaVTy2KWkAMnN2sKQtjzzpHe5pfxr37EYq/NpgH5Vu6bPzepPjFDa4RZulhp9pjehaKxOk6Rfk464Bvw3RsVBtv+mKFhXB44En3XEWZY5mnxHyIsMcTb/FmEgVcz3DsNLaybrJm6qL17LyBDI/MkJUoHXC7B8Lv7aDAsKIVAWHRUlIclKmoB3c521hphNXfuAcJQUviO0tK5+iWBhM7mSB9el3JolTN378oYVYram+3XlxQ8nnJ6VsamVdZ1DwLCPnqZEfadu5+AI9GaGM8wOlKnVPFwpqCh0ToiYu5BK5suru+luEVMPIRn5SofXRFCAosaYX/0MCWBsNTYHRQoq2NXiJeXuEJcobbCYqDJlKqCKpGjRlbgpR0cIRDWQR5hV3OgUACaOqoYIlipTUg4EiHgB1hmsiWCFutNEYMQC6NzAGHtgDBq5SWEMM9Qre09hLAdm8AHe+lSXf/IfXAiswfES7NtTKZq9pfvMFH6/vDQzToBj4+pGxkKpQhhr31dWysMTKEkohTL3hJ4Zh8YtQWUNxL1VivMiMKxaIesdW2Li/QIw4ztixJRur2XsdYI03+KsATU6t7VKv7pdYpvVLQplIeVndHNw8z9UuD2a7GwTHhNvBJyQh5hsRRQ1TpxRU1NDYY4xpEu3odSRxoVx54irH2BOLnV9yKE7T/459eeM8KMA4r/NWPeN9okdG98hj/E3QLjDZ8Xwlz1E/8ZYVv8s4qRfzva3TMcspjWEIZaiq6nLmo/6NPSP0vvGavSMdDCBMeQGlvmeRuA+ll4F5U5wMKbPeP1/jOEFT9loCHE8+CRbMqIKRBRFjo4LEg4EgmERaWkGNkihoaQQ9jvCCvMDc19ah4fmpoWw6uR2/VAxaPJ7j5aAQumUro4+aBNxKhcur8k41OZl6onbh38zccvM8K+fPeTAzA+BtLAYcDZ+ND1B1ycwbk0BuOGFpV0DGVcUiIok0sVdKG87uo1hLC6uUFA2A/yTMk4EqHOsh/ypyRNj5e5Iryyq3HTIeSnvC3n0QfEPdWrbtoRJZMobVYjTPvez+8AwnJjS292VZbz5I8BKxj0SASEHRpaVsCxQ9npRiCsYg1hrCpA2L4L5BEGntC53urm0fllAbxLWu/IUGrK0i/f4dGYYLWOj9+sUzGh4w8NB7MXIewPvmb/CcK2uervikMtCcPjUImjbhrYXE+df6BNiZkGXhge7bDLEFQiKlRrhK0jKyQS2upEhaCV11ISHaOgMCY85bifBZAsy8drG0q5f4Ww/4Z8/RH4NWBOYd9NyCSmQ8vqKj5bdv7m/Egth0ensWvwGkBYb7P14PQNOEyhLtqHAGFHtEAYeSvsuB/YJ0FW/vbbkFmfmbhRLCzFC9d+cHmhZixsaygogXPSMdS+MzTSExyJ5u5lydnOLjqoDnmddQXu2lthKBamKfHFvpHb/bxsjYEgnrq2SE/K9ILhKL8tsGwd0SUk8gT9jhs+TVDZuhlVqfhkq6m5xxtWdNJBCHO3RSUFhSWZUcjwyyeHsHc+uJwK83cax/r7WzrHoRwDFcXLlQoazpyZgUbl5Txx7e0mBbQmkz+QV5aXQ9zo5vy537zcVti1JwfAYIGHaukf6+0eWpipYlV2tfSVjj4E70RFU0s1hdJ9vYldQ+c2zd6g1gxwlB2TFy9fAEciKYS1T3RwITQlfqCspGEoyxfGWw4tNilYwtbzq23/YwiEsdYQ9vMASxIIy0lNT29oYwAJa5s4kN8obuisbu4eWWLSaFCObq1GGOFIHKxT8fkKQBg4Eo1JOhI3VY+1tPQ2dw+insI1FW8wIa25TT5TyacKOdKG3u6JkZVZgaBNxsNwXlcvIGyvufaxsIxE9ckVee4ys7N8jVE/jmzIRwQPh05eHKGwSbvyMwqSDJN8IFXLMjIfEJaivRWWtm6FBbuarh0yk05kHC8+kw2JzLYQVf8He1caFWUVhocGBoYAmQQEFUFGENxQSkD2dRhAVLBB9h2HUVByCAYQia0hhj1WQyJEg3atTE3bLJdsVdOy8liaFe1lJ1tO9dxvZmAsz2m+mxk/eH7Nd7B5u9/ce9973+V55q+KMERYYxoyBPCoputCeWh0ngwk0oE+F3Y8zh8nM5RrnKmTIxeWnSat2Nkh6j9Rhcf8sqI8xoVhriuKtskI1amNIDIhi0UujL6cY5YTCWZ7RyzjkqAB1LyuRQLMmoPawtYoR7eofv4yDhfNJKHpi83AIDPDyxJ9YSuCEk3BheZsGqqjGOZ+G+tBzUFFoi74AfPS42eaet+GtbjaOgJ1mFiR6eDAn+q2PEynIpH9+cDbT2sp0MSJVGL5BaktBkbHR820g/A/183DIYILURa8NZwqDSPisSApKLwZFyYYaq4prytvPzy4p0rGCSlSydHyK1YoFCCqRYyqDpeLDdLaVgVDkthY89PZTyd0LuzJo1eS43x7R5q7yxurQKr+01GpNLu8ubdtpAbxNZIMFghGLsuRCcyWyUrgx0vy6y4fP7vrqQguTUViHDxGdh5HXFYqS+GAjR77+wh6qCqK02Skel8jJqZ1YQJUJN79vrch++6HWPA+xillYsih5ctA7IuOT2jIDL17CKta3g5DnqJncXAtq9t7vH9/BekLQyDxBa8nKco5UJEID7a/vFPZMXKctIDdVSIr3syV1tYqpJgSRfnlfSMgOnn23LlzhypCQsqqDsOFzbiFoiIxUd0XdivqhQPBrXMLcWGhyHaBiO62Rcy5jb/Gzt3NJDoM4njmONyhVjfGj30uzB5N1GrwTGDEyoTPpBNmuS1wTwo0CDJ1AjujO9kTzCynM0yt5ouN1sXwPNwmyzkoQe/CRL4QZ/Zpw/w6c+bCUWis4BaWvG/vu5fbL5w/WSZGUX1DhmDwQrE4BQTAGSjnIBWJb1/nikQL5yUGfwUap3QwF42FY9ClmWcJsyl24+FB0vVoaWboEo0KJhQTmzuYOFjBvajZOThEbWi8qB5ugCWYE6AO+KGJOaG80HWuCEJ4mUbdDjGWjYkGHu634vo37sJ4hS6WFPJ8YVqWHZJbi9BEQcJyEoNiwkKjXOGzFhYaTbfgTrHG3RWPU5088IGire7BzzOTM3L7z8jLSrIb6wcGu/Mh1CHLF5MYNCggmGS9rAR5elBCk0euNLvx2KcTu6h+6lejyaSoSVlaVlTR2bN79GiaNLuub2g3ypw2SUtrKm+CCztTSsakjq7flSIrHz17BLEIChcWK+o/vj+NtPyKmfqGNEVj/ak9+1Ww2VgPMmEGArgwBSdNRVyYaOXdr003Y303unA6OFkkqlGI8aD+3xZny5WHd5+Ri0OKcBplXNgBcGZU/3T8eKeCMFuRikT2972yQ1ckyb4ZHQgUKuQ1p34+dyBbnJJdiyFyN29WTwmQh5/as3d0dPTn0XOtKN/fP3Bw61sL76PsC+NHuy1DyWAA5IKsuAgkhhoEWWPaWzkU8hiebMepFs7TAnCaMyeHuxj8laKoHpF4NXjzDTlc9f4UFu86m2voHs8PMnaGC1uge7AAk3Z8EC/Ke7Konhb0fWGRPkKbroG9e7fvHRz98bE0qWr/qf69208dHtj72Vct4myVcgSlxoc2EJWkSrRK5orQF/bydY74mkX8vbUZkTYdOJkEGvwN95iwLt7jWs6/R8dUgJGtodmicH5O1FIO2JeSsKkbOoevWQMxTZQc8cazbunerJf2VPco3ZtjTrzxNNP4nMDoBRbgSJy53JusyPUGM9EzvcylkD8esqSgfXI2jdE0eLqQWo056ggmL95kmnV6Di9pKcgR7WKScN8zt+PHrAFJIyiN6cr34cIShJGgwysKCcnvPjxQJdsgRR+uWJdwqKxIJ0K0Ia319V0Tu7XZ8MtRtJb076mRpSCuNzzw0yGptKwcLgwsWdJiOWSVUan4rYqjM6jsxtFPj1DQPj12bp8kWe3CtAgpKj0DSqnsDVKcFm/SQNB2SuPCeiP3EdonLoULy0zYt69GkadTTwpPMvhtaV5eNiwRFwaCKXFK6bM//aTmSNyNDrTFeeylaq4EJ0R2Qd2SUKpeHv2xtVharHisWEciTtxSDuX3brA/bt9fKk6rYFwY+9ZmLsJ7ao7EW1A4vJwXaISl4g3Rk0RTsOk4GQWppR4ikGV28wiKdiAd/RvDDHLIX1nCakxwne/AJQ1mahfmTngErEMDVtniMOx+VasD13FjIkKWk63NdKB3YaMJcT6eTR313d01zT3bLyjIqfPUHmVVVXvH4Z++LBErwJFIEgHckBJEOWygxisKvv6tzVxb439wYc6mOdcgoJpmz545ZsY6vi4FNVpGHKflrCM0vo4b56HZnmtr7eHhbsaZ7TLvqqybIWsX5oblMw4P99tw71riZ21LuN6ig9wJdcYKPlig4NHGyzn4FCFLEImEqofDtEV7J6mfQl1nQ08pnL/6FuS1rQ3i3ZGWdlsenRRB+HNWoFjYxZKCYGpHgtC3/9lqaCgqGt8kmlcFFXIUTI/vsSWylhLx2CMoXY7tmtgEUyEfXExOjgObBETzilvbTxw7sCkNunltgyfKa6UFjX1EDa1B2Ypie65mWJsU5Rc/fed5SwpyE9yN+gdrFNJxltwC+ZlzH8o2EIeV6+8jEKpdmPYWxnAkUoQsFee/yUQ9h7KiiDuWyBRjbRMXJlW0EyPCuDcPtSBS+uGFC63Z+J3a4cIoyHcLDlzJRAvawLutBZsK8r+9+BGY6BSqVgR0cAdToyi/cadcViCr6z5TrRAXqGoGMre+NedpSo5EUM9botgwPHHFakPSLQInZbSMiwsXz0DL3THb2cjDegFSVIReIMDEksvahY1VN/JdECVcGM18nDcHBkF5sMbtNtQxL3Q1v+oWFpXDlIFN4kbi6aOjsSIfm8q+8rKSlkblt4fSNqTJ24dPlBaU5O+8/NlJSEA0NucKGi7LQ8RlOwnzaUbvvswtXzx+vSO+N8/n/80/LbGbMWP16sVWJCXmOmsd79pqYuw5M3RofnFtwWqYHeHiOh3Xrukey9PJtJ++aMEU9AQjlDCGAKSuWGMu6vfHUWhiych1MXphUetDHcxRVOE2H4F0M0fTcV8X4wFnyX7BBan/W4YGa9lcBxMj46TAUBdzDu5b8+0hSTE3Sq0XNsXdDSucY7XqHrgw9owj3KdfTY0V5vZv/xY5FqmiulGREqKo7lZ2V3WWH2oFbxHYOupqyFM51HmKcCVTVV2+8vA7909sml8w1SMZ1gzBhhCUIMgVm4nYClxYnQIRxWbM+puaeur3Y1B1rWXkDqbqPPbxp++8zP6HKvvwdGZy29CwknxZo6oghIPAffubHxJmelTC7KyqUTY3NI3lwlRgqheBqf5+9hfz4gPfpIK7uKN9f3ldXaOqBCkpXIWGSeh3M9SgmXbqSNLrxk2RqVSK4rSK7hP9cJbs27WlJxmm+qHth2qRQ1QdqIA7bO0kU6KzvBpD5KIQrLu9vRFMwoqK/JYCaW15X/9K0PyK2Svw2a1Rs0cR7ZOlLu4RZD178HnrSV3Hoo08TUHTnZj2TgvmTkGiatp6nkHgqpvZn3TdPDQebP0iXOo0Di3AyBL7g6OLlxUiKW5R84zmO8xwcEF5IizNCQdDHcgUJ3FDIT4AxfVcz6bhnQhft5SqajdtUnQOHz7RWgByRPmBghAx9MJyew+faeWm1DKK8kLfWDDVP3N9NS+vLafCjwkNjYkJJy0xi5cHGVwDJCbOGgs8rgrvMRUhhoZcIrK8InAFU5BlZkYcWVKOjv+ZRjE3I3T1wlAx4qT1A1MWFobGmDpZwNJsDgwv2qjzz6IonOVtXoyle3ClY2Ax+2ZLx6gwRk+WO1V7qLyHtCBYWHAZ6eocPCPDwhabv8qSePr47n5XXoSvFou5XDEI8RoqR0YG9x4j0istdX14ahgYHNzbKQsJye7sGdzx0PdvT+iljfBebBy6tZh8V5540+bNisa+hjb08xdsyi4f1rAad42MDOx59oA4BLH27d+c/fQdivxekfzn1GT/jIymrpHdg3u/BZlVdl3HwN5DReoc27aisoq6ZlTZo6geNMDiCjDVE72wt9mf7fNUUCbzh5/qGgH7/oXSNE5RdUflUBtI6TcXq5qZIfkOPsv8jCF5Yqg2nxjsX0vDic+tfW8HxDX9CdMzVLzx9qSy8r4GYGRg+zmwrmbLa/YMaOTkwAKMi+5hUerWHyD2xRbmauZC3vIZt5JZbkZy2/OX88ATZ4GqrHieOmIyS/3NTBkYEmW8exxYW8LyD9ekEOKnM0yjzAMvHkddsl2QJWSUaBAWCgSEOyOP7u0B6/xpk0T1NxghJ49lSnwFGYe7s7kgWsgL2VCsUlaOvFmdjd5mMTTDkQno6R06XKPiSGUM544gTvLK3Zfu41xveF2Lf4MHydV0L+zy7jnX7AsjE4o1lobrmuIXrrbVljuZ5oQFWWu/0n7Gcv6/VG22cgjQHcz6hbdoPJiDRwzqb2dYaVfLrEAdF7bRlkaQPYd5HzodsIa3zDTwcNU8W7mmJ5IKxLnauO38Qj6dajP3xVckAoH/EMhjN3HUjYPl2HMBaJFcAHWtrGqY2R4Fbbu780FK3l25e8cnE1zysuXC8Vjwx3ft+ZDJHHE3Q6W5p8l3z2V5kbQW4xmDDbS3isVpUG0+/cquJyhcWErpz4zkJSDs7b/cmr2ptrOh4YScOxbrwwYPFwa1msYyxoW17Tt7x0Mvm1E4liuMCwO6hvrfrS7gFNQ1EF23zloUu8OFAf5tYBvGiAn7fn7Vnv59a+9Ggoo1FG/siM0lrP4f1kq5G+DFFNX1PYwBzwEYTmlpbB8ZGlEy8pfYUpBs3y1K3fXd7RTBGtd5mnMeaNoYQDYslCTH4My84EQAPK2yMtRm0Nfw4PDmUGTnbTUFZoHWjqQgsVCrGzhd83fL1cz+AJO8aPQHmi9YMana/L9Adm6lJFcgHHgWjSrABmn+/mHQ31xQSclsQzC+u6Oyd+hUVQWKf9sriQsTHXz04fev/4a0CNmgayLaATWDDtdWbQ5HpRFrOM9KvOquF+VlyQXMHVdFY06usHMiNzKzW71AxzaOaBeK7N8tXoG6lsKSFpszHmyRB9OgGeVmaUEuSY6rC3XGnphE07DgzCyxmYSGUcOAMNsy3CAnyelmPHCXefkxohSBRrAIWM5hOPQ9LGluLGeDff19fIb2fNtSJBZD56oRWy6BMBdbfktJq1Kze/kMtctLSmTKpv4dn3wNdZ4JjJJDo0TFy6bt3XJZinhbSnZFFYLm/gPoQFaUgnl/DOjfqmkpKwNh0sFHd71EUaKSJxtN1TgWT//I5uqKbFV3ZWVftZRAvG1bSgnhBcEy8+/YKcsra+2rbDt9lkIfGsi+mBXrq7V0qlNWBEJhfBwCWbGscVjzG42cqALH1LZtRbg37d53cMuRBwwpLL1+VhKJrx5Eb1taWlqxghwAGDkDYdepcllZ/s7mLkHvqf0VBVIMEJf23f0JWbvuj6CoHV0QpXUsJKIAkvilSwIZtm6uxS0zVozFO9xtLci/tnSJDiU66G4cisVrqmGXMnZGZm1JgPbEO3/KbK6ZGRbxeK3WPfCnVgzNb9AcziRuMLI/XCkBt07v9k5VsVSaVoDer0pynuqsBQlBUQGWclOGoKujuxXzsq+JNKwkZ2498pqYc70xNzrG4JpYb73Aaa71tV3YLCszivDeX2obA2Z6Odna2i+ewfCFhi23W+poa+u8CG2SOkh3o7jvmS9aczXfiKm3vZWt45ykII2zmgPDjnNXw5/oCsjQNEdaMfX76a5OU2DA0d72TvvbF0Rjpa9a7Ghv7+QerlmBa1xvt7e3d3SfSZ5jksxpXNgViQiELoK2E3Wl+fn5ROdKs70LRpp3ylux+asfoc+zU17aWN+VnPXLC89s5kxgQPUxWOSPu89A885SmSy/urOvknDTd1TJq8l4xpExUi8vlXc3Dx6844n3afJ7ZcdWIm+k1u3K7djf2Fpe31TZ3FnBAKZL5TBIfGVPTaNMvnMYLuzRrS/RFMMUv75SEqm2JMjtUTbmVyub8LGrva60UeOWYWakuZz8jKV1fT39kEB74jkaSx99HBxHaDMH2stVKlVrY/fYxbUJhuV1yg4bISx1VqtU+fKdzQ2REGx6gia2bDF9Fk/jSkycI2ztneYyfNU8dNdMd/cLHFvS4Qud7G3t585h6qmC0MHPHreuUq/KnI2u9tMdiNCKtuZ3rq29o9McvwAdMgJv+0VGOaRvzI0ziRuM4kMHyfnTc6SvqlVVgflF/JSN/+4T5XLMa3kns5xsejA1q6uGiQvzT8A8vz+Ec73hiGDaNRGzLnzW1YpaOlOHZref4rLi6mhlQPwsU1PTmeTAxviwmcampkuitLfCcSkH1kCnCP/qofiZGplaewRoV5qHtamxtV/0VbfCeS5wlqxhyVByB0YZo47D2hoDMF4SnkiSBuHWxsaz0rWD4XskGY8932M3lWoPPp0QKbCx8Rnpa6+pUbaT6gMGIC9qaK5v19nxe5rble0dXbFr3/nuES5nAmNb/rFgOBbM9Mrm9prumnomNJrR1dDcTj7qoqmnXals7jm+Y+sX9z9Cc+E7J0nQOhafyub6+r4evKi+Gi2U9cPMC7VpGq7vxsvMaJNs2UXlLKUffQMuMI0p1Bwr69VnjY4+ZR844zRgRlzT3d7X0NQfvGXXbw9SMf1fDBZlgGJE2NOsVCohfTY+B2C4nZjDX7uG6zEfML6uyNjUR794gKKDimtvEqTtPUkiM9tPXeUVs9w6KX09f2xJ58ybZWxq7KdeaesphHEJMYG6+YaPRZUERRctQuf5YXXN8tDZH/grZhqHL+cztOOcSdxgpB3AoRqxeaK6p2TWj/qAOEImNqYbM9UzKjHt67E3MS4sa+ull6//hoQ7vwFLhHl40ez2ty7dGMPSEi8AUg40dyPjANaDWrLUkCbsgTYWtoh3p8k9F50fxY3FBtviEEHXTeMA1bunwNNm/FnQ1jY01Bb86Fv338eZyLir5cdvYuPITLcR9vYOdQltNDu/sMkGn3Vhg2GPdPXue+XI+8jv0bw+LDj1t3sKCTW+QIjv9CfviUBbVI8YnLBrqFdgIxDtuPclmteHwpuLENjW3rYEvb2e+MCMsUvINFBr7KBMBT8jftC4lfc+8RSNW94EETkRRmOD4bSRvgCdV+bp4+OZATPkkz/+RIYniAte++lrz9DMc8uF68IM2IEf7UXTxWrmPTPIgCXW2zlxJnGDIS79DJoMDPW4T27u2NzDVtRV2SXAtNQeGHMF6mmfG7vlyH/Rp2rouNGAJXI0qVX2opdsHQvUwqj0xG9FaxlLBM23pCKY8A5na4ln6khjKS//GHIsQjIpAM+/bPBX7/hCgX9upCh1y2uPizkTGXelHL0oSfbUbPaCsTEIbTJs8PkqCH18BD6+kleOfMcQrVOo1WTGCrX+A/E14k6IJ8MCBATkWQ04BCA3Ye0nLzw3larO8vOsYEGGxhLGpbVKfqNrHDwE+7I+ufQyVZa74PzBBH+BMAP+EFPi6jkhHHsUkr8R2z7gGwFPPeU8TzRgh1BSMEiBiBnrDVgiGtxxk7jRaDl/JTOSmWlYROOTD0sXU3tsro8tgIzIg3f//vZ/caY2BD8HOxSipYsGUx2WszSV6Ed3uuLOXcJje99zo7zFTmN930PEkgZFP94RDEV7/SCEQurahyd2Vxhw18nXD0ogRakPsBb8I4Mf/f1+Lh2n26upwVCI1tcU1hvPiK4WJuTLtStxXdYX/glb/vjhQboUwclvYiP99Z0TyKdn3XvpZbpB2U8rNGCHQCM6v7JsKeu40MZJjt//AdtOfpYl0qzdf17CGZ6Ia6xx5vwXcAjksdvtPdCjS4VFEIhkhTV2VnSWbO1CWR4ZIdVHhamuOSydZaE3JZPK0UczEXvWE7nJmVt2vTyhS+oJHvvoGwmulnoBdQuilbu+dqP8oZ77ONjXUz9LCL6JdhwJcOHQ4ZmPMyN9bPR1l77Bd/xx/9OUr+8zyKAJMvSdE5Itv3z3HJ2znOLOMrCB+gtDOt5WKz+2J10TC84kbjjuKvsxNVnfUyF0jBLW/h5lz/kvsDgqiN2EMQbHJxUI3yIbhEUtogwQmLuvYbcM1oFWiw5zPdj55ZyZtD/jyffOSnxt9JwwvpK1Wy89E8KZ4Cj68qIEmg16LgKRJOuJ75xpBY4+kyTr+fogkZ6w9p30pbQk3m8cJCoo+g4qdev3iyhXVMn5UYkoV79BZQjjMrf+jjgiFcydoOXKBoTJgw6z7dglHPjzvDiT+B+Qcn4HKsz0Dgtl3vE1iCr+C4Bomt3pCnxldIAqQxirUIQJivfp4LiE1TLgh3vfTPv67NYZsME8qGHToeTVK6kigX77lWcc0h6/TuxiDvVJ7vXTCXEC/cbki+rzS260TNfi8z8HJwv0PACIgu9+wsGK1tLRi0zaUh/4REq2PPHdg7SWTh5bGatfdBm1K8lZu154nLJR0GLZjEI+mxW1AukGOnCJFjoLEOGHSfwPAMfp6QR953mcJOvhH7z/GzJmQ+d0VnPTejq1KXvjQDaWPFwNaS3dNmceG7ecOI12YwQLIqt6GJ6xvQXtjHnkjawEX4F+M0aU9dD7j+dxJjyKcI9I1u8aJohbuWXXa2iepQS2e4mvnpZiU++95EjNHKv4cUumSKCfs9y38u5Lj1MHfLPP75DoZ8kzN06y5SX67Ch3MTTD9EeOH6gzKOG4KoDNiloDPaZJ/B+A6KqeuQ0b34TUO448/1/lLG82YjNjghZa0otEs3Isica3/xsVGTbOcp3rv3h9Jjw2r28Ol97UR68Ei3yFel1YTj/60ASvqP+TvSvraesKwq4MxqQxBscEs5jN7KvZF4PBGEzMYmPAxOC4xA64KWmbuAppVSGLhwopz7yBKssPCCnsCghVaiEgEJUFFqjKAxAJgdqkEZCKVo2qsrRzSTcR43vLPTfglu8PjM45M2fmzHxn5hU+x1qtEXuGNX9h6Jue9CLhLXUEDS5fqzT37ZxcEpQtdSrRdUKhxlfGzvmxk0t6svaVqpmQJHDLHXtDJxfFq2n5N5l5/5NfE6zsin8hqfI2m3aOU8G197F0w2VCQaHE1PcjZcML6diEVaIovA2fjU8MbLQQ8UcY5IxODFbEVeJvy/tMHOYjbv9i4pWwWjKd3b/v0cvy8asePhDzjCxazzaj/s9M4te/SFQiAu8VH5ne9Hhngkxj0m97lNXX8SNGAbxX5p5aybBU7Cs6GRGahQj+ykzPtJMIhNd/AZUQ4OtEs0ZnHLGw6bSTpxuC/oXxNmRfOnn8+a/+dcYlno8KOyXQP15f0WtyCTB8Qfvg82MrjSrkRBDP79VlsUhICsNmlBPELSap6CrcvYB4JSyUTCrCO4J4eJqalE4m6/Zkw6iWX8Z/g2mVHcNnnlH/Cu3vPf9BKRPg0x6AoNL3wvqQTEtG24ZJlYvP/s3V6joPlthkwtOpNbNK5IPPsJD1PDggdVA3IbusJsAdEcglHXN7Q3QSotIDFQyiRKw7UWT03C2hhEGYSwyzC89xSqBP2XVKkQC/DFv9lfm7R+MUNmwN9bhFMO9c4B9KaqwBLzCOoHIW5sFsVhLgZJcUE20jEMIi9zs8uJ7g9t1icr1IdbPYf6bU4PK182V6Y9f8xDWaS+Dutl0Jg4dwaQ8aJTCaeHQy133vgk6Nm0qE5rwS00FDOJmDot9d75Fo8KiC0ENRPXCQFz1GqqZu+0WtEWXi3iIaXd/iJKkw+GIG4cdRy4VIOhlRrSEtngSviTrh+bDL00O3dU2vFQlwCb5fGLpeLFHZcjwsIYiYxoiDhORKp5dC3ZsI+bBKRRSXlCSgUFUQWhTjPjOS5PZlNVYSSyM2JHiRqxxtLxv00GbKucJUA6F+03ame9T/A/T+9Q01Hjk3EzyYcQ4YTSS371s9lMPw2IgqQ8diRBqNFJ5834MrKb9aY+h7EUKyZDn48w8SnN8C1+FHnX5geIdkGOydXEcslSgNEqaTpJj5EgyqywPPK2GniPb+5z/gxmrAWeohwSQi2gKtgsgl7NkYwybrLZNKxET8SoV7qBfJqzGAeYcQdT8lmiyjiZdIyFtKG2O9yUY922tKiSzX6cUoV+tM07uukUbEUDS1sAHUcKd3cK4W2IhPZ3LI9sT5+ludujrTaQAgkxjMw/BeIYcbX36rVFcL8HjG0Lo7nE6ypv7NwopEm5/pVCdgUSOr1mtkr4mQVE9CL6MIsg2f0oQNlYTSGn6lbrRznB7GthZ6JDj1+UPjnYf4iUrQI92vEvBgV+OB0kwSrVGpUgL9nnyFaWQlpWfnNREhNMWQpnq6EcrEMhTxXDr5qGfDIHF2CfvINTrz4/mJd2gug7tb9lm9NtNZGkwuMf66SD6Ou/nZ85dKZ1+2BD5ytaFzeH6c7BTgthvra3qnOV+BSGPofLw6RNqy720vg7dsFjjlg8G7fKaf/DXhRyDB51kRT77rLiciTkogKxScfe7BThUXIajukVQ7fYaJgB31iGhjMxJ0owZ8jcFGp5KGF5eJ/0eyviwZQeNOVkQqA9fe7gQi4MlcSsqT4tvbhQA6aUk3p+wmg1qeef1YD6bSmfpWre/SXAgf2NYMSpgk4+RLk7HvYLSXPMWSPjE/q9Mc2/7Jp7kasogPsA/AZNE29RxSiaLcYzyzIFcExb0H0N+X/Jq6bRt6lezYepggU642dkJ/33byFYeMYDG+nqcEsGikwa+5iu8s6xLOuyOeMuifrG8YJcd12LksgIIvli5f6qdRjbSkhiY8imAwEoXximbi8d2lt7O4NATgJ+KFcgyFXziKOI4TG4Rn2/eDs1loniwrBonjC+uyjwh6MHWM7M24wpewf5bDbJAf1VTDyAZHlz1WBzMN7wxdQVJ/Br471I5AkgMqolwrMZhGHiHZvntPFn7Qq7Vyhyk+QTOk9jrmFid76eQltQ2u/6LUQ0+rTMe1dBm8wYZHJ1BsX3qGbz0e4ys4CYWeu0FjYQbONVGXCO17znG6uDn4/JlOp5I7tl1RNWZSm5Ze6tsswDussdh5xg0vt0f82zFOk47iuBhELCN2SBwew7IVjRGkCW/jJCyDo9HkPK5MLZuMSqABXXfgwbR6Y+d3j6yuQuX4C3dtG2ajQ88CtT2VsuPBwU/jVxAl7+0dJpjgnHvZARVRozd3PlgcGkNzUN8smI1KVXW+4PXYNLf6K9OD314soRlJ+uEn6wNmIyQTMx3lYL/Qmx8Mj0IvfCTA+x1WXxIdhognzRTj1MuzuGd6ouv/BPTB3eFOo0SeK3i9CibSQkjd2WdBo+f4HQw9nHA6iis8hN6oCJAB8amFTlplpGTxUDXP4keVOWnELy6riXRDdI7s5JTj6wQMqeKCMB1VsGG1b0DQDRfW9SO/L2RqnbnvRXCsC5K0Bm3LKzpYVL6DdoWGjoPGqmhEbvnD7q35lzqlWia6fFQSFi/OvdhJ4rQjmms7tb/WowTHLHj9saw3/fpj3lIrot/nbb272PZp5ILXWY9qg+nxoiUSVROmHKGHkySKtMJdmINKz2v94uqPvyZuNUTwzvn0ZwEPSxMfPdOBReVef61RG7S5efzIMv6GRgmEhfuVH6echYr4SBa6GiAvqtHz2F+R7tnpyHw2nZ2UIvY8luOexUW3tzlAiZEeY27iuKrQNGSS7k0Bp8MA5Q+5KD//cGZjfrNIJJdp9AaTaXg0IMcFY9OiG18vrBgMEo28ORcb0ZjpA6vKh0WplMaOzsVEvhsylbg3tf5y1qiE7WvO/xPNmCQ9SJoeHUc3oebdQdsaSFJjknKxZfn4YMNIq2FR5s6Dn4a8kR1U241t+6xRJzmUBEOaAaAUmE5gbvnpErrtgwDUv6L42PxJfDg6t+JWGlV3bHWjxSOD5YJ6/p9EUat1b9aghKy56A/dA4sC7cNiQmAszXR/SHtDCKsNLLla6OAGbqrICwlFGfG48SKCFE2eDlxlSxkzg4NQ0kVOwoVUcbEDayso941FmohwC6iC7WM4cGDlwYnhKOOQd6fWlzd6lEqJWqOtxqDVqNQSpcE4MPJ0dMI1OVpFN548X17pgTWpNFoZQIstSg+L6ppeRXgFAz6C7XsG26dXq7Ra7R+iJDqQNPzUMoEyCfvhoM3+ckX5x6KqATKtCg7KMDCyuWN9iFD72j7bXtgASfpDSRiwNSl1htmRzfkZNsrtezs8sKTFQbDGKKwISixF2e3Ji5vlq6hnOHjs3anzz2DRznFGQB/btm/06A4tSgZ6jimfSqLHLGpzdOhNFubf5if41RUc9SzF90uqEnhgBEiVUxgf1CJlHHUrdcysSMSqyQkIaVAc/U/tKVUEh2R4X0S7faHJzLqjeUtG8dWgeCHa7aO/27u9u/xywGjAlEb1yn0ZzXADzy9NuFwd7E9cG9ze33sGi9LpJRK1WqKHC9hsmpt+ZLG2FiHdviu9M/t7L81mTJIaJIEokNQ3sjk6c+SxTD5tObRrxw5Kp4Q1qUCYXmc0dYBbmZxAa9ltN7YOJYFOwKIksCbd4ZqmVy1DiBPLbvxYZp248miu/H6ZXywPccbIO6Om5I6UccSixHEXksPPPdhZQvfWJGgfWBRmUCrMdmeNpr65xZ2l2jd8UBf5EQ0VBfXSYsahsngWFzaJFb7JXPSdNOlsoXtqQVN9YWWxp6dncXFlYVNBeXAEXCHIwcnwL7slrpd6vloUiBJXNFZlpKOXdIkfkdJyS1xYzGC8xYDdkxbW34lzT2KjTwUX9W/PT48MDMzqMEC40zX3eHh1cnysjea6uNtrsz/r6oJVYRgYgEUNL44K2ejzEA97Z+aHu0zG2R4MIKtrbm54dan3XeS5qaLuof3NEVPXwGyPEqAzgCioDkwgPyg65sQ2R7rMsHugEodrOjhYHLX2o2fthfGTPeLEYLpgu4eQ1hekemSFor8mvDhCZmpBfWFhpecr4y2sL1AEBUaeMxHPGNowPZ/rGjDo/jAozKIWLbVvfhCOGzs6K9E/+HZ5IeQPFXUlHn7xMQGQs6cArPCkRD/fvNup5YryuNSyYGZVTDSbkixYWmhCVNWFvNQ7ldiH/rogD/+IhNI0GgXw4kbHBDKDb8cpKmBRjXkezMDkSA6NArR/OmXb3bcvr629BKzt2ectk0O9LvsE+7Np7ZbtObYowObm3t78/qR1fIwK7SvqnjjcvuVDWct79n3Yvn5KmL/dU9sgyQ6SDkXZ90ctVkoOin5vcHvyb0l7qzujlplxSgoRFzmRsTXuKSWNceUKUPSyYPea5FpvSoyXFR4byPRNaVSIKxmVFY0p7vExGfzz5vRnD2Pj1t1XxgvAbHd30npqF5IXTxhSLr1VFp+VwaXWi14KDUiIivfzr4mKDedQyi/y8q6N8W0B0m9eTACbykWBeZdmR9VUxQdGJQe0sqjk4ly5Mbhl28UwuTXe7yJtffFw8+6gdWZy12KZnBkav9tOow5F97DtA7PbtVnHu29SSQ640j9hte1aRkHSRPc1CiXRr/VPbc1MWiy7kzMT7DFKf+Ow+NHJIfH+VYFRQl46pRXYNG5tln9QhfQ+MznS2zVrvf8P3Px4CmwX7qMlsKh22inCq9a/LI4ZG8rlUB3usNI5raXhoaWt3mkUEy8vcjI84lquKnxjKP8PGcbhlQJ4bJYbtaSpokvprfxSPp/f2v3QBUY0EwP9bW8un18aWsrNoVr7LuWwW3vHw/lcbxbF9ubG8uaWhkeG8qjWc5DEYfNg93jeLDeKFT0MJGHGW0q1W6GHpbNLhfGpcReEYecpxLOM39m7mxW1wSgMwAdMSPh0ougETczPKI6Jo2aMjqjgroTAFCQwMoVs3HdjN+677fX0Blso/R2rpR3afifvcweBkJ/zveecyqzWSrtp67LeeUv/VFd46nZGrDSuNUfVctG/I4AvSm/pLykZFfpLSiX6ewz6GxqulXtzgv9d6X/4ylAipxlxi/xUI023J2NVx448APk0gqEToowIv6CS+vvegXgxgqEallfbzJvgNwxAPneRk11hIgect/K1PDCIlUq1Hbe3RLPQy1CNAJBQKjQLNRQ4b+uYYwnn7J20GmnO5IKIgmb8UCcAkM1qod1E+A2Dc+r9N8LlVnPu6vu4+ml9+i6x0VcCIB2l2nxhcfu4hmdXDs3HHrcsx6q3E4vOpxXLqpN1CQBkowym3pjbswmeW8uZqjbx0rHFq8+10fLC3IUEANJpPST3KQGcsIr2ecTtsOiybTpzhT5Jx/thlVlaBaAIylvxuKgRwM/ZlpNx2+etBJ7wL78uqDb1AbeXNEARzMaJPuF2UA/PSemv9SW3W6S6SNrfBFRqPV3bEgBI5zrLLXx/wk8pqerccsv8lCdZHCn0RaPr70JUIwDkc7eM4zmz2XfwjA5+bnJrHjRSXRte0Tc60VQMygQAsqnriYVEMfxEKUq0kFto9XKxFsGMvpXqnsbtTQ1QBJWJnvSQxoKjSjX93dAtESvGREytMn2nPI83EfqbAeRzd7vRDniHwTF139tPmBXYKpdZos+fTEx82FkBs9wlQBEo2zgeXhLAU9e7tdUiXi4m+f3TCL0y0vIhJtYDyKc29qYTAniiM9iIJbewj5utzSO10UNvHW8xMRRAOo0r6/UDt9g0PIPK9cN9n1vWvDSKtd6Mnuh01XWf2x8nQBGUBzdIFMNTF5bGbv6t0Ro+Hn9TlW+FFxEASMdtxh5Ow+AHDTsXc27HQ9WF7gUNOuaqv26jzR9APmVbvR9xO/KAP9UdPjZXxIthm8Kv0VGdINYG3C4YoAiU8VSfM+v+gT/U6cdixKzbouSOd8Nug46r+poXEABIx9YxKhG+Y7jmrsetvHxxK6aLDv1EI9A3fRwKA8inHu33NhLF8FXLd2Kb2fO8lOrxqZH0q8VUXTK7ZoAiqLTEPbvwGfyJkZO3uQXqVyPHPLkY7NrzdATrAeTTCeOkh9Mw+GyWbZo2tzVh22yX3dEJ9dCbLjFmCkA+aXsjuH10wx9MYRI7dum8u1BoUYlOUNxs6qcEALKZLdfmLRId8InLsKLWudbj8MxFVUa5N8ahMIB8an0tsQngo4vBozXnlmtw+8JyFTrtEJraFbNWAoAiUFJ/2uc2iwF+SyNo3vS43QvKSBMLg85QXDUJufUSABSBMblRue2Ggt9St0wxZ7YAUmk9JOOUzpqFmjpCsAlAPq4am1cEhVfZ7r3BgdljvHarJcsOnbcdOln9LQGAZGYjbzPAqERo+S/1GrNAvTGPc/VAv2AV3ecTLB8CkM/Keq1v0RVTdEroOQtm/2BU692oo/f0C4xUzUXA7foBCqASOXn7gqDYVvGNzy1Qb9j66957+iXlD+zdzW8SQRQA8M2iqfGrohZNTK2Krd9ataIBOeBhBS8bsKukdJVdw9qY2GSN1R4M8WD2H+AGh4aDIeGjlJSmNyiERkMo0RgPyIFobLGxrVEjMVjUgR6slSre2OX97nMYtvPem9m30871VzswAIDobD97/brUghf4T1uOn98ttcsRse27mk7W/MlI8/5TO/bBx2EAiM426CgG55p2t0mtoX7DmZ6mg1uxGsnad7ccgVIOAPFZc7al6RC8Bmhkmzp62tol9kJ0475jJ9uaL2C12npi3fkzEutnAaAhtHb0XO6CHNa4Np1Zd/6oxDZhsq0H167vxGq3eeflUx0DcEcHAKKz4UBP0wG4KrFBbVyz98D68y3dknoP9HDz9s71u3ftwf5D1/4rLR2te6GWA0BkZDvX9qzt3LRGBqu30fSfbm7tPrf21qmWzq2S2YDou5o9+/Y3nbq0q/0/8vKGgY7rhy+1nbm4ZbQPAwCIxcbNXd07Ln1qOtq+s/k0JLGGctMfm4+Wst9/fM9Gg56xC5j4yfruVSYVLxY/hRPjrr7aRun9MXf4WXF6JDuUiPjvQxIDQBxk/WOeIFrw08WZj1H3uEuPgQbhiiS/pTO5XCEveIX8+8VUeMh9UeSN9Xr/XHI2ncnkCgFBcFbmlIj86+aoPj/6JUrpTCEkOPhQYTGdKqGE3osBAOrcaDl9pdGCdzqEUCG3tOJdUijGwb+MuVMoZAt2jmU5nrfzgtdbXAh3i/qyMb0nuhgSBL4yKbudswve6U+fE83/SHvJbMhRHlRm53lecDyZiY73YwCAurb3YnTRJ6AoVlnvHMf7vEW04rfAcaLU9fnd3xYLAY4lGR1F6RiGIVm74Hu58HkoKNrGnm0XE6mZPJoUTeqoyqxoDmWjkYnw89bNq56lDifTaM9m52hmaRBJ0xznDL1PRSPQpgtAHTvd/fzjTJ5j0dpdwkwGfL4n8YlwYo/Iz5PA3/UPv87kJ1GkN1oIE0IQhMWoI1El4xzJukV6mHw3NpvLT6KcbDSaLSaTAc3JTJHl7VgoPuQZxaqRXRt+/fYxSZIMGkOgQSY0yEihnyIQipeCLgwAUKf0c6VCoBLFLEQ5ji1FsUoFOjM0/gADktX74svXxzRDmU0am1aNaBGNgTCj58/ms26PCBvs7ww+nXpD04zRYjJUZiVHs7JpTOiPmub4eDjoqrKlenBjbvYrVc5eBjREXqZGgwxoFMPy+WzCI7HvvQGQiguD81OvaJKyLK338tpVV6IYxbB2ZzwcGcOARG2LTH3V6dCj1yrxZawqraEcukMTbeOjmMg8GH767gOqxwiNWqnAf1GobCYzwzpHqp2Py/zz6Tc6i0YrV+LLWZVqDaFj7aGZ6AD8EzEA6pD+UTL3ikFRTG3Fl1EotRrCSHLOeMrtghcB0tQ3XuLocuBWWfHfKeVajYXkpxeGPCJ7+P23k29JmiJsKBmtoFTbCIpzPHnm7vrjFHE+HeAogwL/g0KlNhlZwRFPwFkiAPXnwuDTnMBSJq0KX0lVLkA5wZsNiq4SB7XojZXesDpCI1dacWTl9sNgpAVfPNoqrn68wfkMyRhNNnm1dKS0ETqOf5lNrDhZuD2XnqR1hBavQqHQmow075t4Dg26ANSbh/7kW4ZGGUxprVaAagiKFULZIJwlStHwbIDTmZQKvDq5wUwK3gVx3Vt/c25xkjXbVIrqs1Jqy1uq4kTwNLZMfywdsFMGtQKvSoFqOZL3PnPDMgCgztydz3AkKlmteFUqrcbIOrypiLgqcVCLLd9ytI5Q48iqOYwWvk+4RZTDrsWmJkmjRoGvRqk1UKxv5GP78pOI4dkQrTMo8VWpbGba8TLrvoYBAOpIbyz9irQo8NUpDBTniIcHoB/rJ3v3FpNUGAcA/Oyc9VYr1ka99MS6PLQeqQ7xAFt2fGKw2Ni4DGRy2YAGEnEzETGMQKgo0iyttBtldi/TbmZp97LUKLvaxW520dl9fSesTA1488C+3+bm4XjcPvQ7/+/7n//3kWk2vnkgFWaxGWii2z1fGr39/mTaFDI4a3seg6w4Df0/JhvkEsvrTk0Y8k5c/KTiZNHQBGigGxgvfD8KYxgEUUltf0zKZ6GJ4GSPf3VuEgJllntXY4qsXCaa8HYvEKqidYeWpslDIGzPxccKoQCnJ2xULigxjJ6e+2fdtux1N6hfZCe8iA7eCanxVeUOBIIgqnCZH4Een01Dk/R4IaiunpMxu5dDJNeyRzGFCJejCdHZWQpV9Hq6DGDUr6/yhNk4mhgzV6ww3l4wczCxYNjRUyNkxVPpiWekqvK352BlEwRRhvnkHR4/SQQj1wgJOHt/vIepxIxivtedQxaRJ0Fjgdv9/o8z06Ky3uTpifFENDR5o/g50R+V8biM6S8+IHPpyTBANDd+eQ/3S4QgyqgFPV7ARNGkMUzUvPvtufkIlDlqr/YqxOzkN26cJZaWfziVDrV4mLWhmycUJI9GdFzAWb779JbJCKBe9YLHEaDJMVh88FS4Mq03P4agTEK0xBT8XDQ5pqBxxe3TJxEoc7zZqxCDCXhSckauSPX07o40eBpGtPU3cgQ4mpycLQYFhh83IoCyqQYU4aMpoG1WGKPXlyIQBFEBpmw1KgQMNAWr25ujT08hUMaY2KMSsnA6mgL5Zt7u6+mwNQXRMiASsxhoChjZQlCjtA9Mw7C2ViEHxPLUpmFS49nZMBsBQZRgaXgpFbHRVODHY+W7309Ng5E4lBLJmzs5YpyBpmS10Lj/7lGE6rj6/vb4NmkpYIsVqrrKaeCdePiZL2anFMvJhf6q/YcWp+HOxxCUgWpb28kVNKnAs9ubV1yfkUZLXKGEgldjnFFrOeSjhDVczFNdoH4pnuTMC86Qeno5CR2KPmzVdvnpLZhmzxWFmMVEU8EgN+kovz4XjuQgiAK493qFgj/DT/mQni4ftbBedXvhIgTKCJgtphDj6Gjko27SkbP20ESE4uwXP3FYQxuSCB3P5uytq9y07Ew3WdGUXIBEY4Ha3ClwFgZBFGB5KOXT6OhI/74WGFwfJK6JrpyHQBnB3MUbdT+lgM/nC4y2JIq34jLV82fjdVd6hfjf2eR63wbAVxCIHwcKfEMOyUbxmy98DNa++aRgxV+gF4Dzgd/fx68OxINhAJwKhzf41pO1uaf3pMUKAwjKbNzaK1Ix6KyMgG9DvK+jAIO53hcOD+npv24E4MbGyG5c8fQG5ZNJUEry7yuEI/cRZPp2eovqS33oMHRaLsf4bBbF08iShu7GP2vC5GXnO4vWrdu+vdBb6guAFpSdrygCR5E1OwO/WyuuufDsdUtPr5CNAvSy8yWRiHdnAdne6nBJ/TpweVFFgZxJo+3a6SV/V6RkA/t489rrcNNrCBp7sjfdIIQxQdeOFJL9s4i8ddHY1aVFDse6dZGKDeA+QAen15Cn69eEDzQan76H2+tkBFfLgHDkmjBm2c36VValoyIw4gzOV9WNo3g1uf3hY34W43fQrer0e2SERmPWFpf4UGb11r7ioGaT2awrDKODBIrys1eudLeLaSiwvsrrtgZ1kXCA/GlvSOk0EZu0/p10PLf6Vv0qmVotC+ZVsI/XGM9+hd0AgsacsucxLwvFt3a47WonVyMJOioKmKzN2xxak4kglrlLUDqDlru5M2QFvVe/yrutV7X22TkCgdKf5lGvaGQhD/hfyNOr1e6SwMgaD7H09pLplN6ehavtr+EPLmumM3bd7LKaEBKhdZQWVB/p89tdCKAP/Wledvve548f94riF1Vva/LIzMHtIISVHTnh1hsQYJO2cOeuA2QEAweY2lMY3tqo2v8NrpCEoLGGea42cwTork6/nYuQJGB86tu87Z1OggCu4LpwAMzJOv16J4ZgTqXf+zJmrPtuQaD0J7uqyBq+forOXH2syWNyOkeGMEDAi37YQuk0sqatlSdiDc4a158vCqkxBMHAl1lXFK66Wax1YZjLhUis9RvQOFZ7815VjlREZlQZ+NYTq9ROmZUMYdU3wTjOQF7rMtsit4515MlAH8EMJpktsq0xp7zuHAJB0NgytZEfSsG8FdESoHMaMIRrzisJX+rIM3MNBgOCmUNrwqzVRxxWJzh0Oi1ax0Dv3uizNFjgCiVl6VYMX8wL8mXbnuTLDJgzr6QAHYHVuPbHDUr/8YmGgd8bZsnx6lvb851cSVCnUxrU9u0Vt07YlnHNWp2WIPTFpYPtA0nB5UYVT8xm0JnVVX1+PYLJrGDkhh7osyk1MmW+VkKmEvtam7RcDWHVWvWENdTxuWZ5FC7yh6CxZmmI5Yiy2aXFSgOh1NnA3IvQRUo/dwU3EXptm5KrBvmX48c6bBanzOOxymT6UMfL5hV18ClABsCUnxS59GGF82VH3oXIdJlh1BDG5q/4UrkHobCDLS85AuZg+ezWTn8QI+z+SFeb0ynxr+l8Yic0+cWFTXaz0v+7ffjxGpVRpcjCGcyyI53FdhcIYSBVGJBXPbHKuHZbV4vVolmme9LfpsckdndTg1YNQtxAo2ptJQJB0NhSNvGkxzev7suTYSCFGOmyI1yPo6/7noRrzi/uPyMzKUPe9msOq1rtafK7PXq9LTJQs/YC9fdogJLCaj9xhhdz4Oc7QAQDsP+GsEOUHr8cfnhMmM0YDGFVnW47ItFGrt1vMBmIPG9fl4Rrca+51uq3hQpLA38+CC9HlcPJYtNoVaDYg8wVWvLryRD2zmIidNtbr5xRgqlbU4td4lpme9LanwdGcu4TvSCEwd3qoZ/snW9Ia3UYxw+dXgTRi0FI9KZIojcRvRKa7MXOCzm+MiVB8DiuHuY5B7bB3cb5t0337zhp527T9M5bbthmS6msKyHTrSJW5vDWSO06aBNtEmbFNZh4V7fod/TObnaNeuX0/j5vLhd8o/Djw3Oe5/k+kDOGL3a3NA1NDlsoVOcO5LKMCeOl9e1PnZgor2//TFLgNVc2QiRldGez61JIkDzxjwa++LimW/qQ/4T509vtJ/eaJ8tu3oT8SxV2+dcbH9fyPtQbm8utzfXVD4krUhDBmb3cfpoyW2XPeganSSmf3E15fMdLA6o2bVdPS3uTXn11zcUQyLHCFl0swbl9yZ2feNrISEsc7gzKqd2dDMmyoY1Kz8CHjyEQCORMcWxotUBhg24WKCx/8CVjMnttvuwMQjOu/O1Nr07nHd3e9LPgn93dg7LHM7ySvNn3zZuPIpDzjvHnW62qEzOHE6NGyqRwisI6et/59s1aTlaa2V/uqI6oqDSLLgeK87aN4qpZF5R8YQuOi6MryeXl2GTdQ8cKa2/p6u5oatRPDFswzISiKKF8SHxoapQkmcR4cmeJoTlDZomLOJlErrK752UJYa/SNXDjCViGQSBnC8jnbm/TqwI2EtOF1je2eDvlX/DtBxFC8K1Utvwsy8vZJa+O9e9VKsuxienJaPRm7wdfn5PzvZB/TWK61dpwYvNrTsJ1LElS9vsrTD3f886dzx5Gahbnp9n545T6etV02U2ZdY6Qn7cbBU/eJeA4GQKbzZ5xoKi7NDS3alu0nW2NjXPrAoIbjTqMCLpGLtW9Ou5yeQJjsYO0lxaF0iZHOxlpPBlfEAnaUKy0XL7xTA3/JSCQBwE0fdAKpjkaFtcNBMWHQn6d3egOlEs8QljGFyugg60T3fsFnmL9Ujjs8Q2O9eub53uuP/U4AjnvvAvWwk4o7NKrLpLxh/ys+f4KU0W7Xr/zWQ1HTNGf7sw36euqCrsWL5JmBMMps4mX83N7BjNm5USOEy2esfpjhXUoCmvWaKYH3Vavf4bHCbBLokR5zM5OTk4uZ1dJnJFS+yLt5IS9g5Ssw2gmkey+/O1zNb1fAIFcfEyHp5XU9bMHaaPdTpntiIkfncgVSaCwwOJyNs0RXGirQJopbxA8/KBleGQoOt91/WWY9Hv+mTmpMMCVwEJ4rxg6VWFtLa9/X8v5YorCmtUPVRWmT5aAwpR1kSOF+e0ohhM4jvOW4f4TClPXXxkbH3UVC15KGaq/BBym0Q8NxcBr0FFCOJc1WJ0RTkhbvBgKFBbT9t15EZ5uhkDOFPvSbkeTXlU/tJs2mlC7CUVMYmIxn+EQqyUwtpxKc+DRbq2SmElH4HSECMq+udmmruuPPItAzjszP9zqqP9Hwu/YyErJYjxdYe/9+EkNKyxS2G1qVFWX3JQqzIgdKszOu9fjRb8d/AfD7CYzaZu6cq/Cjna8+8fWUksOnTJUf5QB3BhNlgQaN0qDcweZoNMJijgWRxCgsLn2vjsvwJRECORMMS/tdrZpGuqGDtJWFLXbTQgmSoHyscJkLmIFCuMw5eU7nc5IUMpPAIX98iQCOe9UFXYCFQgbI8+rwnBFYQ3HVdh03m1GUStJGs2kf6GccZjAj3Ck8sUh5Bm7R2Ht1a+Pk8miQ8cqClNQtyU33CJqdYRHJpIbFiuNOJWngNIOV6y9FyoMAjlTqgpT1U2kDDiKkzyPY5xlOKwozK0oLMPRhOFQYSghclbaGTGE19q6XocKuwCcojB9bMNN4udXYfPHVRjIpV/wo5hRkGQ/pePlBcmBIFjQIheMlNkrBe6two4Udqm+MVn0HiusTh9NSYyVDsrj/ZOz8bAg0jTtxGiMNkCFQSA1gKKwpkaNai0h0hFGti2JWIRJJKpVWLaqMBojGNktcBgKijSosIvBKQrTxFLuUz8kgnPF50ZhdWoQ/ckjVoMvni3q7Ga/TTYgCGHxpfZnWIwMDfYfK6zrrsLq6pWESOquwupUs/FRBxuxWnxjD6n0Q2seC2cFEDRtWFAU9iZUGARypmCgF9bZrJ/0CYSTkwPxnVVl6kraFIHCxoHC0kBhwlZBxHFeTqVKBsIEIr6bgMJeQSDnnbd/A+Mc91WYTP7LROL3ta6w6jhHvX5u3cIhohyYjpfAb+SQM6uIk0sE5rIFEiOFvynsaBK/rm4oWWSqvbAG9eKeX0dxIPm6HxRoqqsjw66ETRK4CGYIx0Av7HmoMAjkTKEVhbVFZz0G2sm4Xp3YLRBOgpG3RJRQ0n43Dsc59gsiYQVvNplzG+06P1TYBQEoTFltPolaURh1isLmu2p7IhEvbM+33aMwgUXA4ZRrydKMDnNIxQJKi+GR5M7Pwb8Upmpu7Qarzc2HNgcK26z2whquzZbdpIliEoFr9aAKa4wuV27d+m57M0jQwl5MCxUGgZw1oApr7WiKRj0OmmY8V2YPljiaCEr7XhMh+NbAXpg1wln2lxjWKPhu3tyVSDvrL3d2XYcKuwC8AVab1fetwk4d51DP975z580aXujFwFB9m+bSscL8LCLKU8BLJIUZbKUlmgZVWHKnINJi9RdUH6ZztAKFKVwDVRh1lFSvjuVsvM6uVHEaVYN+dmV4YS+1s/3VEkdYLevL3X3fflzDG3IQyANB4aC9tSkaW2Bop+jqX94tWGmrIfGlw44zifztLQcREaWdTYfR6HCBgClQhRlD+Y6e6x8+jUDOO2/8/F275n4K23AbT1VY32vfvl/DAZmmmexydbiwvvGwCjOGxidyGdaOC66NTYK2yoO5/VVOGdG4cjfmt72lp0XbVlWY0gs7VNhQvOSnMBx8nbjaUHd1Nu6yMIJc+vKHNE6Qcqry1uUbb9dy1BYE8iCwmtVqO4HCHDTCSSNz26s4zQme7VUzHgQxv0s8RQQTt/dDJMtL2eyGwNp5d7619/onNX59HvIfiPz0nVZz6X8pTDPf9+uNWj5WjIKMxM7GuwrTx/JuHqVA6OdoyGwn3L7UJkdHhEQizUVoxjb1V8xvb5e2TXWPwpSMxPrZVJpEUTwojQcCU1OLeZufNfKhdMFLW4OJg8rnA7+/UcuBxxDIgwCI+e3ujEbXBRwhhLCnGMQwUS7fTutwjpH3VymzVfBUskWeYg2ZjJun7F5brr3vm89eQiDnHeen34F7Yf9PYR2Xa/zYCl9a7vgrqX7NZTAfZSQqJy8D8Q3GSosGQxBsOArhsWOF9fT13Ksw/FBhqliJp0BdxzpkyTa6MJ5fCOnMdtLLs7QorFdufT7wYQ03BSGQBwNvSQuOz1/LSxxKk37BT6C4wxWoZHgdwTGrRhMoxgajybKfoK1MUCRwwr9w8NHAN+/XcDsE8l9593Y3mMM7ifpfFKYHx1Y+qemrzcZisnpsBUwUTpTdLIbazZTZBLq5YxM5OYhhmBPom5PG+6v3wj7qvfx3hSm9sKugK2ZGFDBKB6ovT74sGTEExUw0YUis3Pzoc3i1GQI5c8iMtrtNU7+258BRO0XhqJNTRhFLAnj5GI0goAgbaYzO2USn8pUGpHPI5d23Br6BJy8vAty29v8qrH3g189qegxPl0m2g7bWEXVX42AUEQHYKcPo1JXJeMlCIAoRg+fVamXZ+dY/FBYECpvMpZEqqM6xkIvvGXAEQAQTgYmbb733BVQYBHLWsLK2G8xiTecyQROCgrdKGMJj09Fc0WtGAM6gbaRfpZksW5wIAPgtHAeHkj6ArbCLAFBY8z+n6humByWepdzKtMNJmrUDf7yJIzXMn+zdSUwTURgA4MnzYqLGTDQT9eIyB0+eNGPSyRyGw8Q5TTqmySTDmE5NqyRiUlRcqC24gGlcolhRXBANitQKdYlBrQqCKFpTNwzgSlBxocYQEqLG+Cq4RtrxxLT834ntkbxOp/+b9/73v0WX3kqqBQ2ykzuPPlmf5/Hk5W8q2O5DHK6wsWzl4Pu6Gg1hrc1et0tTucHeXy9alrt42YXdPv8WXJxq0PLE4eUPTt8L5OCnsCWbNhzYc6itubyliQAAjKzsSx2aYEGW0xe35ns8ngXZOceqESfXH928Jg/PuODdYchOMZYjj9YtTZRIzCmrvhUJBWMTCZD+svvbBJZCf6P920vKyg740d8oUtWC8cumTsPLW3tTV0QK/SzQ8WBXUQAvZX0/pZmxnKjeVVYQOFa0EQe0IaItFH7dIVkHG1F7qndduFBS7bPb924JFAwJbNyy+8S+E9Ul+F8FNh7wk3LEG47VEgCAkVWY0y5ZWcRwhw9cCAQCRUWJW522OE9sLynCyrbsRRi973rZsYKCY0Uluw/XVwUf9s0jQPpL1GaRGfQP2zD0NzvpxMmofcdNnYa3fMfzD1bhZ6comqR8/r1+32B/7JjP7/Mlvv1BjpQ3Rtu7bCo51GKbH/85slMU/iIBN/dv22bHP6D3+DGfnSIFvfihufNaABgdVr/p4kWEaGaPPwHf3AhL3L++hKE7naJ8g79GXL2jNHYFtnRmhGVPecWCjKI5kXc3Vpg6mwOv3t7obsOdMswuVLXEWl+0R2wcMowRpNI4VEgEYOQd7G3XBGQc3tz6su9yIQEyQO4TiWcpZBDDClrxl1qTZ5Jn3Y9+sLHGIxijNLd0Nrx/E9FZOzKItqhaTey4hwAAjLDChqhDQUZRFNvmfmn2gTgwaMyKDkkgkUGkaHXV3F61nDC3da0DukwbjmCcLVR3Nn9Nb5cmM5TBRiROAfnUBxubATCB1S8cVgoZRDNyxP2pEu7dDJHTXmXlkEEWQXcFr0wgTC6/oYeXLYYnR2U9dHW+Z9GpbkngKGQIZRH5UF3FEgIAMOKWPo4oHIWMYZyqVB43c4Uh8D9yXwxIMjKGYq2u0Lta08+eZa3pb1NF0mBYlq2O8MfZyz25/RGrYDDwkawihTtrYSAHgBks66lXWRoZQTsF3lv38SQBMkPWqajD6ACGlPXixs9pcO0XJI5fcBrqFI2DUaixch4xJu9GD28TGYPjON1VdzcNXgkARoPV197qAmc39ilmc5R+uZxNgAxR2OriZRKlRjGs4qjpbFhEmN/9/ggvM8gAS2J/V2ciGI1Z318lqRxKjeJk3hV8d97sa4IAjBJZO266DI4/nfWau+bzUgJkjIbuiKGLT3KyVP61Yr+p9zUPWXxpQFecKDW7U2kOvrpyjsByH3drNtFAGxrH8uLGCsioB8AkFjzv0BUOpUaLvLulsZIAmWP1jQHNylKpp5Blmyt81dzFpX5YkBPt4AUKpcJYZD709ex5D4FlbXrTJSkknbIRJ+j4xJnadIjlAIwO9+9EdJE2sgagldZVwBpAJlm6I+rSVYuBhHqtuPFumtTGzO5tl6wcY0+5VduqhWOVZ4YC3+M7Gi9yVMpGNld5/C7sKwHANHLfd0sqy6TOP+Zdn66eh5WwjLK09Z3Gp7z4nKq5H/bNmkmkhTEnW7t4wUmjpBhRkUKxhVOIIftxI1VkUmcjuuvGzoB0RABMw7P/TSKj2I6SoUhR0crjc2ANIMOc+tzhsIpM8hk3VXcHXzWNI9JEVkM0IqnJn6goVpVc5bdnTPp14nP0g6Qkj+a0U5W8pZ2z0ySWAzA6LH/fI+myJXlNHVbRveEKOCks02SfinZpNplM9uSh6t6W+F1zF/j93Zj83jvNerLMeprcp0g4G7Fywq9OrXzco/FWlhm2FcVwOJaHXzXNJQAAJrLmxoDEqxY6yTqYrGju8O3LJq+QB/5f4f1ouStJMh7N1ld5S+NnTV9a6nfnKt+FtOHf0XZu5yHJXRprOvl7p3J7nzVr6vATkKRT5r018SZYCAPAZBa/6HLpIkcNn5CGl/NrOishgmWgle9vv3ZYncxwn/aqVtwSnzotvY4nmDj/i8MmsOTwe5q9wdiV40v+XENraq/ih93oTzoF3hWMT588ngAAmMo39u4nRIkojgN4MOettsAiCIoOEUGXYg+KBzuInkRDEGxCJ5zdS4XSUkSIJ++xtx1CPCzCZOqyO8zNf7gsiIlLdNA9yAqriGMgC142od/MFpW2tXVy3O/nsLff4c3O7/3m99688b582HJYrMckr8/scnPR7Wel82dgBr3o13mHx2WabFp8C0Z1FVH8PLipt8Wz8zm6o53WwPzkoG4Y7VTBVos5+TXzS0woWW6u+T0u4+RiooFaMI+fC2Zi184AwLRZLHRbnN9jV5N3chvM6uaCYm3nnG42Q+BfRKiGNRwWKmILhol/vdNBL5Fv3tTfr5wm9pprtDzuGm8vDVSV3Sy/3j6kHmwMkyrXG363125emKh6XgvHr/Y2r+mrGwU4HZgnH7sN1uG02s03DGPbYFanf2v1E1Wwqf/EK/yfyCvlw5B1qAtvBoPP99MhKJq3g9u1B1f01oMRW2qvrt7SLvONse/Mq93U+m4uEZoMWkyVqw2HfyzIt6AFRdfbORkVDGAaMY8KXdrMtqirKD8XMZ/Z6mbpfbSD0jIq2OxiCqNOmPM7rSZTIGA2GueNRmPgjdXt4KN0nP2Cnt7k+CHZr78Pc3TYy2Sen1dHRH8CdvV+jr7bjQu/jXn6RKlv8ZQH34KIOWBy0WMcXYk2jjQDTK3Xj8vNcJh1e10mmsTmCWWvSXsOX/k0uKnPWQxO6FFhr9pqcCzrt7idHq/X43RbHBz/vtOs5PTzNv2vXr9UuvXWGsvSppjTQ44GxW0Nv4zix33ukXmh7NVbW1qQFkIxfpbjKagSX9bplQA4DZhU/0OzxXLfM96pJjwl73pvN5bG4+esC6XKX7bF/ZVgmKdKxoWDK6IoZirKYx1338yTQrf3ThS1QXEcHw5GRXG7nctKS388KneoBkUp5CgmKu6LmZHyHB9GBJhqkRfKKCNS8oZ5VTBIubsv1mKyhOSdfaHldGyQb/eGnU6n0ckUi7X8YCeri4/TH+u+JMdjB+1ecdghNKRa/uDBnct3I3+Munj11m0KGmpBmUyxnc8PclkBLRjAlItIcmlAyUvZq+XuZ8r4S7euzel6GoMTYi4KiXQpN6pW6/VqZTNWSicE3Z8EvP8wKcfLh6MqoTHtpOXluchf8+DuOTWoqwWNYjvxbEKwoYIB6MDGUcZXKHePMv7yHLbBTg1mSUgUlH6/ryhZql9LszBtM0tSUhtTPC0nzm1EThZFQdqViCuKnJRCyAEAnXi6KCXldJyks3Jy8ekszGJwchGbJAmCJG3MUOsdeUtDEu7NXT/7L3fz2etqlCTZUL8AdIWxCecFMlPTGAAAAAAAAAAAAAAAAAAAAAAAAAAAAAAAAAB8ZQ8OBAAAAACA/F8bQVVVVVVVVVVVVVVVVVVVVVVVVVVVVVVVVVVVVVVVYQ8OBAAAAACA/F8bQVVVVVVVVVVVVVVVVVVVVVVVVVVVVVVVVVVVVVVVVVVVVVVVVVVVVVVVVVVVVVVVVVVVVVVVVVVVVVVV2oMDEgAAAABB/1+3I1ABAAAAAAAAAAAAAAAAAAAAAAAAAAAAAAAAAAAAAAAAAAAAAAAAAAAAAAAAAAAAAAAAAAAAAAAAABgId0Q+LFBT7ZAAAAAASUVORK5CYII=;" vertex="1" parent="1">
          <mxGeometry x="40" y="40" width="370" height="165.54" as="geometry" />
        </mxCell>
      </root>
    </mxGraphModel>
  </diagram>
</mxfile>
